<svg width="8" height="11" viewBox="0 0 8 11" fill="none" xmlns="http://www.w3.org/2000/svg">
<path d="M4 11C4 11 8 7.09088 8 4.125C8 3.03098 7.57857 1.98177 6.82843 1.20818C6.07828 0.434597 5.06087 0 4 0C2.93913 0 1.92172 0.434597 1.17157 1.20818C0.421427 1.98177 1.58081e-08 3.03098 0 4.125C0 7.09088 4 11 4 11ZM4 6.1875C3.46957 6.1875 2.96086 5.9702 2.58579 5.58341C2.21071 5.19661 2 4.67201 2 4.125C2 3.57799 2.21071 3.05339 2.58579 2.66659C2.96086 2.2798 3.46957 2.0625 4 2.0625C4.53043 2.0625 5.03914 2.2798 5.41421 2.66659C5.78929 3.05339 6 3.57799 6 4.125C6 4.67201 5.78929 5.19661 5.41421 5.58341C5.03914 5.9702 4.53043 6.1875 4 6.1875Z" fill="#5B5B5B"/>
</svg>
