<?xml version="1.0" encoding="UTF-8"?>
<svg id="_Слой_1" data-name="Слой 1" xmlns="http://www.w3.org/2000/svg" viewBox="0 0 1000 1000">
  <defs>
    <style>
      .cls-1 {
        fill: #087077;
      }

      .cls-1, .cls-2 {
        stroke-width: 0px;
      }

      .cls-2 {
        fill: #fff;
      }
    </style>
  </defs>
  <circle class="cls-1" cx="500" cy="500" r="500"/>
  <g>
    <path class="cls-2" d="m935.09,497.82c0,6.75.03,11.35,0,15.96-.09,12.48-1.2,24.88-2.61,37.28-1.96,17.28-5.05,34.35-9.1,51.24-6.66,27.8-16.05,54.64-28.09,80.58-10.33,22.28-22.46,43.52-36.36,63.74-9.93,14.44-20.64,28.3-32.39,41.33-5.56,6.17-11.09,12.4-16.96,18.28-27.07,27.15-57.06,50.57-90.21,69.9-28.71,16.75-58.93,30.05-90.7,39.85-18.74,5.78-37.79,10.25-57.15,13.41-8.93,1.46-17.87,2.74-26.89,3.58-8.87.83-17.74,1.37-26.63,1.85-8.16.44-16.32.81-24.47.46-8.89-.38-17.8-.41-26.66-1.39-4.71-.52-9.47-.68-14.19-1.17-5.16-.54-10.32-1.16-15.45-1.94-12.62-1.91-25.14-4.33-37.58-7.22-13.75-3.19-27.25-7.2-40.6-11.75-34.89-11.9-67.67-28.07-98.42-48.39-14.76-9.75-28.87-20.35-42.39-31.75-2.95-2.49-5.89-5-8.7-7.64-6.28-5.89-12.62-11.72-18.68-17.83-21.6-21.79-40.69-45.61-57.25-71.46-13.73-21.43-25.46-43.88-35.29-67.36-8.85-21.13-15.89-42.85-21.29-65.1-3.4-13.99-6.03-28.14-7.98-42.41-1.16-8.52-2.08-17.07-2.75-25.65-.47-5.93-.41-11.87-.93-17.77-.65-7.42-.7-14.84-.46-22.25.3-9.19.44-18.39,1.39-27.55.48-4.57.62-9.18,1.15-13.74.84-7.22,1.73-14.43,2.87-21.61,1.98-12.46,4.44-24.83,7.53-37.06,6.46-25.53,15.07-50.3,25.96-74.29,11.82-26.04,26.13-50.63,42.79-73.86,8.74-12.19,18.16-23.84,28.11-35.08,10.44-11.8,21.51-22.98,33.16-33.56,24.72-22.44,51.68-41.81,80.86-58.03,34.18-19,70.26-33.2,108.27-42.44,14.57-3.54,29.29-6.26,44.15-8.3,8.53-1.17,17.08-1.96,25.65-2.72,6.22-.55,12.44-.63,18.67-.87,5.93-.23,11.86-.59,17.79-.52,8.16.1,16.33.33,24.47.88,29.09,1.97,57.76,6.55,85.92,14.15,20.23,5.46,39.97,12.36,59.21,20.68,12.95,5.6,25.61,11.82,37.95,18.65,11.69,6.47,23.03,13.54,34.09,21.05,9.46,6.43,18.59,13.29,27.55,20.4,15.96,12.67,30.76,26.6,44.77,41.37,14.94,15.75,28.5,32.63,40.86,50.49,10.4,15.03,19.82,30.64,28.29,46.85,11.51,22.03,21.05,44.87,28.61,68.53,5.83,18.25,10.41,36.83,13.72,55.72,1.74,9.94,3.24,19.92,4.32,29.94,1.67,15.51,2.48,31.06,2.05,44.52ZM276.66,161.36l.05.04c-.02-8.29,3.76-14.51,10.66-18.8,3.7-2.3,7.89-3.3,12.3-3.36,4.84-.07,9.39,1.13,13.88,2.73,1.8.64,3.48,1.69,5.83,1.71,1.06-.5,2.4-1.13,3.73-1.77,2.67-1.28,5.31-2.65,8.02-3.84,7.19-3.16,14.4-6.29,21.64-9.34,7.02-2.96,11.61-8.08,13.78-15.33,1.11-3.69,1.98-7.45,2.92-11.19.17-.69.41-1.45-.28-2.16-.36-.03-.82-.21-1.21-.1-11.28,3.24-22.09,7.77-32.92,12.23-4.22,1.74-8.51,3.38-12.38,5.75.06.35.03.54.11.62.43.39.82.87,1.33,1.09,5.87,2.56,11.79,2.57,17.73.21,4.36-1.73,7.95-4.55,11.16-7.91.43-.45.62-1.39,1.61-1.04-.05.33-.07.63-.14.91-3.5,12.39-16.2,20.26-29.05,17.67-4.38-.88-8.65-2.05-12.83-3.57-1.24-.45-2.5-.85-3.75-1.27-1.19.54-2.3.95-3.33,1.51-5.34,2.91-10.71,5.77-15.97,8.81-5.01,2.89-9.97,5.88-14.82,9.02-7.5,4.86-10.94,11.84-10.38,20.78.19,3.11.36,6.22.59,9.32.05.67.35,1.33.64,2.35,1.28-.78,2.3-1.31,3.23-1.98,9.62-6.96,19.64-13.31,29.87-19.33,1.92-1.13,3.88-2.18,5.77-3.35.56-.35.95-.99,1.4-1.48-.38-.4-.54-.71-.78-.81-6.34-2.59-12.46-2.14-18.3,1.43-2.56,1.56-4.66,3.64-6.46,6.04-1.14,1.52-2.44,2.93-3.66,4.39Zm561.26,115c9.76-.07,16.65,4.44,20.86,13.16,1.44,2.99,2.03,6.19,2.14,9.48.17,4.66-.76,9.14-2.4,13.49-.78,2.07-1.58,4.13-2.42,6.3.97,1.89,1.92,3.73,2.86,5.56.61,1.19,1.3,2.34,1.83,3.56,3.32,7.61,6.6,15.24,9.9,22.86.47,1.09.94,2.18,1.46,3.25,3.01,6.24,7.93,10.26,14.49,12.27,3.4,1.04,6.86,1.88,10.32,2.73.96.24,1.98.73,3.02.05.77-1.35-.09-2.56-.46-3.77-3.56-11.49-8.22-22.56-12.92-33.62-1.16-2.73-2.4-5.42-3.65-8.11-.22-.46-.68-.81-1.2-1.39-.52.72-.93,1.14-1.16,1.65-2.48,5.54-2.65,11.21-.61,16.89,1.63,4.54,4.33,8.42,7.82,11.75.56.54,1.57.8,1.47,2.17-1.45-.56-2.84-1.01-4.15-1.6-10.78-4.85-16.47-15.63-14.51-27.28.77-4.55,1.95-8.98,3.65-13.27.48-1.23.86-2.49,1.28-3.75-.69-1.47-1.25-2.84-1.96-4.13-3.73-6.75-7.42-13.52-11.27-20.2-2.14-3.72-4.43-7.38-6.88-10.91-3.75-5.4-8.85-8.64-15.55-9.1-5.04-.35-10.05.25-15.07.53-.2.01-.38.39-.72.75.12,1.42,1.27,2.45,2.08,3.64,2.83,4.17,5.74,8.3,8.53,12.49,4.77,7.16,9.24,14.51,13.42,22.04.45.82.65,2.05,2.04,1.92,3.24-6.25,2.92-13.6-1.06-19.41-1.32-1.93-2.97-3.71-4.73-5.27-1.98-1.76-4.25-3.19-6.4-4.77l-.06.06Zm77.52,205.71c-3.27-1.91-5.81-4.58-7.95-7.65-3.27-4.69-4.58-9.96-4.08-15.59.37-4.17,1.75-8.1,3.72-11.81,1.96-3.69,4.43-7.02,7.07-10.23.74-.9,1.44-1.85,2.21-2.86-.58-3.42-1.17-6.76-1.72-10.12-1.58-9.67-3.83-19.2-6.29-28.67-1.91-7.37-6.62-12.52-13.92-14.98-3.65-1.23-7.39-2.18-11.11-3.2-.8-.22-1.74-.57-2.66.47.23.99.46,2.13.77,3.25,1.21,4.28,2.57,8.52,3.65,12.83,2.35,9.35,4.57,18.73,6.85,28.09.16.67.06,1.52,1.27,1.77,3.21-2.98,4.91-6.82,5.33-11.21.61-6.52-1.36-12.28-5.54-17.32-.71-.86-1.79-1.49-1.99-2.77.38-.04.7-.17.92-.08,11.87,4.81,16.55,16.53,13.69,27.14-1.53,5.7-4.56,10.6-8.21,15.15-.83,1.03-1.67,2.06-2.45,3,0,.78-.07,1.38,0,1.95,1.49,11.17,3.08,22.32,3.51,33.6.06,1.47.36,2.94.64,4.4,1.21,6.24,4.21,11.38,9.56,14.94,3.45,2.3,7.02,4.44,10.55,6.63.61.38,1.28.8,2.28-.05.21-3.59.09-7.43-.11-11.26-.42-7.7-.9-15.39-1.42-23.08-.29-4.29-.67-8.57-1.1-12.85-.08-.8-.58-1.56-.98-2.56-.74.5-1.29.74-1.66,1.14-2.99,3.26-4.74,7.13-5.45,11.49-.88,5.48.32,10.6,2.55,15.57.73,1.61,1.33,3.28,1.99,4.92l.05-.05Zm-307.33,408.97l-.04-.04c-.27.99-.39,2.06-.85,2.94-5.21,10.02-15.39,13.84-25.52,11.6-5.94-1.31-10.94-4.48-15.62-8.22-1.15-.92-2.06-2.17-3.85-2.67-5.17.65-10.6,1.38-16.04,2.01-4.42.51-8.85.91-13.28,1.34-3.1.3-6.22.46-9.3.89-6.33.89-11.53,3.83-15.19,9.13-2.53,3.66-4.82,7.48-7.17,11.26-.27.44-.26,1.06-.45,1.9,13.33.64,26.3-.79,39.29-1.67,3.53-.24,7.04-.9,10.55-1.41.21-.03.36-.42.54-.65-.03-.14,0-.33-.09-.41-4.13-4.23-9.2-6.31-15.07-6.68-4.74-.3-9.11.93-13.33,2.9-1.31.61-2.61,1.24-4.04,1.93.08-.55.02-.88.16-1.06,2.08-2.74,4.5-5.15,7.29-7.14,4.14-2.96,8.91-4.17,13.88-3.93,5.4.26,10.52,1.89,15.08,4.91,2.96,1.97,5.79,4.15,8.67,6.23.83.6,1.65,1.22,2.32,1.72.84,0,1.44.09,2.01-.01,7.87-1.49,15.75-2.94,23.59-4.54,4.36-.89,8.7-1.92,12.99-3.09,7.71-2.09,13.05-6.87,15.56-14.53,1.2-3.66,2.14-7.41,3.16-11.13.19-.69.37-1.46-.54-2.21-2.4.67-4.96,1.38-7.51,2.1-2.57.72-5.14,1.47-7.71,2.17-2.43.67-4.87,1.32-7.31,1.94-2.59.66-5.18,1.3-7.78,1.92-2.6.62-5.23,1.11-7.8,1.81-2.5.68-5.19.77-7.83,2.26.62.8.96,1.47,1.49,1.88,2.9,2.21,6.17,3.53,9.82,3.8,6.18.46,11.75-1.14,16.64-5,1.04-.82,2.18-1.52,3.27-2.27Zm33.82-770.68l.06.06c2.13-1.97,4.76-3.04,7.5-3.69,7.14-1.7,13.85-.94,19.72,3.91,3.37,2.78,6.2,6.03,7.91,10.06,1.44,3.4,2.52,6.96,3.72,10.46.33.97.56,1.97.82,2.89.64.39,1.12.74,1.64,1.01,10.36,5.18,20.36,11,30.12,17.23,6.76,4.32,13.87,4.88,21.3,2.28,3.78-1.32,7.47-2.88,11.19-4.37.51-.2.93-.62,1.66-1.11-.88-.72-1.52-1.3-2.22-1.81-8.37-6.16-17.1-11.8-25.94-17.25-4.04-2.49-8.19-4.8-12.32-7.14-.71-.4-1.5-1.06-2.42-.36-.11.29-.28.56-.29.83-.01.44.04.89.14,1.32,1.81,7.5,6.63,12.45,13.44,15.61,3.11,1.44,6.38,2.41,9.86,2.5.48.01,1.29-.23,1.3.93-3.57,1.65-7.41,1.62-11.26,1.53-4.28-.1-8.12-1.51-11.68-3.84-3.56-2.34-6.18-5.51-8.25-9.18-2.27-4.03-3.9-8.32-5.09-12.79-.45-1.71-.67-3.51-2.03-5.27-1.14-.61-2.55-1.43-4.02-2.13-4.28-2.04-8.56-4.12-12.9-6.03-5.97-2.62-11.94-5.28-18.04-7.6-8.08-3.07-15.72-2.22-22.59,3.37-2.53,2.06-5.1,4.08-7.61,6.16-.53.44-.9,1.07-1.3,1.56.33.46.44.8.66.9,1.08.48,2.17.96,3.3,1.32,11.87,3.84,23.42,8.51,34.79,13.63,1.35.61,2.73,1.17,4.1,1.73.73.3,1.43.37,1.9-.45-1.49-7.36-6.56-13.07-13.51-15.08-2.71-.79-5.48-1.31-8.34-1.21-1.78.06-3.56.03-5.34.03Zm-142.02,766.33c212.52.23,386.21-171.4,387.03-385.17.83-214.79-172.75-387.8-385.74-388.26-215.16-.46-387.04,173.73-387.71,385.41-.68,213.84,172.48,387.91,386.42,388.02Zm347.02-157.87c-1.47-2.25-1.73-3.86-1.79-5.49-.07-1.93-.08-3.86-.09-5.79-.04-4.31,1.48-8.13,3.81-11.67,1.57-2.38,3.58-4.33,5.88-6.02,4.87-3.58,10.4-5.65,16.15-7.25,1.56-.43,3.12-.87,4.65-1.29.76-1.33,1.5-2.45,2.07-3.64,2.06-4.28,4.14-8.55,6.07-12.89,2.71-6.1,5.34-12.24,7.91-18.4,1.74-4.17,2.57-8.49,1.75-13.04-.51-2.84-1.54-5.47-3.21-7.75-2.71-3.71-5.66-7.25-8.54-10.83-.24-.3-.75-.38-1.2-.6-1.16,1.14-1.43,2.62-1.88,4.01-3.73,11.44-8.16,22.61-13.06,33.59-.85,1.9-1.74,3.77-2.57,5.68-.23.54-.31,1.14.32,1.54,8.31-1.69,13.91-6.98,15.81-14.94.59-2.46.98-4.94.89-7.49-.04-1.28.05-2.56.1-4.48,1.77,2.14,2.58,4.04,3.15,6,2.37,8.11,1.35,15.56-4.54,21.99-3.05,3.33-6.61,6-10.81,7.65-2.89,1.14-5.91,1.95-8.86,2.92-.97.32-1.93.67-2.88,1.01-.51.87-1,1.61-1.4,2.4-5.11,10.07-10.71,19.85-16.85,29.33-3.79,5.85-4.71,12.21-2.84,18.77,1.38,4.83,3.51,9.44,5.34,14.13.09.24.42.39.64.58.14-.01.33.03.41-.04.43-.39.91-.76,1.25-1.22,9.34-12.87,17.9-26.23,25.54-40.18.17-.31.02-.8.02-1.43-4.09.34-7.58,1.76-10.69,4.13-6.55,5-9.11,12.15-10.55,20.72Zm-94.71-545.66c3.1-1.28,4.24-1.36,8.22-1.36,6.01,0,10.91,2.42,15.08,6.56,2.9,2.89,4.8,6.37,6,10.27,1.1,3.59,1.32,7.28,1.31,11,0,2.65,0,5.31,0,7.93,1.12,1.26,2.09,2.37,3.09,3.45,4.43,4.79,8.91,9.54,13.3,14.36,2.9,3.18,5.68,6.46,8.55,9.66,1.09,1.21,2.24,2.37,3.45,3.47,3.07,2.79,6.78,4.5,10.84,4.66,5.47.22,10.96-.15,16.44-.34.62-.02,1.22-.56,1.88-.88-.72-2.14-2-3.62-3.19-5.1-6.61-8.19-13.27-16.35-19.95-24.49-1.98-2.4-4.07-4.71-6.17-7.02-.76-.84-1.42-1.97-2.84-1.8-.19.25-.48.45-.51.7-.74,5.31.02,10.33,2.9,14.95,2.58,4.15,6.25,7.09,10.44,9.45,1.4.79,2.84,1.51,4.4,2.33-.47.26-.69.48-.92.49-10.92.46-20.07-5.38-24.14-15.47-.66-1.64-1.09-3.38-1.56-5.09-1.18-4.36-.92-8.83-.91-13.27,0-1.91,0-3.83,0-5.6-.89-.96-1.58-1.73-2.3-2.47-7.67-7.87-16.06-14.96-24.31-22.2-1.22-1.07-2.51-2.11-3.86-3-5.6-3.7-11.66-5.19-18.2-3.15-4.1,1.28-8.08,2.92-12.1,4.44-.51.19-.9.69-1.3,1.01.19.44.23.8.42.95,12.26,9.37,24.1,19.24,35.66,29.45.16.14.54.02,1.07.02.19-.79.61-1.62.56-2.43-.36-6.38-2.79-11.76-7.81-15.86-3.79-3.09-8.25-4.58-13.55-5.6ZM107.65,576.44c-.9.79-1.5,1.19-1.92,1.73-4.15,5.35-4.71,11.38-3.21,17.74.9,3.84,2.93,7.1,5.46,10.09.51.6,1.51.99,1.19,2.09-9.28-2.52-17.49-13.12-14.54-26.53,1.34-6.08,4.62-11.2,8.45-16,.83-1.03,1.67-2.05,2.5-3.07-.34-2.94-.62-5.73-.99-8.52-1.12-8.38-2.26-16.75-2.55-25.22-.05-1.62-.37-3.24-.59-4.85-.94-7.03-4.37-12.53-10.28-16.43-3.34-2.21-6.75-4.32-10.15-6.43-.46-.29-1.08-.32-1.59-.47-.94,1.36-.64,2.74-.59,4.04.26,7.56.53,15.12.91,22.67.25,4.89.65,9.76,1.07,14.64.22,2.51.59,5.01.96,7.5.1.69.32,1.47,1.58,1.48,6.12-6.86,8.05-14.82,5.36-23.78-.76-2.54-2.08-4.91-3.12-7.36-.2-.47-.86-.91-.08-1.64.68.53,1.41,1.02,2.05,1.61,1.19,1.11,2.4,2.22,3.49,3.43,3.15,3.51,5.04,7.58,5.79,12.29.61,3.79.07,7.39-.92,10.98-1.44,5.24-4.18,9.79-7.54,14.02-1.47,1.84-2.9,3.71-4.23,5.41.05.92.03,1.52.13,2.1.87,4.97,1.62,9.96,2.67,14.89,1.54,7.25,3.16,14.49,4.99,21.68,1.79,7.05,6.1,12.24,12.91,14.87,4.27,1.64,8.81,2.59,13.24,3.79.46.13,1.03-.15,1.87-.29-4.62-14.87-8.32-29.67-11.56-44.58-.09-.42-.33-.81-.77-1.86Zm17.2-267.64c-.72,1.28-1.54,2.52-2.16,3.85-3.75,8.08-7.5,16.15-11.15,24.27-1.33,2.97-2.48,6.04-3.53,9.13-2.23,6.61-1.54,12.92,2.52,18.66,2.48,3.51,5.24,6.82,7.91,10.2.46.58,1.06,1.07,2.14.46.39-1.04.9-2.26,1.31-3.52,3.63-11,7.93-21.75,12.54-32.37.95-2.18,1.97-4.32,2.89-6.51.2-.47.11-1.07.16-1.72-.67-.04-1.12-.19-1.5-.08-6.71,1.91-11.51,5.93-13.89,12.63-1.06,2.98-1.5,6.03-1.46,9.18.02,1.42-.06,2.85-.11,5.08-.87-1.26-1.33-1.8-1.66-2.42-1.99-3.77-2.57-7.8-2.57-12.05,0-5.2,1.88-9.54,5.25-13.34,3.51-3.96,7.72-6.93,12.75-8.66,2.38-.82,4.81-1.51,7.21-2.27.97-.31,1.93-.67,2.63-.92.38-.5.6-.72.74-.98,5.76-10.9,11.82-21.62,18.47-32,.94-1.47,1.57-3.2,2.08-4.89,1.46-4.84,1.29-9.7-.39-14.44-1.38-3.91-2.99-7.75-4.54-11.6-.19-.47-.7-.82-1.23-1.41-3.61,3.71-6.18,7.88-8.89,11.9-10.11,14.96-16.49,25.88-18.08,30.52.1.1.19.26.32.3.28.08.59.2.86.14,4.61-.95,8.74-2.82,12.03-6.29,4.33-4.59,6.69-10.08,7.49-16.3.1-.76-.39-1.78.9-2.32,2,4.38,2.08,8.95,1.4,13.49-.92,6.09-3.76,11.2-8.79,14.97-3.47,2.6-7.2,4.71-11.34,6.05-3.25,1.04-6.5,2.06-10.3,3.26Zm171.46,559.05c-.17-1.03-.2-1.77-.42-2.45-.44-1.41-.9-2.83-1.48-4.19-.46-1.09-1.06-2.12-1.71-3.12-.56-.87-1.21-1.69-1.92-2.45-.81-.86-1.66-1.7-2.6-2.42-1.18-.9-2.41-1.74-3.71-2.45-1.43-.78-2.89-1.61-4.44-2.03-3.05-.83-6.18-1.38-9.22-2.04.16-.18.32-.49.55-.58,5.17-1.93,10.46-1.96,15.76-.72,6.6,1.56,11.26,5.72,14.74,11.38,2.66,4.34,4.37,9.08,5.75,13.95.44,1.56.88,3.11,1.33,4.68,1.59.85,2.99,1.67,4.46,2.36,6.58,3.08,13.15,6.19,19.8,9.14,4.2,1.86,8.47,3.6,12.8,5.14,7.06,2.5,13.74,1.64,19.77-2.95,3.19-2.42,6.32-4.93,9.44-7.43.41-.33.63-.89,1.11-1.59-1.33-.59-2.36-1.13-3.44-1.52-3.91-1.39-7.9-2.6-11.76-4.12-8.7-3.41-17.47-6.65-25.89-10.75-.67-.32-1.34-.66-2.05-.84-.51-.13-1.09-.03-1.54-.03-.15.33-.28.47-.26.58,1.19,6.43,4.77,11.07,10.65,13.87,3.25,1.55,6.72,2.32,10.35,2.29,1.74-.02,3.47.04,5.36.06-.31.49-.4.82-.62.96-7.6,4.72-19.64,5.35-27.9-2.99-2.1-2.12-3.88-4.48-5.31-7.11-2-3.68-3.31-7.6-4.25-11.67-.23-.99-.6-1.95-.92-2.96-3.23-1.7-6.43-3.26-9.5-5.04-7.44-4.32-14.82-8.74-22.22-13.13-2.04-1.21-4.05-2.43-6.41-3.02-5.04-1.26-10-1.16-14.87.69-3.74,1.42-7.47,2.9-11.18,4.4-.49.2-.9.62-1.58,1.09.72.68,1.19,1.23,1.77,1.64,12.91,9.27,26.26,17.84,40.22,25.44.21.11.56-.03,1.36-.09ZM376.9,119.12c.6.19.76.3.88.26,14.45-3.89,28.82-8.12,43.52-11.04.57-.11,1.11-.37,1.66-.58.12-.05.2-.2.36-.37-.15-.36-.22-.87-.51-1.13-3.09-2.72-6.65-4.42-10.81-4.69-6.04-.39-11.44,1.25-16.18,5.03-1.11.88-2.1,1.98-4.09,2.66.69-1.55,1.08-2.62,1.63-3.61,6.26-11.42,18.4-13.6,27.03-10.81,4.58,1.48,8.71,3.74,12.49,6.68,1.63,1.27,3.26,2.55,4.93,3.85,3.48-.44,6.85-.92,10.23-1.29,7.22-.78,14.45-1.49,21.68-2.24,2.51-.26,5.03-.42,7.51-.84,6.46-1.07,11.67-4.2,15.29-9.75,2.27-3.48,4.49-6.99,6.69-10.52.29-.46.34-1.08.55-1.79-.76-.15-1.33-.37-1.88-.37-4.15.06-8.31.07-12.46.28-7.41.39-14.81.87-22.2,1.39-3.99.28-7.98.68-11.96,1.11-.81.09-1.84.18-1.91,1.4,4.38,4.75,11.04,7.33,17.57,6.9,4.07-.27,7.83-1.58,11.49-3.26,1.16-.53,2.2-1.4,4.05-1.7-1.58,2.43-3.25,4.09-4.97,5.69-3.44,3.21-7.44,5.2-12.12,6.16-4.75.97-9.16.05-13.52-1.46-4.23-1.47-8.06-3.76-11.58-6.54-1.97-1.56-3.94-3.11-5.83-4.59-.78,0-1.38-.09-1.95.01-12.27,2.19-24.5,4.55-36.56,7.69-7.79,2.03-13.05,6.85-15.69,14.4-1.22,3.49-2.06,7.12-3.04,10.7-.19.69-.18,1.43-.29,2.38ZM95.25,482.51c-.89-.77-1.55-1.31-2.18-1.89-8.49-7.89-9.33-21.48-2.49-30.39,3.12-4.06,6.84-7.37,11.05-10.21,1.34-.9,2.66-1.82,3.94-2.7.37-1.81.73-3.4,1.01-5,.5-2.77.86-5.57,1.45-8.32,1.63-7.53,3.3-15.06,5.07-22.56,1.9-8.07.39-15.27-5.03-21.62-2.31-2.71-4.54-5.48-6.82-8.22-.37-.44-.83-.81-1.4-1.37-.46.56-.93.93-1.13,1.42-.45,1.09-.8,2.23-1.14,3.37-3.72,12.36-6.83,24.87-9.72,37.45-.36,1.59-.68,3.19-.95,4.8-.11.7-.2,1.48.62,1.9.16.01.32.06.46.03.29-.07.58-.14.84-.29,5.41-3.09,8.98-7.64,10.67-13.63,1.15-4.07,1.04-8.21.53-12.36-.14-1.14-.25-2.28-.42-3.85.72.6,1.12.82,1.36,1.15,5.84,8.23,7.7,21.31-1.56,31.62-3.19,3.55-6.72,6.69-10.78,9.23-1.5.94-2.95,1.95-4.48,2.97-.31,1.71-.68,3.29-.89,4.89-.74,5.73-1.54,11.46-2.12,17.21-.61,6.04-1.14,12.1-1.44,18.16-.35,6.99,2.38,12.83,7.85,17.1,3.72,2.91,7.86,5.28,11.82,7.87.18.12.55-.04.87-.08,1.07-1.23.77-2.77.81-4.21.23-8,0-16.01.95-23.99.7-5.88,1.11-11.8,1.62-17.7.05-.54-.12-1.1-.19-1.64-.51,0-.86-.11-1.08.02-4.78,2.65-7.92,6.57-9.32,11.88-1.37,5.24-.56,10.29,1.16,15.29.37,1.07,1.16,2.02,1.04,3.67Zm387.25,422.38c-.47,1.45-1.56,2.23-2.49,3.09-8.87,8.3-21.8,7.7-29.44,1.68-3.9-3.07-7.28-6.52-9.98-10.66-.97-1.48-1.96-2.94-2.91-4.36-1.8-.37-3.39-.73-4.99-1.03-4.66-.87-9.35-1.6-13.99-2.59-5.94-1.27-11.83-2.83-17.77-4.09-6.32-1.34-12.4-.75-17.91,2.98-.98.66-1.92,1.39-2.84,2.13-2.77,2.24-5.52,4.5-8.25,6.78-.52.43-.9,1.02-1.4,1.62,1.58,1.49,3.4,1.71,5.07,2.21,10.09,3.02,20.23,5.84,30.52,8.09,3.48.76,6.94,1.6,10.41,2.37.99.22,2.03.55,2.92-.24,0-.33.11-.68-.02-.9-2.99-5.66-7.55-9.47-13.7-11.23-4.65-1.33-9.38-1.16-14.12-.37-.6.1-1.39.61-1.81-.38,8.61-6.87,19.95-7.46,28.99-1.59,5.34,3.47,9.31,8.22,12.74,13.48.88,1.36,1.74,2.73,2.65,4.17,1.86.33,3.59.71,5.35.94,5.59.72,11.17,1.46,16.77,2.04,5.9.6,11.8,1.16,17.72,1.47,8.08.43,14.35-3.1,19.02-9.53,2.18-3,4.12-6.17,6.12-9.29.29-.45.37-1.04.52-1.47-1.24-1.3-2.65-.98-3.94-1.02-8.15-.26-16.31-.05-24.44-1-6.18-.72-12.4-1.07-18.6-1.56-.25-.02-.52.22-.86.38.05.39-.02.88.18,1.21,2.76,4.73,6.86,7.65,12.17,8.97,5.1,1.27,10,.42,14.86-1.19,1.08-.36,2.04-1.13,3.45-1.12Zm-279.9-106.5c1.95,1.84,3.8,3.54,5.59,5.3,6.15,6.01,12.46,11.86,19.12,17.31,1.38,1.13,2.62,2.43,4.03,3.5,6.31,4.77,13.23,6.56,20.91,3.95,3.51-1.19,6.96-2.54,10.41-3.9.76-.3,1.4-.93,2.37-1.6-12.67-9.61-24.8-19.34-36.2-29.94-.19-.18-.54-.19-.82-.28-1.09.61-1.12,1.7-1.08,2.71.17,4.07,1.14,7.9,3.57,11.28,3.85,5.33,9.16,8.29,15.49,9.64.61.13,1.43-.23,1.93.78-2.74,1.14-5.56.93-8.34.94-3.97.02-7.55-1.26-10.9-3.36-4.46-2.8-7.49-6.77-9.15-11.68-1.91-5.66-2.89-11.49-2.04-17.51.14-1,.11-2.03.16-2.99-2.61-2.87-5.01-5.7-7.62-8.33-5.44-5.48-10.48-11.31-15.45-17.21-1.43-1.7-2.94-3.35-4.57-4.86-3.48-3.23-7.66-5.19-12.37-5.49-5.17-.33-10.38-.24-15.53.66-.69.12-1.5.09-1.91,1.23.51,1.52,1.67,2.88,2.77,4.25,5.85,7.28,11.69,14.58,17.63,21.78,3.02,3.66,6.25,7.14,9.41,10.68.57.63,1.14,1.41,2.33,1.06.15-.31.46-.68.5-1.07.81-8.11-1.78-14.93-8.06-20.16-2.04-1.7-4.42-2.97-6.62-4.47-.95-.65-2.28-.73-2.9-1.92,10.48-.91,20.2,4.78,24.35,14.34.88,2.03,1.46,4.2,2.03,6.34,1.11,4.21,1.01,8.52.93,12.83-.03,1.92,0,3.84,0,6.19Zm489.01,76.97c1.58-.75,3.08-1.38,4.49-2.16,5.32-2.94,10.66-5.85,15.91-8.91,4.87-2.84,9.72-5.72,14.42-8.82,6.74-4.45,9.71-11.02,9.71-18.95,0-3.55-.38-7.1-.63-10.65-.05-.67-.33-1.32-.48-1.86-.45-.08-.64-.17-.73-.11-12.8,8.59-25.57,17.21-39.07,24.69-.39.22-.76.46-1.21.74.57.63.79,1.09,1.13,1.22,7.9,2.85,15.21,1.91,21.56-3.77,1.96-1.76,3.46-4.04,5.13-6.11.54-.66.95-1.43,1.79-2.71,0,1.84.21,3.02-.03,4.11-2.34,10.65-9.55,17.64-21.46,18.58-5.76.45-11.17-1.01-16.47-3.06-1.37-.53-2.63-1.4-4.56-1.32-1.03.49-2.37,1.12-3.7,1.75-2.68,1.27-5.32,2.62-8.04,3.81-7.19,3.16-14.41,6.27-21.63,9.36-7.3,3.12-12.03,8.45-14.08,16.13-1,3.72-1.99,7.45-2.94,11.18-.13.5,0,1.07.01,1.63,5.5-.51,26.51-8.72,41.02-15.15,2.11-.93,4.39-1.63,6.15-3.24-.3-.44-.42-.78-.64-.89-2.66-1.37-5.48-2.21-8.49-2.4-6.22-.4-11.67,1.58-16.57,5.28-.71.54-1.38,1.12-2.05,1.7-.78.68-1.52,1.42-2.32,2.07-.63.51-.86,1.54-2.15,1.51,1.51-5.71,4.54-10.35,9.14-13.82,5-3.78,10.69-5.75,17.06-5.09,5.19.54,10.22,1.75,15.07,3.68,1.5.59,3.05,1.06,4.65,1.6Zm91.35-92.95c-1.41,1.22-2.82,2.31-4.07,3.55-7.38,7.32-15.19,14.16-23.04,20.95-1.34,1.16-2.64,2.39-3.85,3.7-2.91,3.15-4.81,6.94-4.98,11.17-.21,5.47.18,10.96.39,16.44.02.63.56,1.25.99,2.14,1.34-.89,2.47-1.57,3.52-2.36,9.44-7.2,18.74-14.56,27.58-22.5,2.1-1.88,4.23-3.72,6.31-5.62.52-.48,1.12-1.02.85-1.89-.22-.2-.42-.52-.65-.55-6.85-.97-12.95.73-18.17,5.3-2.82,2.47-4.94,5.51-6.7,8.81-.61,1.14-.94,2.48-2.09,3.42-1.13-11.17,5.26-21.33,15.86-25.14,3.92-1.41,7.97-2.34,12.19-2.24,2.67.06,5.34.08,8.01.07,1.17,0,2.33-.13,3.3-.18.76-.7,1.31-1.19,1.84-1.71,8.26-8.12,15.83-16.87,23.43-25.6,1.86-2.14,3.4-4.51,4.44-7.15,1.67-4.22,2.58-8.57,1.1-13.03-1.49-4.5-3.15-8.94-4.81-13.38-.16-.44-.77-.7-1.33-1.18-2.63,3.35-5.09,6.5-7.55,9.63-2.38,3.03-4.72,6.11-7.18,9.08-2.55,3.08-5.31,6-7.83,9.11-2.48,3.07-5.5,5.7-7.71,9.05,2,1.06,2.14,1.12,2.98,1.06,6.21-.42,11.48-2.75,15.48-7.65,2.79-3.41,4.47-7.31,5.35-11.6.12-.58-.24-1.43.81-1.78.22.62.52,1.15.59,1.72.19,1.62.37,3.25.39,4.87.11,10.12-5.31,18.09-14.8,21.58-5.78,2.12-11.77,2.96-17.93,2.14-.73-.1-1.47-.13-2.71-.24ZM183.48,246.87c-1.46-2.65-1.39-5.42-1.31-8.19.12-4.14,1.58-7.8,3.96-11.14,3.23-4.54,7.6-7.48,12.95-8.85,5.04-1.28,10.14-2.2,15.39-1.31,1,.17,2.05.02,3.05.02.76-.63,1.47-1.17,2.12-1.77,8.38-7.75,16.6-15.68,25.41-22.96,1.25-1.03,2.38-2.23,3.46-3.45,3.27-3.7,4.96-8.07,5.07-12.98.08-3.56-.03-7.12-.21-10.67-.1-1.86-.11-3.81-1.09-5.5-1.77.13-2.85,1.24-4.01,2.11-11.97,9.02-23.56,18.5-34.47,28.78-.28.26-.32.77-.5,1.23,1.44.88,2.96.56,4.4.56,7.3.03,13.24-2.92,17.78-8.56,1.57-1.95,2.74-4.22,4.12-6.32.63-.96.71-2.29,1.89-2.92.83,7.98-2.73,16.53-8.82,21.19-3.35,2.56-7.11,4.22-11.2,5.22-4.38,1.08-8.83.94-13.27.91-2.06-.01-4.12,0-6.15,0-3.76,3.88-7.49,7.51-10.96,11.35-5.27,5.83-10.51,11.69-15.49,17.77-5.07,6.18-6.28,13.31-3.8,20.93,1.19,3.66,2.69,7.22,4.09,10.81.19.5.65.89.91,1.23.41-.07.62-.04.68-.12,9.66-12.19,19.23-24.46,29.85-35.86.09-.1.11-.27.12-.42,0-.13-.05-.27-.12-.6-.43-.15-.97-.48-1.51-.5-2.83-.11-5.62.17-8.28,1.25-6.34,2.57-10.21,7.43-12.54,13.66-.62,1.65-1.01,3.39-1.5,5.09Zm397.44-159.93c.04.49-.06.98.13,1.31,3.89,6.73,9.65,10.81,17.4,11.69,3.52.4,7.11.36,10.64-.41.54-.12,1.11-.09,2.05-.16-.55.66-.76,1.07-1.09,1.29-11.15,7.17-21.68,6.82-31.57-1.44-.46-.38-.89-.78-1.32-1.19-3.25-3.08-6.1-6.48-8.47-10.28-.78-1.25-1.6-2.47-2.22-3.43-3-1.36-5.86-1.29-8.63-1.73-9.97-1.59-20.03-2.26-30.08-3.13-8.2-.71-14.87,2.34-19.81,8.82-2.6,3.41-4.74,7.17-7.07,10.79-.13.2-.02.56-.02,1.08.45.17.96.48,1.49.53,1.33.12,2.67.13,4,.15,5.05.09,10.11-.05,15.13.31,8.57.6,17.13,1.52,25.69,2.26.49.04,1-.26,1.54-.42-2.36-5.38-7.17-9.07-12.81-10.3-4.98-1.08-9.72-.2-14.44,1.25-1.08.33-2.06,1.04-3.26,1.01,0-.25-.06-.42,0-.51,6.28-8.42,20.39-12.41,31.49-4.27,4.14,3.04,7.43,6.8,10.25,11.02.9,1.35,1.8,2.69,2.72,4.06,1.72.37,3.3.75,4.9,1.05,4.37.82,8.77,1.51,13.12,2.44,6.24,1.33,12.43,2.85,18.66,4.22,7.72,1.69,14.71.24,20.83-4.94,2.72-2.3,5.51-4.51,8.25-6.79.54-.45.98-1.03,1.48-1.57-1.2-1.37-2.72-1.61-4.11-2.04-14.31-4.47-28.84-8.08-43.55-10.97-.38-.08-.83.18-1.33.3Zm318.96,413.2c-.21,1.56-.44,2.56-.45,3.57-.16,8.3-.1,16.61-.95,24.89-.61,5.9-1.06,11.81-1.55,17.71-.06.69.08,1.4.15,2.45.97-.45,1.71-.63,2.24-1.07,1.26-1.03,2.46-2.15,3.62-3.29,4.11-4.05,5.26-9.23,5.08-14.69-.11-3.38-.8-6.77-2.24-9.93-.2-.45-.72-1.02.17-1.63,2.08,1.42,3.65,3.41,4.94,5.53,4.03,6.6,4.95,13.56,1.87,20.83-2.07,4.9-5.35,8.89-9.52,12.12-2.69,2.08-5.51,4-8.4,6.09-.29,1.38-.59,2.82-.88,4.27-1.49,7.41-2.95,14.83-4.48,22.23-.72,3.48-1.64,6.93-2.37,10.41-1.53,7.24-.26,13.84,4.56,19.63,2.47,2.97,4.86,5.99,7.33,8.96.45.54,1.07.93,1.62,1.39,1.47-1.32,1.71-3.01,2.16-4.54,4.22-14.37,8.25-28.78,10.79-43.57.04-.23-.24-.51-.37-.76-.3,0-.64-.11-.87.02-7.21,3.86-11.34,9.86-12.11,18-.32,3.39-.28,6.82.51,10.19.12.5.38,1.13-.33,1.49-.14-.05-.33-.06-.41-.15-4.14-5.09-5.57-11.04-5.29-17.44.25-5.9,2.93-10.8,6.75-15.15,3.16-3.59,6.83-6.58,10.87-9.14,1.36-.86,2.66-1.82,3.92-2.69.36-1.7.75-3.13.96-4.59.63-4.55,1.27-9.1,1.76-13.67.48-4.42.77-8.86,1.15-13.29.15-1.77.34-3.54.5-5.31.25-2.66.46-5.32-.13-7.97-1.27-5.77-4.35-10.36-9.12-13.78-3.01-2.16-6.17-4.12-9.27-6.15-.47-.31-1.04-.47-2.18-.96ZM124.8,691.13c.47,1.07.82,2.05,1.32,2.95,3.65,6.63,7.25,13.28,11.02,19.84,2.36,4.11,4.87,8.16,7.5,12.1,4.57,6.84,11.15,10.02,19.31,9.86,3.7-.07,7.4-.44,11.09-.71.4-.03.78-.32,1.26-.53-.04-1.84-1.37-2.97-2.28-4.24-7.34-10.27-14.16-20.87-20.33-31.88-.58-1.03-1.18-2.06-1.85-3.04-.3-.44-.8-.75-1.16-1.06-.33.17-.5.2-.58.31-.27.35-.6.69-.73,1.09-2.05,6.26-1.72,12.26,1.93,17.91,1.55,2.4,3.51,4.41,5.79,6.11,1.3.98,2.71,1.82,4.03,2.78.48.35,1.38.46,1.12,1.49-1.54-.26-3.01-.46-4.46-.76-10.41-2.14-17.61-10.71-18.19-21.37-.31-5.78,1.01-11.18,3.05-16.49.53-1.37,1.06-2.74,1.6-4.14-.77-1.61-1.48-3.07-2.18-4.53-1.47-3.08-3.02-6.12-4.39-9.24-2.92-6.66-5.75-13.35-8.6-20.04-3.04-7.15-8.27-11.84-15.71-13.99-3.7-1.07-7.46-1.94-11.2-2.87-.67-.17-1.41-.62-2.29.36,4.54,15.53,10.85,30.54,17.57,45.39.22.48.71.83,1.06,1.23.41-.3.75-.41.87-.65,2.51-4.8,3.11-9.85,1.87-15.1-1.04-4.42-3.14-8.3-6.22-11.65-1.36-1.48-2.73-2.95-4.64-5,1.34.3,1.92.33,2.41.56,1.89.86,3.85,1.62,5.6,2.72,7.92,5.01,11.81,12.4,11.74,21.65-.04,4.57-.94,9.14-2.54,13.5-.87,2.36-1.75,4.72-2.77,7.45Z"/>
    <path class="cls-2" d="m501.07,128.18c6.98.14,13.96.15,20.93.47,5.33.24,10.65.81,15.96,1.37,5.46.57,10.9,1.29,16.34,1.98,9.13,1.16,18.16,2.91,27.15,4.9,23.41,5.17,46.08,12.6,68.02,22.26,23.03,10.14,44.81,22.51,65.33,37.09,11.51,8.18,22.59,16.91,33.02,26.4,10.33,9.38,20.18,19.26,29.47,29.7,8.1,9.1,15.76,18.55,22.92,28.4,9.17,12.63,17.51,25.77,25.02,39.46,7.94,14.47,14.88,29.39,20.85,44.77,7.96,20.54,14,41.64,18.1,63.26,1.71,9.03,2.78,18.18,4.04,27.28,1.02,7.35,1.34,14.77,1.92,22.16.76,9.65.75,19.29.52,28.92-.19,8-.85,15.99-1.48,23.97-.46,5.76-1.16,11.51-1.85,17.25-1.78,14.75-4.73,29.29-8.45,43.66-6.83,26.41-16.58,51.71-29.07,75.94-13.32,25.84-29.44,49.83-48.44,71.83-14.29,16.55-29.91,31.76-46.86,45.6-25.68,20.97-53.7,38.12-83.98,51.6-26.01,11.58-53.03,19.92-81,25.2-7.87,1.49-15.78,2.73-23.75,3.53-7.97.81-15.93,1.62-23.91,2.34-2.51.23-5.04.21-7.57.23-7.42.05-14.85.1-22.27.08-11.89-.03-23.69-1.21-35.5-2.49-20.43-2.2-40.41-6.56-60.11-12.23-14.84-4.27-29.34-9.56-43.5-15.78-28.14-12.35-54.38-27.89-78.69-46.7-16.83-13.02-32.43-27.42-46.75-43.14-20.69-22.7-38.35-47.58-52.87-74.68-9.77-18.23-17.94-37.15-24.58-56.72-6.16-18.16-10.84-36.71-13.98-55.63-1.65-9.95-2.89-19.95-3.77-30.01-1.17-13.47-1.82-26.95-1.45-40.46.21-7.7.91-15.4,1.38-23.09.49-8.15,1.64-16.23,2.76-24.31,1.73-12.51,4.38-24.84,7.5-37.06,4.04-15.84,9.18-31.33,15.34-46.48,7.5-18.46,16.42-36.22,26.81-53.24,10.54-17.27,22.4-33.58,35.57-48.94,10.06-11.73,20.89-22.75,32.32-33.14,17.51-15.92,36.42-30.01,56.67-42.27,33.14-20.07,68.58-34.58,106.28-43.53,12.71-3.02,25.57-5.22,38.53-6.89,15.63-2.02,31.31-2.93,47.07-2.87Zm.18,734.5c12.21.22,24.94-.28,37.65-1.71,9.73-1.09,19.41-2.48,29.05-4.21,10.81-1.94,21.49-4.49,32.06-7.48,18.75-5.29,36.97-12,54.62-20.26,19.27-9.02,37.66-19.54,55.09-31.76,13.88-9.73,27.09-20.29,39.47-31.85,18.39-17.17,34.97-35.94,49.48-56.53,9.16-13,17.55-26.47,24.98-40.53,12.32-23.32,22.02-47.68,28.98-73.12,3.68-13.46,6.58-27.09,8.71-40.89,1.15-7.48,2.27-14.96,2.78-22.52.49-7.25,1.22-14.49,1.42-21.75.24-8.75.04-17.52.02-26.27,0-1.19.02-2.38-.1-3.56-.88-8.7-1.06-17.47-2.38-26.14-1.07-7.04-1.9-14.12-3.17-21.12-2.54-14.02-5.86-27.86-10-41.52-4.57-15.09-10.08-29.82-16.63-44.13-9.53-20.83-20.78-40.7-34.09-59.39-10.26-14.41-21.34-28.14-33.57-40.93-13.26-13.86-27.36-26.78-42.6-38.45-24.28-18.59-50.42-34-78.54-46.04-16.4-7.02-33.2-12.89-50.47-17.36-20.86-5.4-42.01-9.16-63.53-10.81-10.66-.81-21.34-1.06-32.01-1.29-4.44-.1-8.89.43-13.34.5-9.51.13-18.97,1.03-28.39,2.16-11.63,1.39-23.17,3.46-34.63,5.95-29.16,6.33-57.03,16.33-83.76,29.51-11.05,5.45-21.74,11.57-32.18,18.14-18.65,11.74-36.06,25.1-52.27,40-16.76,15.4-31.98,32.23-45.58,50.51-19.07,25.62-34.63,53.2-46.47,82.87-10.33,25.89-17.64,52.59-21.76,80.16-1.1,7.34-2.18,14.67-2.64,22.08-.41,6.66-1.2,13.31-1.39,19.97-.31,11.42-.4,22.84.46,34.27.55,7.25,1.05,14.49,1.87,21.72,1.52,13.43,3.84,26.73,6.91,39.88,5.68,24.36,13.73,47.9,24.28,70.6,7.33,15.79,15.72,30.97,25.21,45.54,17.6,27.01,38.4,51.29,62.42,72.82,13.62,12.21,28.05,23.35,43.34,33.4,20.66,13.58,42.46,24.95,65.43,34.09,18.8,7.48,38.08,13.33,57.86,17.56,13.07,2.79,26.24,4.85,39.54,6.23,9.31.97,18.61,1.74,27.97,1.66,3.12-.03,6.23,0,9.92,0Z"/>
    <path class="cls-2" d="m641.93,120.36l.06.06-.06-.06Z"/>
    <polygon class="cls-2" points="608.11 891.04 608.33 890.79 608.06 891 608.11 891.04"/>
    <path class="cls-2" d="m915.38,482.13l.05-.05-.05.05Z"/>
    <path class="cls-2" d="m837.98,276.31l-.06.06.06-.06Z"/>
    <path class="cls-2" d="m276.66,161.36l-.18.71.22-.67-.05-.04Z"/>
    <path class="cls-2" d="m560.86,482.55c6.84-15.76,6.02-19.89,6.53-27.5.69-1.03,1.59-2.37,2.51-3.72,5.75-8.47,9.73-17.66,11.24-27.84.5-3.37.77-6.78,1.23-10.16.2-1.46.51-2.94,1.01-4.32,1.1-3.02,2.48-3.83,5.74-3.74.84.02,1.68-.03,2.87-.06-1.65-3.5-3.62-6.18-6.63-8-1.6-.97-3.4-1.09-5.18-.82-1.15.18-2.26.64-3.39.97-.18-.18-.54-.38-.53-.56.21-6.06.46-12.13.71-18.16.59-.5.99-.97,1.49-1.23,6.73-3.47,13.44-6.98,20.23-10.32,7.46-3.68,15.07-7.02,23.16-9.11,4.61-1.19,9.3-1.94,14.05-2.16,5.69-.26,11.22.91,16.68,2.37,5.6,1.5,11.01,3.57,16.28,6,8.78,4.04,17.33,8.52,25.46,13.72,2.96,1.89,5.74,1.96,8.86.91,6.12-2.07,13.11-8.17,11.86-18.21-.43-3.46-1.73-6.58-3.82-9.38-1.96-2.63-4.27-4.92-6.68-7.15-8.77-8.1-18.64-14.67-28.66-21.07-11.76-7.51-23.44-15.14-35.05-22.88-7.91-5.28-15.34-11.24-22.23-17.8-6.47-6.17-12.3-12.93-15.88-21.28-4.59-10.7-5.87-21.71-2.37-33.01.96-3.12,2.1-6.18,3.26-9.23,1.34-3.53,3.47-6.55,6.32-9.03,4.04-3.51,8.63-4.41,13.7-2.71,5.72,1.92,8.32,6.83,6.7,12.64-.68,2.43-1.46,4.83-2.21,7.24-1.84,5.93-1.93,12-1.35,18.09.39,4.03,1.81,7.8,3.9,11.28,2.08,3.45,4.67,6.5,7.6,9.26,7.92,7.46,16.72,13.79,25.94,19.52,8.45,5.25,17.06,10.21,25.62,15.28,10.61,6.27,21.15,12.65,30.63,20.62,6.49,5.45,12.82,11.05,17.75,18.04,5.06,7.17,8.44,15,9.21,23.8.19,2.18-.18,4.43-.44,6.63-.89,7.42-4.43,13.45-9.93,18.39-1.99,1.78-4.11,3.41-6.16,5.13-1.14.95-2.3,1.89-3.36,2.92-4.22,4.11-5.92,9.05-5.17,14.95.88,6.94.72,13.9-.02,20.87-1.04,9.91-3.19,19.62-5.27,29.34-1.4,6.54-2.43,13.15-2.78,19.82-.53,9.93,1.15,19.54,5.41,28.59,1.58,3.35,3.27,6.68,5.25,9.8,1.59,2.5,1.77,4.77.87,7.56-4.01,12.41-10.04,23.77-17.51,34.4-2.99,4.25-6.14,8.38-9.22,12.57-.44.6-.93,1.16-1.33,1.79-1.84,2.84-1.54,5.65.91,8.04.94.92,2.02,1.69,2.97,2.48-.1,1.03-.84.91-1.36.92-2.82.05-5.65.2-8.46,0-2.98-.21-5.24.89-6.94,3.18-1.67,2.26-3.27,4.6-4.73,7-3.53,5.82-3.14,5.29-9.49,7.04-5.29,1.46-10.55,3.04-15.83,4.54-2.86.82-5.72,1.61-8.73,1.56-1.03-.02-2.09-.03-3.09-.24-1.57-.32-2.55-1.52-2.75-3.11-.4-3.24.92-5.94,3.8-7.4,2.14-1.08,4.41-1.72,6.88-1.19,1.15.25,2.34.34,3.51.45.27.02.55-.17.91-.3.19-.32.41-.69.59-.99-.12-1.36-1.08-1.84-2.09-2.13-6.71-1.88-12.61-.06-15.83,4.89-.39.6-.92,1.1-1.45,1.71-1.82-.59-2.49-1.82-2.45-3.42.08-2.76.91-5.25,3.07-7.14,2.07-1.8,4.41-3,7.17-3.29,1.03-.11,2.1-.06,3.1-.31.8-.2,1.52-.72,2.37-1.15-.23-.75-.39-1.28-.53-1.72-6.04-1.43-12.27.69-16.08,5.34-.74.9-1.53,1.75-2.32,2.61-.06.07-.27,0-.46,0-.88-.29-.95-1.12-.8-1.8.88-3.97,2.5-7.6,5.26-10.65,1.9-2.1,4.28-3.22,7.11-3.08,2.06.1,4.14.29,6.16.72,3.48.73,6.89,1.83,10.38,2.5,3.81.73,7.66.88,11.5-.8.54-.78,1.2-1.58,1.71-2.47,4.1-7.06,8.34-14.04,12.2-21.23,4.38-8.16,7.35-16.84,8.48-26.11.43-3.54-.08-6.67-2.05-9.74-7.07-10.99-13.94-22.09-20.97-33.1-5.52-8.64-10.86-17.37-15.68-26.42-3.64-6.82-6.86-13.83-9.71-21.01-.6-1.5-1.25-2.98-1.81-4.32-4.84-2.05-9.53-2.12-14.25-1.08-4.37.96-8.48,2.66-12.4,4.83-7.43,4.13-14.24,9.14-20.71,14.62-8.72,7.38-17.32,14.92-25.99,22.37-2.25,1.94-4.55,3.82-6.84,5.7-.3.25-.73.36-1.21.59Z"/>
    <path class="cls-2" d="m452.44,594.51c-4.55,1.02-5.79.65-10.99-3.19-1.33.31-1.66,1.57-2.24,2.54-2.51,4.21-4.94,8.46-7.39,12.7-.52.9-1,1.83-1.58,2.69-1.29,1.91-3,3.3-5.33,3.72-1.89.34-3.79.7-5.71.81-2.67.14-5.34.09-8.01.05-4.2-.05-8.28.56-12.19,2.13-3.15,1.26-6.33,1.5-9.56.37-1.56-.54-3.06-1.21-3.71-3.16.55-3.3,2.99-5.16,5.83-6.62,2.01-1.03,4.19-1.44,6.46-1.45,1.21,0,2.39-.19,2.98-1.5.13-1.1-.54-1.68-1.44-1.94-.7-.21-1.47-.3-2.2-.24-5.56.46-10.4,2.32-13.63,7.21-.49.74-1.05,1.42-1.59,2.12-.08.1-.26.12-.66.3-.33-.15-1.01-.26-1.3-.66-.42-.55-.77-1.32-.76-1.99.02-1.99.76-3.76,2.05-5.29,1.78-2.11,4.02-3.52,6.71-4.12,2.02-.45,4.06-.79,6.34-1.22.14-.57.3-1.22.51-2.04-4.3-1.56-8.02-.49-11.73,1.26-3.69,1.75-5.54,5.12-7.41,8.37-1.27-.41-1.08-1.25-.92-1.9.66-2.63,1.93-4.98,3.67-7.05,2.41-2.87,5.32-5.17,8.65-6.91,2.52-1.32,5.2-2.14,8.09-2.2,4.46-.09,8.89-.05,13.33.57,2.92.41,5.88.7,8.67.12,1.5-1.19,2.01-2.79,2.73-4.23,7.13-14.14,12-29.06,15.25-44.52,1.47-6.97,2.73-13.98,4.03-20.98.27-1.45.48-2.94.45-4.41-.12-5.8.42-11.57,1-17.32.89-8.73,2.86-17.27,5.56-25.62,1.83-5.65,3.79-11.25,5.59-16.91.85-2.68,1.48-5.44,2.17-8.17.18-.7.19-1.45.26-2.03-.76-1.06-1.57-1.05-2.71-.5-.33.91-.78,1.99-1.13,3.11-1.8,5.81-3.48,11.66-5.36,17.44-2.3,7.06-4.64,14.1-6.08,21.4-.63,3.19-1.15,6.39-1.69,9.39-1,.67-1.69.3-2.27-.13-2.84-2.14-5.83-4.12-8.42-6.53-7.68-7.15-13.68-15.57-18.37-24.96-3.11-6.23-4.59-12.82-5-19.7-.1-1.63-.1-3.26-.14-4.9-.31-11.57-.39-23.15-1-34.71-.52-9.79-1.85-19.49-5.62-28.7-2.41-5.89-6.07-10.81-10.66-15.17-2.82-2.68-5.94-3.21-9.43-2.13-2.11.66-4.12,1.68-6.15,2.57-2.45,1.07-4.85,2.24-7.32,3.25-1.08.44-2.27.74-3.43.86-4.25.43-5.84-.64-7.68-4.98.22-.9,1.03-.95,1.71-1.17,1.83-.6,3.69-1.13,5.51-1.77,1.84-.65,3.5-1.62,4.86-3.05,3.14-3.29,2.07-7.77-2.27-9.15-1.25-.4-2.63-.5-3.95-.5-3.12,0-6.23.17-9.35.25-3.04.08-5.47-1.16-7.36-3.48-.35-.43-.49-1.02-.74-1.56,2.4-2.79,6.83-2.67,8.45-6.29-.17-.48-.26-.92-.48-1.28-.14-.23-.45-.35-.89-.67-2.56-.1-4.85,1.62-7.35,2.07-.83-.47-.57-1.05-.32-1.57,1.74-3.75,4.54-6.58,7.88-8.89,4.43-3.07,9.29-5.26,14.5-6.63,1.29-.34,2.58-.67,4.05-1.05.9-1.27,1.84-2.59,2.76-3.92,1.62-2.35,3.64-4.29,6.04-5.84,2.55-1.65,5.31-2.66,8.36-2.72,2.22-.04,4.45.02,6.68.03,1.47,0,2.94,0,4.41,0,.79-.91,1.44-1.7,2.14-2.45,1.83-1.94,3.64-3.91,5.53-5.78,1.28-1.27,2.87-2.08,4.6-2.63,4.97-1.57,8.77.1,10.89,4.89.91,2.05,1.48,4.21,1.45,6.47-.03,2.52-.14,5.03-.22,7.82.67.31,1.41.78,2.22.99,11.75,3.07,19.53,10.76,24.98,21.24,3.57,6.86,6.47,14.01,9.3,21.19,2.18,5.52,4.31,11.07,6.67,16.51,1.17,2.71,2.69,5.29,4.29,7.78,2.88,4.45,6.72,7.94,11.5,10.26,3.33,1.62,6.8,2.94,10.21,4.39.67.28,1.35.53,1.95.77.16,3.54-1.38,10.92-5.45,26.17-.77.79-1.81,1.83-2.83,2.9-6.85,7.16-11.34,15.59-13.16,25.32-.59,3.18-.46,6.5-.6,9.75-.41,9.37,2.5,17.83,7.2,25.78,2.06,3.48,4.68,6.49,7.55,9.31,1.05,1.03,2.07,2.1,3.24,3.29-.35,1.49-.65,2.93-1.03,4.34-1.33,4.87-2.62,9.75-4.08,14.58-.68,2.26-1.5,4.53-2.64,6.58-4.18,7.53-8.5,14.97-12.8,22.43-5.94,10.3-11.58,20.74-15.75,31.9-.42,1.11-.8,2.24-1.22,3.34-1.45,3.75-.85,7.3,1.14,10.67.89,1.51,1.9,2.95,2.89,4.48Zm-29.88-261.69c-1.55,1.14-1.43,2.38-1.64,3.53-.42,2.33-.73,4.69-1.38,6.95-1.11,3.84-3.74,6.35-7.58,7.43-1.84.52-3.77.96-5.67,1.02-4.73.16-9.47.38-14.19-.41-1.87-.31-3.8-.61-5.87.24-.14.61-.29,1.26-.38,1.69.99,1.42,2.21,1.43,3.38,1.52,1.92.14,3.86.13,5.76.4,5.34.77,10.64.49,15.91-.47,3.26-.59,6.24-1.9,8.62-4.29,3.67-3.68,5.72-11.38,4.54-17.08-.44-.16-.97-.35-1.5-.55Zm-50.24-12.56c.55,1.35,1.41,1.59,2.32,1.5,2.54-.24,5,0,7.43.77,1.64.52,3.22.18,4.65-.75,2.14-1.4,4.45-2.27,7.02-2.49.52-.05,1.03-.28,2.04-.57-1.61-1.29-2.82-2.34-4.12-3.26-1.08-.76-2.21-1.55-3.43-2-3.33-1.22-6.66-1.5-9.59,1.03-2.11,1.82-4.12,3.76-6.32,5.77Zm28.56-13.34c4.64,1.24,9.11,2.4,13.68,2.83,1.8-3.9,1.63-9.07-.27-12.05-.08-.12-.16-.25-.25-.37-2.01-2.79-5.42-3.37-8.11-1.18-1.12.91-2.08,2.1-2.84,3.33-1.25,2.01-2.07,4.21-2.21,7.44Z"/>
    <path class="cls-2" d="m611.89,446.29c7.28-6.55,18.05-9.74,27.22-8.07.42.74.99,1.6,1.39,2.52,1.13,2.58,2.17,5.2,3.3,7.79,4.68,10.77,10.32,21.03,16.52,30.99.62,1,1.17,2.04,1.87,3.26-.63.66-1.19,1.32-1.82,1.9-3.01,2.78-4.57,6.17-4.35,10.29.12,2.22.36,4.43.54,6.64.17,2.07.37,4.13.49,6.2.17,3.08-1,5.48-3.69,7.1-1.4.84-2.75,1.76-4.12,2.65-6.34,4.13-12.72,8.19-18.99,12.42-4.43,2.99-8.58,6.36-12.26,10.27-1.22,1.29-2.36,2.67-3.42,4.09-2,2.68-3.28,5.63-3.14,9.07.02.57-.11,1.16-.16,1.61-.99,1.04-2.03.86-2.95.35-1.42-.78-2.75-1.7-4.05-2.51-1.78.56-2.92,1.76-4.13,2.83-1.11.98-2.14,2.05-3.24,3.05-4.31,3.95-9.23,6.23-15.25,6.24-3.38,0-6.77.72-10.13,1.25-3.54.56-7.08.7-10.64.47-2.28-.15-4.32-.87-5.8-2.44-.35-1.27.25-1.93.97-2.48,1.57-1.19,3.33-1.99,5.31-2.06,1.92-.07,3.85.05,5.77.1.87.02,1.73.09,2.78.15.29-.73.54-1.35.8-2.01-2.07-2.37-4.67-1.99-7.14-2.09-2.73-.12-5.43.21-7.69,1.74-2.04,1.38-3.8,3.18-5.7,4.8-1.53-1.46-1.9-2.66-1.22-4.45.65-1.72,1.75-3.17,3.33-4.06,1.66-.93,3.44-1.72,5.26-2.28,1.82-.56,3.76-.75,5.59-1.1.7-1.46.66-2.31-.23-2.6-.96-.31-2.01-.62-2.99-.53-4.56.43-8.65,1.98-11.85,5.44-.48.52-1.04.98-1.78,1.67-.83-1.94-.38-3.43.35-4.88,2.82-5.59,7.3-8.85,13.58-9.49,2.67-.27,5.32-.17,7.97.38,3.19.67,6.39,1.31,9.61,1.84,4.72.77,9.3-.02,13.26-2.59,12.41-8.05,23.61-17.48,31.99-29.86,1.9-2.81,3.46-5.88,4.9-8.96,2.83-6.07,3.08-12.31.56-18.56-1.44-3.57-2.93-7.14-4.61-10.6-2.98-6.14-6.14-12.18-9.18-18.3-1.11-2.25-2.29-4.49-2.84-7.23Z"/>
    <path class="cls-2" d="m306.41,474.76c1.86-5.69,4.42-7.25,14.71-8.95.2-.52.43-1.15.63-1.66-.39-.41-.55-.74-.79-.81-.83-.27-1.71-.69-2.54-.63-5.89.45-10.95,2.5-14.27,7.75-.39.61-.9,1.15-1.44,1.83-.62-.19-1.33-.19-1.66-.55-.46-.5-.89-1.25-.91-1.91-.06-2.16.75-4.05,2.2-5.66,2.19-2.42,4.95-3.72,8.14-4.17,1.03-.15,2.1-.05,3.09-.3.79-.2,1.5-.75,2.33-1.18-.26-.75-.44-1.28-.58-1.7-7.66-1.89-13.21.99-18.65,9.54-1.13.11-1.22-.76-1-1.4.59-1.66,1.1-3.44,2.1-4.85,5.18-7.31,11.98-11.82,21.28-11.64,2.22.04,4.43.26,6.64.46,5.32.49,10.64.9,15.96-.09,3.77-.7,7.37.29,10.94,1.28,5.72,1.58,11.35,3.45,17.1,4.87,7.93,1.96,16,3.11,24.19,3.12,2.51,0,5.03-.2,7.86-.33.43.7,1.11,1.48,1.46,2.4,4.24,10.98,11,20.3,19.04,28.75,2.24,2.35,4.88,4.31,7.35,6.44.89.76,1.8,1.49,2.82,2.34-1.16,2.48-3.29,3.57-5.48,4.32-2.8.97-5.66,1.35-8.73.8-5.8-1.06-11.07-3.36-16.04-6.34-6.1-3.66-12.05-7.58-18.05-11.4-1.63-1.04-3.24-2.1-4.83-3.19-4.39-3-8.88-2.9-13.42-.41-1.67.92-3.27,1.98-5.03,3.05-1.72-2.08-.92-4.13-.13-5.95.8-1.85,2.06-3.5,3.27-5.48-3.5-2.45-7.26-3.84-11.42-4.58-.59.71-1.12,1.22-1.49,1.82-1.91,3.05-4.8,4.32-8.23,4.51-2.37.13-4.75.17-7.12.11-5.84-.15-11.54.5-17.01,2.7-3.21,1.29-6.41.88-9.54-.36-1.12-.44-2.11-1.08-2.76-2.54Z"/>
    <path class="cls-2" d="m249.1,420.97c-1.77.31-3.11.42-4.38.78-4.31,1.24-8.74,1.66-13.17,1.99-3.57.27-7.12-.3-10.48-1.6-5.48-2.1-7.86-6.53-6.93-12.36.62-3.92,2.3-7.39,4.52-10.54,2.39-3.38,5.14-6.5,7.77-9.71.83-1.02,1.77-1.96,2.81-3.1-.85-1.01-1.61-1.87-2.33-2.76-2.81-3.44-5.77-6.77-8.35-10.38-2.24-3.14-3.79-6.66-4.46-10.57-.83-4.82.9-8.42,4.81-11.08,1.73-1.17,3.7-1.8,5.78-2.17,5.2-.94,10.35-.31,15.47.46,2.78.42,5.5,1.19,8.17,1.79,1.28-.38,1.47-1.44,1.81-2.42,1.2-3.51,2.32-7.04,3.64-10.5,1.44-3.77,3.58-7.17,6.29-10.16,2.48-2.74,5.48-4.46,9.36-4.35,3.7.1,6.48,1.91,8.84,4.51,2.42,2.65,4.29,5.7,5.65,9.01,1.29,3.15,2.35,6.4,3.54,9.59.51,1.37.64,2.91,1.85,4.3,1.03-.16,2.19-.21,3.29-.53,4.3-1.23,8.71-1.86,13.13-2.21,4.01-.32,8.04.08,11.77,1.7,4.99,2.17,7.97,6.88,6.51,12.64-.4,1.57-.83,3.16-1.44,4.66-1.36,3.31-3.25,6.34-5.53,9.09-1.99,2.39-4.1,4.69-6.15,7.03-.58.66-1.14,1.33-1.85,2.15.58.78,1.04,1.5,1.6,2.14,2.23,2.58,4.59,5.05,6.71,7.71,2.88,3.61,5.25,7.56,6.45,12.08,1.93,7.32-1.43,13.09-8.84,14.74-3.3.74-6.67,1.08-10.15.71-4.59-.48-9.09-1.3-13.56-2.4-.56-.14-1.14-.17-1.56-.23-1.54.85-1.61,2.3-1.94,3.55-1.03,3.89-2.52,7.59-4.16,11.25-1.35,3.01-3.17,5.71-5.36,8.15-1.81,2.02-3.92,3.68-6.66,4.19-3.7.7-7.02-.02-9.89-2.67-3.12-2.87-5.41-6.28-7.19-10.07-1.77-3.76-3.23-7.65-4.34-11.66-.23-.83-.62-1.62-1.06-2.76Zm19.71-12.5c6-2.17,15.47-7.74,19.34-11.27,1.16-7.26.99-14.62-.1-22.16-5.9-4.2-12.1-7.91-18.9-10.94-6.87,2.96-13.18,6.73-19.12,10.95-1.12,7.65-1.31,15.01.08,22.55,5.87,4.24,12.09,7.89,18.69,10.87Zm21.13-52.38c.79,5.89,1.54,11.45,2.27,16.9,4.23,3.33,8.3,6.53,12.38,9.73.23.18.52.27.8.37.13.05.29.04.71.1.42-.29,1.08-.63,1.59-1.13,3.4-3.33,6.55-6.9,9.08-10.93,1.25-1.99,2.25-4.18,3.08-6.38.51-1.35.63-2.89.66-4.36.07-3.19-1.55-5.39-4.51-6.43-1.66-.58-3.43-.99-5.19-1.13-6.28-.51-12.42.49-18.46,2.17-.69.19-1.33.59-2.43,1.1Zm-5.17,63.35c-5.43-2.23-10.48-4.31-15.65-6.43-2.61,1.07-5.22,2.1-7.79,3.23-2.67,1.17-5.59,1.82-8,3.48,0,.63-.09,1.1.01,1.5,1.42,5.31,3.05,10.56,5.84,15.33,1.19,2.03,2.58,4.02,4.24,5.67,3.58,3.57,7.84,3.54,11.4-.05,1.55-1.56,2.85-3.42,4-5.31,2.71-4.47,4.34-9.41,5.72-14.43.23-.82.14-1.73.23-3Zm-38.71-46.53c.33-2.62.76-5.38,1-8.16.25-2.9,1.38-5.74.93-8.54-.46-.36-.66-.62-.92-.71-6.83-2.34-13.85-3.18-21.03-2.59-1.31.11-2.62.54-3.86,1.02-2.91,1.13-4.47,3.29-4.54,6.47-.05,2.12.3,4.14,1.21,6.05,3.03,6.41,7.46,11.73,12.73,16.4.2.18.54.2.82.3.28-.06.64-.03.84-.19,4.21-3.28,8.4-6.58,12.82-10.05Zm-13.46,16.42c-.69.37-1.15.5-1.46.78-4.49,4.15-8.39,8.79-11.31,14.19-.7,1.29-1.29,2.69-1.64,4.12-.36,1.42-.52,2.92-.48,4.38.07,2.59,1.42,4.48,3.76,5.59,1.89.9,3.9,1.37,6,1.49,6.29.37,12.41-.6,18.44-2.26.69-.19,1.32-.58,1.8-.8.19-.53.41-.82.38-1.08-.66-5.27-1.35-10.54-2.05-15.93-3.9-3.12-7.82-6.27-11.76-9.4-.46-.36-.98-.64-1.69-1.09Zm52.01-36.09c0-1.13.18-2.05-.03-2.86-1.41-5.31-3.21-10.48-6.1-15.18-1.08-1.75-2.33-3.46-3.81-4.88-3.47-3.33-7.62-3.36-11.07,0-1.67,1.62-3.05,3.62-4.26,5.63-2.7,4.46-4.3,9.4-5.66,14.41-.22.82-.13,1.72-.18,2.48,2.31,1.44,11.31,5.27,15.81,6.72,5-2.07,10.16-4.2,15.29-6.32Zm5.41,63.61c7.47,2.45,14.58,3.54,21.91,2.92,1.17-.1,2.34-.42,3.45-.81,3.65-1.29,5.38-3.98,5.17-7.85-.14-2.57-1.06-4.92-2.3-7.13-2.92-5.21-6.68-9.76-11.07-13.8-.41-.37-1.01-.53-1.61-.83-3.81,2.93-7.57,5.8-11.31,8.69-.7.54-1.33,1.15-2.32,2.01.07,5.38-1.55,10.8-1.91,16.79Zm-39.65-14.21c.29,4.69.53,8.46,1.94,12.06.08.22.47.32.71.47,5.46-1.25,8.79-2.75,10.67-4.89-4.21-2.41-8.3-4.95-13.31-7.65Zm24.07,7.73c.44.54.64,1.02.98,1.17,2.7,1.15,5.42,2.27,8.16,3.33.64.25,1.39.23,2.23.35,1.48-3.77,1.72-7.56,1.89-11.35,0-.17-.37-.37-.72-.68-4.18,2.22-8.31,4.65-12.55,7.18Zm13.34-40.99c-.18-4.07-.5-7.95-2-12.13-3.99,1.2-7.89,2.11-11.52,4.87,4.12,2.66,8.11,4.8,12.03,7.03.33.19.81.13,1.49.22Zm-24.14-6.97c-.44-1.63-1.77-1.79-2.81-2.18-2.71-1.01-5.26-2.59-8.6-2.72-1.13,3.93-1.68,7.78-1.76,11.63.35.16.5.3.6.27,3.67-1.22,6.53-3.94,10.03-5.48.91-.4,1.72-1.02,2.54-1.52Zm-18.56,16.18c-3.6,2.57-6.97,4.5-9.43,7.99,2.36,2.64,5.13,4.54,7.84,6.52.42.3,1.04.33,1.58.49.73-3.3.78-10.08.02-15.01Zm48.03,15.36c3.76-2.18,6.9-4.4,9.26-7.57-3.32-3.98-6.76-6.54-9.33-7.02-.63,3.17-.65,10.29.07,14.59Z"/>
    <path class="cls-2" d="m563.44,457.36c.32,26.52-22.52,46.31-46.18,46.09-23.71-.22-45.85-18.61-45.92-45.89-.07-25.71,19.67-46.25,45.98-46.28,28.45-.03,46.46,23.24,46.12,46.09Zm-83.8-.3c-.48,19.05,14.59,38.2,38.03,38.11,20.03-.08,37.75-15.4,37.6-38.18-.15-22.27-18.26-37.5-37.87-37.45-22.68.05-38.21,19.32-37.75,37.52Z"/>
    <path class="cls-2" d="m491.57,185.88c-.71.57-1.13.97-1.61,1.26-4.91,3-7.94,7.51-10.12,12.66-2.22,5.26-3.2,10.83-3.36,16.49-.1,3.7.69,7.37,1.81,10.94,2.12,6.83,5.13,13.28,8.21,19.71,1.67,3.48,3.51,6.88,5.1,10.39.98,2.15,1.72,4.41,2.43,6.66,1.56,4.95,2.9,9.98,4.57,14.89,5.07,14.92,9.08,30.12,11.88,45.62,1.13,6.27,1.89,12.6,2.41,18.97.41,5.04.58,10.07.63,15.11.08,8.93-.85,17.78-2.34,26.56-1.14,6.72-2.54,13.4-3.85,20.1-.2,1.01-.54,1.98-.82,2.97-1.98,1.32-4.15,1.7-6.18,2.22-.96-.89-.55-1.77-.39-2.62,1.49-8.02,3.12-16.02,4.44-24.07,1.22-7.46,2.13-14.98,2.35-22.56.13-4.45.69-8.89.59-13.33-.44-19.4-3.35-38.37-10.04-56.71-4.69-12.85-10.39-25.24-16.22-37.59-2.47-5.23-4.76-10.55-7.01-15.88-2.5-5.92-3.72-12.18-4.59-18.53-.43-3.15.23-6.23.71-9.29.9-5.76,2.5-11.34,5.96-16.14,1.37-1.91,2.99-3.71,4.77-5.23,2.94-2.5,6.44-3.4,10.67-2.62Z"/>
    <path class="cls-2" d="m251.36,728.4v-1.47c.6-.15,1.16-.37,1.72-.4,1.33-.07,2.67-.06,4.01-.06,161.97,0,323.94,0,485.9.02,2.04,0,4.14-.37,6.22.47v1.47c-.73.13-1.44.32-2.16.35-1.33.06-2.67.04-4.01.04-161.23,0-322.45,0-483.68,0-2.08,0-4.16-.01-6.23-.07-.57-.02-1.13-.22-1.77-.36Z"/>
    <path class="cls-2" d="m413.7,226.39c2.08-6.46,6.46-10.08,13.21-10.65,5.44-.46,10.61.46,15.6,2.69,6.88,3.07,12.66,7.67,18.07,12.79,1.01.96,1.55,2.16,1.91,3.46,2.26,8.04,5.85,15.53,9.35,23.06,6.81,14.68,13.14,29.54,17.54,45.16,2.86,10.16,4.7,20.49,5.66,31.01.61,6.67.7,13.33.56,20-.16,8.01-.98,15.98-2.04,23.91-.41,3.08-.97,6.15-1.52,9.21-.15.84-.51,1.64-.83,2.61-2.43-.11-4.41-1-6.19-1.89-1-1.43-.64-2.79-.48-4.08.58-4.71,1.29-9.4,1.82-14.11.77-6.77,1.46-13.56,1.5-20.39,0-1.34,0-2.67.03-4.01.18-9.95-.42-19.85-1.61-29.73-1.03-8.55-2.53-17.01-4.64-25.36-2.95-11.68-6.95-22.99-12.6-33.67-4.47-8.46-9.97-16.13-16.94-22.73-5.61-5.31-12.08-9.04-19.56-11.01-6.39-1.68-12.34-.88-17.77,3.03-.36.26-.74.47-1.1.71Z"/>
    <path class="cls-2" d="m526.53,224.89c-1.77.52-2.92.78-4.02,1.19-3.61,1.35-6.36,3.73-8.29,7.06-1.89,3.27-2.97,6.8-3.22,10.55-.3,4.59-.27,9.17.51,13.75,1.2,7.04,3.01,13.9,5.6,20.56,1.29,3.31,2.38,6.7,3.55,10.07.49,1.41.76,2.85.54,4.37-.91,6.1-.18,12.17.82,18.15,1.52,9.06,3.57,18.02,5.32,27.04,1.9,9.76,3.35,19.56,3.24,29.56-.1,8.94-1.38,17.72-3.11,26.46-.69,3.49-1.53,6.95-2.35,10.41-.27,1.14-.69,2.25-1.05,3.38-1.72.71-3.23.69-4.58-.33-.72-1.43-.31-2.73-.08-4.04,1.29-7.29,2.73-14.57,3.82-21.89.68-4.53,1.01-9.14,1.19-13.72.4-10.54.02-21.03-1.74-31.47-1.92-11.4-3.91-22.79-6.62-34.04-1.95-8.07-4.28-16.04-7.18-23.84-2.22-5.98-4.34-12-5.35-18.33-1.61-10.04.31-19.46,5.18-28.33.5-.9,1.15-1.73,1.79-2.55,4.13-5.35,8.56-6.59,16.01-4Z"/>
    <path class="cls-2" d="m549.28,268.61c-.16.22-.28.53-.5.64-4.97,2.48-7.79,6.69-9.56,11.77-2.23,6.42-2.91,12.93-2.01,19.71.92,6.94,2.56,13.7,4.33,20.44.87,3.33,1.37,6.65,1.25,10.1-.27,7.73.5,15.39,1.6,23.05,1.36,9.42,1.89,18.91,1.15,28.4-.76,9.7-3.53,18.92-7.54,27.77-.11.25-.41.41-.66.66-1.13.46-1.91-.18-2.84-1.19.62-2.86,1.25-5.88,1.95-8.9,3.14-13.66,4.74-27.46,4-41.49-.39-7.43-1.53-14.74-3.15-21.98-1.75-7.82-3.61-15.61-5.25-23.45-1.43-6.83-2.3-13.74-2.2-20.75.06-4.48.78-8.86,2.02-13.15.91-3.16,2.29-6.12,4.36-8.7,3.19-3.98,7.79-5.15,12.77-3.29.11.04.17.23.26.35Z"/>
    <path class="cls-2" d="m469.99,197.04c-.28.84-.55,1.69-.85,2.53-4.12,11.48-3.95,22.96-.12,34.47,2.3,6.91,5.36,13.5,8.41,20.1,4.61,9.96,9.2,19.94,13.45,30.06,5.12,12.21,8.78,24.89,10.81,38,1.82,11.77,2.43,23.62,1.85,35.49-.87,17.98-3.9,35.66-7.97,53.17-.13.57-.39,1.11-.61,1.7-1.46,1.22-3.01,2.23-5.22,2.92.16-1.22.2-2.08.38-2.91,1.42-6.37,2.9-12.72,4.3-19.1,1.62-7.39,2.82-14.86,3.43-22.41.5-6.2,1.35-12.4,1.46-18.61.34-20.19-2.74-39.88-9.13-59.07-4.32-12.98-9.77-25.48-15.46-37.89-2.04-4.45-3.96-8.95-5.92-13.44-2.21-5.06-3.74-10.34-4.51-15.79-1.15-8.19-.8-16.3,2.43-24.06.78-1.87,1.34-3.98,3.32-5.11,0,0-.06-.06-.06-.06Z"/>
    <path class="cls-2" d="m480.43,385.29c-2.09-.38-3.37-1.58-4.76-2.76.25-2.03.49-3.93.7-5.83.81-7.07,1.63-14.14,2.4-21.22.15-1.33.18-2.67.19-4,.05-7.27.27-14.55.06-21.82-.53-18.2-3.58-36.02-9.19-53.34-4.11-12.71-10.6-24.17-19.5-34.19-4.37-4.93-9.44-9.01-15.36-11.98-3.9-1.96-7.96-3.26-12.4-3.04-.59.03-1.19-.03-1.78-.07-.1,0-.2-.13-.47-.32,3.83-1.6,7.64-1.35,11.42-.55,3.66.77,7.02,2.36,10.22,4.29,5.27,3.18,9.77,7.22,13.64,11.99,7.95,9.8,13.61,20.86,17.83,32.68,4.41,12.34,7.21,25.07,9.05,38.04,2.19,15.37,2.22,30.79,1.4,46.21-.41,7.83-1.71,15.62-2.65,23.43-.1.83-.54,1.62-.84,2.49Z"/>
    <path class="cls-2" d="m509.16,224.64c-1.37,2.11-2.92,4.13-4.09,6.35-5.39,10.22-7.14,21-4.41,32.31,1.01,4.17,2.24,8.32,3.71,12.35,6.48,17.77,10.88,36.05,13.77,54.71.57,3.66,1.25,7.31,1.73,10.98,1.62,12.27,1.43,24.55.08,36.84-.99,9.01-2.67,17.89-4.55,26.74-.15.72-.38,1.42-.52,1.95-1.23,1.26-2.49,1.19-3.78.81-.13-.35-.35-.64-.3-.88,1.1-5.83,2.27-11.64,3.33-17.48,1.17-6.42,2.13-12.87,2.41-19.41.19-4.29.57-8.58.66-12.88.14-6.68-.69-13.32-1.4-19.95-2.2-20.46-7.52-40.2-14-59.66-1.73-5.21-3.49-10.4-4.51-15.82-1.32-6.95-1.32-13.85.53-20.7,1.1-4.05,2.85-7.82,5.39-11.16,1.6-2.11,3.26-4.27,6.01-5.05,0,0-.06-.06-.06-.06Z"/>
    <path class="cls-2" d="m550.5,419.41c-1.59-.18-2.6-1.21-3.67-2.62.26-.85.47-1.84.85-2.77,2.76-6.74,5.06-13.62,6.48-20.79.9-4.52,1.42-9.06,1.56-13.68.27-9.25-.91-18.35-2.18-27.46-.82-5.87-1.6-11.76-2.13-17.66-.49-5.54.4-10.97,2.5-16.13.66-1.62,1.67-3.13,2.67-4.58.95-1.38,2.33-2.3,4.04-2.54,1.91-.27,3.81-.31,5.84,1.06-1.08.4-1.84.7-2.61.96-3.13,1.03-4.93,3.3-5.53,6.42-.67,3.49-1.21,7.04-.83,10.62.56,5.31,1.17,10.61,1.87,15.9.64,4.85,1.5,9.67,2.07,14.53.24,2.03.11,4.14-.06,6.19-.39,4.58-1.07,9.13-1.34,13.72-.34,5.78-.95,11.53-1.89,17.24-1.01,6.17-2.61,12.18-5.23,17.89-.61,1.32-1,2.82-2.42,3.7Z"/>
    <path class="cls-2" d="m527.89,279.89c-.36,2.64-.8,5.27-1.07,7.92-1.04,10.14.18,20.12,2.35,30.01,1.58,7.24,3.3,14.45,4.98,21.67,2.17,9.3,2.82,18.74,2.84,28.26.02,12.85-2.14,25.38-5.14,37.8-.24.99-.61,1.96-.97,3.09-.8.04-1.49.08-2.07.11-.27-.41-.58-.67-.56-.89.07-1.02.16-2.05.38-3.04,1.56-7.09,3.31-14.14,4.25-21.36,1.23-9.43,1.76-18.84.75-28.36-1.06-9.91-3.02-19.63-5.17-29.32-1.61-7.25-2.95-14.53-3.74-21.9-.75-7.01-.05-13.92,1.82-20.7.31-1.12.95-2.15,1.43-3.22l-.06-.06Z"/>
    <path class="cls-2" d="m561.13,432.07c-1.89-1.07-2.45-2.43-3.19-3.9.63-1.25,1.29-2.56,1.95-3.86,4.82-9.51,7.31-19.63,8.33-30.21.69-7.24.72-14.48.93-21.73.08-2.65.52-5.3.95-7.92.32-1.92,1.2-3.66,2.47-5.16,1.11-1.32,2.46-2.06,4.41-1.56-.21.48-.28.92-.53,1.2-2.49,2.83-3.33,6.22-3.34,9.88-.02,5.48.1,10.96-.04,16.44-.14,5.03-.47,10.06-.89,15.07-.16,1.9-.6,3.82-1.23,5.62-2.4,6.85-4.91,13.66-7.42,20.46-.66,1.79-1.48,3.53-2.4,5.68Z"/>
    <path class="cls-2" d="m551.1,314.64c-.22.86-.34,1.75-.67,2.56-1.71,4.18-2.32,8.53-2.35,13.03-.04,6.83.51,13.6,1.6,20.35,1.58,9.8,2.79,19.64,2.41,29.62-.31,8.21-1.87,16.17-4.5,23.93-.81,2.38-1.7,4.74-2.64,7.08-.43,1.06-1.09,2.02-1.75,3.22-.85-.37-1.48-.63-2.13-.91.08-.63.05-1.09.21-1.46,2.36-5.45,4.31-11.04,5.75-16.8,1.48-5.91,2.31-11.9,2.41-18.01.12-7.58-.53-15.08-1.54-22.58-.79-5.86-1.47-11.76-1.8-17.67-.35-6.23.09-12.44,2.39-18.37.58-1.5,1.03-3.12,2.56-4.03l.05.05Z"/>
    <path class="cls-2" d="m546.8,794.91c.77.64,1.44,1.2,2.09,1.74.27,1.84.38,3.59-.17,5.57-.68.11-1.35.22-2.19.36-.54-1.15-1.03-2.18-1.48-3.14-4.36-1.17-8.59-1.23-12.43-.19-.29.9-.6,1.86-.98,3.05-.65.06-1.34.12-1.91.18-.3-.39-.61-.61-.63-.85-.13-1.61-.19-3.22-.27-4.81.9-.99,1.69-1.85,2.44-2.67,1.84-4.1.86-8.53,1.64-12.83,2.22-1.03,4.46-.53,6.62-.6,2.06-.07,4.12.03,6.33.05,1.41,4.7.07,9.34.96,14.15Zm-4.5.35c1.07-2.18.58-4.43.64-6.61.04-1.45.29-2.98-.76-4.25q-3.39-.66-6.03.44c-.43,3.26-.88,6.61-1.28,9.96-.03.21.29.47.53.81,2.25.21,4.57.5,6.9-.36Z"/>
    <path class="cls-2" d="m343.41,799.55c-2.28-1.45-4.48-2.16-6.66-2.97-4.27-1.58-6-5.43-4.51-9.66.79-2.25,2.54-3.69,4.78-4.24,2.17-.54,4.17-1.31,5.93-2.95,2.15,1.58,4.42,2.45,6.79,3.2,2.91.93,4.46,3.2,4.52,6.4.06,3.09-.99,5.48-3.86,6.87-.66.32-1.34.73-2.05.81-1.82.22-3.27,1.17-4.94,2.54Zm-2.38-14.31c-2.19-.44-3.57.25-4.7,1.52-.83.93-1.02,2.08-.92,3.29.11,1.4.72,2.55,1.87,3.33,1.08.74,2.22,1.47,3.79.55.82-2.75.79-5.59-.04-8.68Zm4.51,8.95c1.82.34,3.06-.36,4.11-1.49.86-.92,1.08-2.05,1.05-3.27-.02-1.24-.38-2.35-1.35-3.14-1.04-.84-2.17-1.53-4.03-.8-.38,2.8-.83,5.76.21,8.69Z"/>
    <path class="cls-2" d="m434.85,669.41c.64-.58,1.3-1.18,1.82-1.65,2.35-4.21.68-8.95,2.06-13.04,3.53-.8,8.29-.87,12.72-.22,1.27,2.12.56,4.54.7,6.85.13,2.21.09,4.43.12,6.82.89.57,1.77,1.13,2.28,1.46v5.29c-.42.34-.63.64-.88.68-.54.08-1.1.02-1.7.02-.41-1.15-.74-2.11-1.05-2.97-1.34-1.05-7.64-1.18-12.46-.29-.39.82-.82,1.73-1.33,2.8h-1.91c-.9-1.16-.93-1.87-.36-5.74Zm7.13-11.98c-.46,3.49-.91,6.8-1.32,10.12-.03.26.18.54.27.82,3.32,1.05,3.98,1.04,7.46-.31.19-3.43.68-7-.25-10.64-1.98-.87-3.8-.83-6.17.01Z"/>
    <path class="cls-2" d="m586.92,780.76c1.2.12,1.91.19,2.43.24.97,1.23,1.13,10.68.41,16.6-.3.19-.64.54-1.03.62-.4.08-.85-.11-1.23-.18-.2-.31-.47-.55-.49-.81-.12-1.47-.18-2.95-.27-4.43-.07-1.16-.16-2.32-.23-3.43-1.13-.26-1.53.4-1.92,1.01-1.28,1.98-2.54,3.97-3.61,5.65-1.45.54-2.16.06-2.68-.74-.97-1.5-1.87-3.03-2.83-4.53-.38-.6-.65-1.38-1.81-1.33-.95,2.61.13,5.52-.72,8.01-.82.95-1.6,1.03-2.46.45-.86-3.21-.91-12.87-.04-16.87.62-.07,1.32-.14,2.06-.22,3.05,3.19,4.35,7.47,7.06,10.63,1.35.05,1.61-.92,2.04-1.63,1.75-2.92,3.45-5.86,5.33-9.05Z"/>
    <path class="cls-2" d="m619.8,749.34c.68,3.97.68,13.34.04,17.03-.87.85-1.84.68-2.93.24-.16-.34-.48-.73-.49-1.13-.08-2.37-.07-4.74-.15-7.1-.02-.67-.25-1.33-.49-2.51-3.41,3.6-5.44,7.61-8.61,10.86h-2.71c-1.05-1.27-1.11-13.04-.28-17.3.25-.14.5-.41.75-.4.56.02,1.11.17,1.84.3.94,3.55.05,7.15.72,11.01.72-.52,1.26-.75,1.56-1.15,1.88-2.48,3.69-5,5.55-7.5.53-.71,1.08-1.41,1.71-2.04.72-.73,1.11-.73,3.49-.31Z"/>
    <path class="cls-2" d="m608.14,780.75c1.18.11,2.02.19,2.65.25.96,1.23,1.09,11.56.36,17.2-.68.17-1.46.37-2.24.56-.33-.58-.72-.94-.73-1.33-.1-2.07-.08-4.14-.17-6.2-.04-.99-.23-1.97-.36-2.93-.53,0-.95-.12-1.06.02-2.75,3.45-5.47,6.92-8.27,10.49-1.13-.24-2.08-.45-2.93-.63-.75-4.14-.71-13.5.05-17.01.36-.12.76-.36,1.17-.37.56-.02,1.13.13,1.59.2.24.41.49.66.51.92.1,1.77.15,3.54.22,5.31.05,1.3.13,2.61.18,3.77.95.54,1.28-.05,1.6-.48,1.6-2.13,3.14-4.3,4.74-6.43.79-1.06,1.66-2.06,2.7-3.35Z"/>
    <path class="cls-2" d="m412.17,685.54c4.06-.07,8.17-.26,12.12.1.93.86,1.06,1.63.22,2.7-1.34.57-2.98.24-4.58.32-1.46.07-2.93.09-4.5.13-.28.7-.58,1.2-.67,1.74-.07.4.12.85.2,1.32.4.22.76.55,1.16.61,2.05.3,4.13.4,6.15.81,3.48.71,5.1,3.88,3.69,7.08-.28.64-.83,1.24-1.39,1.68-1.3,1.04-2.84,1.57-4.51,1.66-1.03.05-2.07.06-3.11.06-1.62,0-3.24,0-4.99,0-.43-.73-1.04-1.32-1.09-1.95-.45-5.17-.4-10.33.62-15.44.02-.12.18-.22.68-.82Zm3,14.97c4.44,1.09,6.02.57,7.43-2.35-.18-1.35-.99-2.17-2.3-2.31-1.74-.19-3.52-.39-5.15.41-.71,1.56-.8,2.94.03,4.25Z"/>
    <path class="cls-2" d="m480.02,662.79c-1.05,2.62.1,5.52-.78,8.13-.69.86-1.48.93-2.35.4-.15-.25-.44-.49-.45-.74-.1-4.58-.18-9.16-.22-13.73,0-.71.23-1.42.38-2.32.8-.12,1.48-.22,2.19-.32,2.89,3.15,4.28,7.17,6.69,10.13,1.33.21,1.73-.48,2.11-1.09,1.09-1.76,2.11-3.57,3.19-5.33.69-1.13,1.43-2.22,2.22-3.44.88-.06,1.72-.11,2.39-.15.36.45.63.66.7.91.15.57.27,1.16.26,1.74-.09,3.84-.18,7.69-.35,11.53-.04.99-.37,1.96-.56,2.94h-1.64c-1.7-2.72.14-6.11-1.52-9.16-2.7,2.13-3.36,5.49-5.94,7.61-.59-.4-1.33-.67-1.7-1.19-1.02-1.45-1.88-3.01-2.84-4.5-.38-.6-.67-1.35-1.76-1.41Z"/>
    <path class="cls-2" d="m501.75,671.52c-.66-5.04-.56-13.58.17-17.07h2.95c1.07,3.38-.07,6.86.85,10.4,1.71-.67,2.13-2.19,2.99-3.27.93-1.15,1.75-2.39,2.65-3.56.9-1.17,1.83-2.32,2.86-3.62.94-.04,1.93-.09,2.78-.12.34.42.66.63.68.87.5,5.3.28,10.6.16,15.67-.52.39-.73.67-.98.7-.54.07-1.1.02-1.67.02-.97-1.87-.6-3.67-.68-5.41-.07-1.6-.1-3.21-.14-4.65-.91-.51-1.4-.17-1.76.3-1.35,1.76-2.65,3.56-3.98,5.33-1.06,1.42-2.14,2.82-3.34,4.39h-3.54Z"/>
    <path class="cls-2" d="m357.23,789.07c4.59-1.5,9.31.37,13.48-1.19.57-1.07.1-1.69-.37-2.24-1.62-1.88-3.74-2.3-6.04-1.77-1.26.29-2.46.86-4.1,1.45-.43-.42-.94-.92-1.45-1.42,1.03-2.25,2.81-2.66,4.45-3.08,1.12-.29,2.35-.27,3.52-.22,5.75.26,9.15,4.18,8.88,9.92-.2,4.27-4.11,8.74-10.07,8.5-1.95-.08-3.79-.73-5.38-1.86-2.64-1.89-3.77-4.44-2.92-8.09Zm14.06,2.21c-3.57-.44-6.88-.65-10.13.1-.35,1.39.28,2.21,1.02,2.96.86.86,1.91,1.38,3.15,1.47,1.36.1,2.66-.12,3.82-.88,1.13-.75,2.17-1.56,2.14-3.65Z"/>
    <path class="cls-2" d="m421.14,788.88c4.78-1.08,9.46.42,13.71-.99.58-1.08.12-1.71-.36-2.26-1.64-1.87-3.76-2.32-6.08-1.76-1.27.3-2.46.89-3.81,1.39-.54-.58-1.02-1.1-1.65-1.77.45-.52.74-1.06,1.19-1.35,2.8-1.85,5.9-1.94,9.01-1.2,3.56.86,6.03,3.75,6.46,7.16.51,4.06-.7,7.4-4.32,9.51-3.31,1.94-6.77,2.01-10.19.13-1.47-.81-2.65-1.95-3.36-3.46-.76-1.61-1.31-3.29-.61-5.4Zm14.24,2.53c-3.36-.75-6.75-.68-10.07-.05-.55,1.42.19,2.17.9,2.9.95.97,2.12,1.52,3.51,1.59,1.52.07,2.91-.31,4.1-1.27.92-.74,1.8-1.54,1.57-3.16Z"/>
    <path class="cls-2" d="m507.85,686.35c.5,5.09.38,13.56-.29,17.03-.61.07-1.29.15-1.96.22-1.41-1.66-.84-3.51-.96-5.22-.13-1.75.22-3.55-.36-5.16-.82-.43-1.28-.04-1.64.43-1.63,2.11-3.23,4.25-4.85,6.37-.89,1.17-1.81,2.32-2.73,3.49h-2.67c-.26-.3-.6-.5-.62-.74-.48-5.46-.5-10.93.01-16.39.01-.12.17-.23.42-.56h2.23c1.02,1.85.56,3.66.7,5.4.14,1.7-.38,3.5.72,5.25,1.71-.63,2.18-2.15,3.05-3.25,1.01-1.28,1.91-2.64,2.9-3.94.89-1.18,1.81-2.32,2.54-3.24,1.49-.6,2.61-.87,3.51.32Z"/>
    <path class="cls-2" d="m673.2,696.36c-.3,2.54-.55,4.7-.82,7.01-1.07.1-1.9.17-2.74.25-.29-.53-.64-.89-.67-1.28-.11-1.77-.15-3.54-.17-5.31-.02-2.66-.03-5.32.01-7.98.02-1.01.19-2.01.3-2.99.59-.21,1-.46,1.4-.46.55,0,1.11.19,1.57.27,1.39,2.15.11,4.55,1.11,6.8,2.58.56,5.13.8,7.86-.35.22-2.03.45-4.04.68-6.2.63-.21,1.15-.48,1.7-.55.41-.05.85.15,1.22.22.94,1.14,1.13,11.09.37,17.13q-1.51.69-3.34.14c-.21-2.07-.42-4.23-.64-6.42-2.57-1.14-4.99-.83-7.85-.29Z"/>
    <path class="cls-2" d="m383.3,787.55c2.95.48,5.41.59,7.8-.04,1.42-1.94.26-4.27,1.36-6.08.89-.88,1.82-.84,2.8-.26.79,1.04.95,10.17.29,16.28-.86,1.19-1.9,1.17-3.29.27-.24-1.84-.5-3.85-.76-5.91-2.53-1.18-4.96-.62-7.32-.48-1.66,2.28-.22,4.94-1.63,7.25-.91-.15-1.85-.31-2.71-.46-.66-3.43-.77-11.67-.26-16.58.92-1.06,1.98-1,3.41-.22.09,1.86.19,3.87.3,6.21Z"/>
    <path class="cls-2" d="m563.02,766.61c-.17-5.84-.16-11.25,0-16.5,2.97-.98,7.76-1.28,13.52-.97.87.59,1.1,1.32.33,2.44-2.83.85-6-.14-8.97.65-1.12.93-1.15,2.01-.49,3.49.8.18,1.75.49,2.73.6,1.46.17,2.96.08,4.41.31,2.33.37,3.72,1.88,4,4.1.31,2.41-.49,4.16-2.49,5.21-.78.41-1.64.81-2.49.89-3.36.29-6.73.5-10.57-.23Zm4.6-2.56c2.05.67,3.91.53,5.73-.31,1.02-.47,1.68-1.53,1.52-2.47-.16-.96-.76-1.69-1.66-1.9-2.01-.47-4.05-.72-5.97.42-.34,1.41-.6,2.7.38,4.27Z"/>
    <path class="cls-2" d="m451.36,685.76h2.59c.22.33.5.57.51.82.11,2.21.14,4.43.25,6.65.05.99.22,1.98.38,3.33,2.51-1.38,3.34-3.73,4.81-5.48,1.42-1.7,2.68-3.53,4.05-5.36h2.56c.27.37.55.59.59.84.47,3.14.41,12.99-.11,16.64-.71.13-1.51.27-2.32.41-.29-.57-.64-.94-.66-1.33-.1-2.07-.1-4.14-.18-6.21-.04-1-.19-1.99-.32-3.17-1.91.47-2.34,2.06-3.23,3.14-1.03,1.26-1.95,2.61-2.94,3.9-.9,1.17-1.82,2.32-2.78,3.53h-2.6c-.27-.53-.62-.91-.63-1.3-.09-3.85-.14-7.7-.15-11.55,0-1.46.1-2.93.18-4.87Z"/>
    <path class="cls-2" d="m536.69,671.39c-.73.09-1.55.19-2.17.26-.33-.29-.5-.37-.54-.48-.35-1.1-.69-2.21-1.1-3.57-1.08-.12-2.2-.23-3.34-.36-1.25,1.49-2.38,2.84-3.61,4.31-.77.04-1.61.08-2.34.12-.4-.72-.23-1.18,1.62-4.72-.57-.7-1.25-1.45-1.83-2.26-3.2-4.54-.85-9.92,4.64-10.47,2.2-.22,4.43-.11,6.64-.09.71,0,1.42.22,2.05.32.98,3.45.97,13.25-.03,16.94Zm-3.7-13.86c-1.84-1.12-3.67-.87-5.46.01-1.32.66-1.99,2.29-1.69,3.76.27,1.33,1.3,2.44,2.66,2.6,1.57.19,3.22.52,4.64-.72.46-1.89.57-3.75-.15-5.66Z"/>
    <path class="cls-2" d="m382.77,688.97c-2.72-.4-5.06-.47-7.63.08-.23.76-.64,1.57-.67,2.39-.1,2.37-.03,4.74-.06,7.12-.02,1.47-.09,2.94-.13,4.15-1.06,1.21-2.01,1.08-3.23.45-.15-.53-.47-1.21-.52-1.91-.37-5.6-.12-12.15.55-15.19,1.53-.96,3.35-.51,5.08-.58,1.63-.07,3.26-.05,4.89,0,1.75.05,3.54-.28,5.41.42.8,1.83.42,3.77.47,5.65.06,1.93.04,3.86,0,5.78-.04,1.91.22,3.84-.29,5.62-.36.25-.59.54-.84.56-.55.04-1.11-.05-1.8-.1-1.4-4.72.34-9.58-1.24-14.44Z"/>
    <path class="cls-2" d="m416.77,797.83c-1.2.71-2.14.79-3.23-.31-.21-1.76-.45-3.77-.71-5.89-2.67-.72-5.08-.71-7.69-.02-.39,2.1-.77,4.09-1.18,6.28-.9.13-1.7.25-2.34.34-1.21-1.33-1.41-11.09-.54-16.79.72-.74,1.51-.79,2.69-.1.31,1.89.67,4.01,1.02,6.13,2.7.71,5.15.6,7.55.09,1.59-1.87.4-4.17,1.3-6.08.78-.93,1.76-.8,2.89-.4.16.31.49.68.53,1.07.35,3.43.17,12.62-.29,15.69Z"/>
    <path class="cls-2" d="m437.69,749.73c1.12-1.04,2.05-1.04,3.26-.09.25,1.9.52,4.03.81,6.22,2.68.87,5.12.67,7.79.1.26-.79.64-1.58.75-2.41.18-1.3.19-2.63.26-3.77.41-.34.61-.64.86-.69.55-.1,1.13-.08,1.83-.11.24.64.56,1.16.61,1.7.44,5.14.17,13.03-.52,15.91-.37.1-.78.3-1.19.29-.41,0-.81-.21-1.41-.39-.28-2.14-.56-4.27-.85-6.47-2.78-1.07-5.32-.94-7.87-.23-1.32,2.14-.12,4.55-1.12,6.58-.89.83-1.84.71-2.88.11-.16-.34-.5-.73-.51-1.13-.07-4.58-.11-9.16-.11-13.74,0-.71.23-1.42.31-1.9Z"/>
    <path class="cls-2" d="m629.71,780.77c.97,3.83,1.06,12.57.3,16.88-.32.19-.67.51-1.07.59-.4.08-.86-.1-1.48-.19-.35-1.21-.7-2.44-1.12-3.89-1.19-.07-2.31-.14-3.26-.2-.55.49-.92.74-1.19,1.08-.73.93-1.34,1.96-2.14,2.83-.85.94-1.92,1.36-3.12.55-.41-1.05.39-1.68.77-2.44.39-.78.81-1.55,1.26-2.4-.56-.62-1.07-1.15-1.53-1.71-3.68-4.41-1.62-10.07,4.02-11.02.87-.15,1.77-.14,2.65-.14,1.91,0,3.82.04,5.9.07Zm-3.14,9.62c.42-2.18.53-4.03-.14-5.9-1.67-.79-3.27-.69-4.86-.37-1.63.33-2.73,1.96-2.41,3.68.15.82.71,1.56,1.13,2.45,2.01.54,3.92,1.34,6.27.15Z"/>
    <path class="cls-2" d="m564.11,788.5v1.84c-1.28,1.02-2.67.63-3.96.75-1.16.11-2.33.21-3.4.31q-.67,2.08-.15,3.95c1.5.79,3.15.39,4.75.49,1.44.09,2.95-.23,4.34.58-.02.51-.04.93-.08,1.56-.7.18-1.4.54-2.07.5-3.52-.2-7.04,1.07-10.57.04-.25-.46-.59-.82-.64-1.22-.41-3.52-.2-13.14.35-16.18,4.13-.77,8.34-.47,12.51-.23q.3,1.46-.41,2.77c-2.62.14-5.39.28-7.94.41-.97,1.32-1.26,2.39-.48,3.52.29.17.53.41.79.44,2.18.24,4.43-.45,6.98.46Z"/>
    <path class="cls-2" d="m447.92,794.02c-.39,1.64-.69,2.92-.96,4.03-1.21.89-2.12.5-3.01-.11-.78-3.75-.75-13.33.13-16.92,3.12-.53,6.36-.54,9.55,0,1.61.27,3.07,1.11,4.1,2.48,2.09,2.76,1.48,6.59-1.39,8.64-1.35.97-2.88,1.49-4.56,1.58-1.17.06-2.33.18-3.87.31Zm.08-9.57q-.87,3.02-.13,5.63c1.66.72,3.4.56,5.12.08,1.3-.36,2.03-1.63,1.96-3.12-.07-1.5-.89-2.64-2.25-2.91-1.59-.31-3.21-.5-4.7.31Z"/>
    <path class="cls-2" d="m428.57,703.87c-.14-1.21-.21-1.78-.27-2.23,3.02-3.13,3.25-3.64,3.48-7.88.12-2.21.2-4.43.34-6.64.02-.27.22-.54.38-.9.3-.18.67-.57,1.05-.59,3.82-.23,7.65-.35,11.63.08,1.13,2.91.49,5.88.6,8.77.11,2.8.02,5.6.02,8.62-1.03.2-1.82.34-2.82.53-.25-1.02-.59-1.85-.62-2.68-.08-2.81-.03-5.62-.06-8.43-.01-1.17.1-2.39-.89-3.45-1.77-.69-3.62-.41-5.4-.11-1.12,1.69-.7,3.37-.92,4.95-.3,2.19-.51,4.41-1.1,6.53-.29,1.03-1.22,2.06-2.13,2.69-.74.52-1.9.45-3.29.72Z"/>
    <path class="cls-2" d="m400.65,661.05c1.15.08,1.87.13,2.58.17,2.38-1.8,3.14-4.75,5.29-6.85h3.02c-.88,3.33-3.69,5.29-4.62,8.35,1.06,3.07,3.77,5.28,4.87,8.73-1.23.1-2.2.18-3.39.27-1.53-2.23-3.03-4.41-4.64-6.76h-3.07c-.26,2.21-.49,4.23-.72,6.22-.57.22-.96.48-1.37.5-.56.03-1.14-.13-1.56-.19-1-1.27-1.18-9.63-.49-16.48.91-1.11,1.98-1.03,3.39-.27.21,1.87.44,3.88.71,6.3Z"/>
    <path class="cls-2" d="m337.83,692.94c2.66.21,5.12.39,7.73.6v2.01c-2.61.2-5.06.39-7.24.56-1.27,1.24-1.01,2.38-.65,3.79.73.21,1.53.59,2.35.65,2.05.13,4.11.12,5.89.15,1.17.81,1.24,1.58.68,2.47-1.21.86-8.07.9-12.38.03-.76-1.73-.4-3.66-.45-5.54-.05-1.92-.03-3.84,0-5.76.02-1.9-.13-3.83.24-5.66.56-.27.94-.6,1.34-.62,3.67-.15,7.34-.32,11.21.1.11.85.2,1.52.29,2.27-2.9,1.46-6.02.03-8.73,1.12q-.67,1.69-.28,3.85Z"/>
    <path class="cls-2" d="m610.7,671.16c-.78-4.14-.73-13.26.1-16.69h2.99c.2,2.13.38,4.03.59,6.2.91.21,1.84.42,2.97.67,1.72-2.37,3.35-4.63,5.04-6.96.9-.05,1.75-.11,2.55-.15.14.47.37.81.28.98-.65,1.16-1.37,2.29-2.07,3.41-.78,1.25-1.58,2.49-2.36,3.71.88,3.36,3.65,5.54,4.75,8.63-1.08,1.13-2.17.87-3.57.34-1.36-1.98-2.86-4.16-4.39-6.37h-2.66c-.26.53-.58.91-.63,1.31-.18,1.6-.28,3.22-.39,4.65-1.04,1.08-1.99.95-3.18.27Z"/>
    <path class="cls-2" d="m565.84,671.42h-2.79c-.27-2.21-.52-4.21-.78-6.33-2.77-.77-5.33-.73-7.91-.12-1.23,1.98-.27,4.23-1.05,5.99-.85.85-1.64.91-2.5.37-.16-.24-.45-.48-.45-.73-.11-4.57-.2-9.15-.24-13.72,0-.71.24-1.42.41-2.34h2.74c.28,2.1.54,4.1.82,6.26,2.75.73,5.31.72,7.88.07,1.23-1.97.27-4.24,1.11-6.01.39-.23.63-.48.88-.49.55-.02,1.11.09,1.6.13.86,3.31,1.01,11.34.28,16.94Z"/>
    <path class="cls-2" d="m667.21,783.4c-2.56,1.09-5.48-.09-8.12.8-1.13.95-1.1,2.05-.55,3.31.34.17.72.52,1.11.53,2.06.06,4.12.03,5.94.03,1.15.78,1.23,1.55.48,2.74-2.25.17-4.71.36-7.01.53-1.17,1.36-1.09,2.58-.24,4.03,2.81,1.16,6.03-.14,9.13.86v1.61c-3.51.92-9.26.93-12.92.03-.87-1.72-.46-3.67-.52-5.55-.06-1.77-.05-3.55,0-5.32.05-1.89-.28-3.83.51-5.89,3.92-.79,7.87-.31,11.49-.35,1.25.81,1.25,1.6.71,2.65Z"/>
    <path class="cls-2" d="m584,401.92c-3.79,3.38-5.05,7.81-5.47,12.67-.49,5.6-1.04,11.19-2.73,16.6-1.87,5.97-4.4,11.61-7.94,16.78-.24.35-.57.65-.87.98-1.06-.49-.64-1.52-.91-2.27-.29-.82-.39-1.71-.6-2.7,1.12-2.2,2.32-4.4,3.38-6.66,3.21-6.86,5.45-14.05,7.33-21.37.73-2.86,1.63-5.69,2.69-8.44.57-1.48,1.59-2.81,2.52-4.14.61-.88,1.55-1.36,2.66-1.39l-.06-.06Z"/>
    <path class="cls-2" d="m318.97,698.91c-.31,1.64-.55,2.92-.77,4.05-.92.8-1.71.87-2.56.29-.15-.25-.42-.5-.42-.75-.09-4.74-.16-9.49-.19-14.23,0-.71.22-1.43.37-2.33,3.6-.73,7.1-.88,10.54.27,2.45.81,3.98,2.5,4.18,5.21.28,3.72-1.99,6.43-5.93,6.98-.88.12-1.78.06-2.67.14-.72.06-1.44.21-2.55.38Zm5.77-3.95c1.52-1.37,2.16-2.62,1.37-4.2-.75-1.48-2.09-2.03-3.66-2.04-1.16,0-2.38-.23-3.56.88-.39,1.78-.81,3.74.44,5.63,1.91.44,3.63.08,5.42-.27Z"/>
    <path class="cls-2" d="m651.55,700.01c-.77,1.23-1.39,2.23-2.14,3.44-.86.06-1.84.14-2.76.21-.14-.5-.35-.83-.27-1.03,2.4-5.56,4.83-11.11,7.33-16.81,1.28-.1,2.4-.18,3.37-.26,1.97,2.81,6.77,13.3,8.07,17.51-.75,1.15-1.78.59-2.98.4-.64-.96-1.36-2.05-2.17-3.27-2.63-.98-5.38-.79-8.45-.18Zm4.41-9.68c-2.29,2.77-2.61,3.6-2.42,6.31,1.54.44,3.08.49,4.92-.24-.47-2.24-1.13-4.25-2.5-6.08Z"/>
    <path class="cls-2" d="m392.77,671.28c-.52.19-.91.44-1.32.46-.57.03-1.15-.11-1.81-.19-.67-1-1.32-1.97-2.05-3.06-2.73-.56-5.49-.51-8.33-.02-.7.98-1.39,1.93-2.04,2.83-1.04.56-2,.6-2.92-.05.85-3.57,4.69-12.36,7.38-16.87h3.26c.34.37.74.65.92,1.02,2.18,4.7,4.35,9.41,6.48,14.12.23.52.28,1.12.43,1.75Zm-9.5-12.92c-1.31,2.38-2.45,4.06-2.31,6.22q2.5.55,4.93-.29c-.24-2-.87-3.83-2.63-5.92Z"/>
    <path class="cls-2" d="m588.96,671.56c-1.19.07-2.03.12-2.98.18-.8-1.13-1.54-2.2-2.34-3.34-.92-.09-1.79-.24-2.66-.26-1.77-.04-3.54-.01-5.34-.01-.92,1.19-1.72,2.22-2.51,3.24-1.01.41-1.98.75-2.95-.52,2.18-5.36,4.65-10.72,7.05-15.92,1.35-1.07,2.63-.92,3.92-.45,1.9,2.73,6,11.58,7.82,17.08Zm-8.91-12.59c-2.16,1.19-2.62,2.14-2.73,5.54,1.51.64,3.01.74,4.65-.19-.11-.63-.11-1.23-.32-1.75-.48-1.22-1.05-2.4-1.6-3.6Z"/>
    <path class="cls-2" d="m425.17,654.34c2.18,5.84,5.28,10.91,7.08,16.35-.21.38-.26.6-.35.61-.82.14-1.65.25-2.49.37-.77-1.15-1.42-2.12-2.12-3.16-2.76-.66-5.53-.47-8.49-.16-.74,1.04-1.49,2.1-2.29,3.24h-2.5c-.09-.45-.27-.78-.18-.99,2.17-5.03,4.37-10.05,6.58-15.05.17-.39.54-.69.96-1.21h3.79Zm-2.14,4.33c-1.59,1.91-2.45,3.78-2.72,6.15,1.83.37,3.36.35,4.99-.41.01-2.2-.73-3.95-2.28-5.73Z"/>
    <path class="cls-2" d="m597.83,698.93c-.32,1.69-.57,2.96-.78,4.07-.95.78-1.75.84-2.57.25-.14-.25-.4-.5-.4-.76-.09-4.57-.16-9.13-.19-13.7,0-.86.2-1.73.33-2.79,3.55-.85,7.03-.93,10.45.13,3.13.97,4.51,3.16,4.35,6.36-.14,2.72-1.91,4.91-4.78,5.65-1.13.29-2.34.24-3.51.37-.86.1-1.71.25-2.89.42Zm0-9.56c-.58,2.07-.71,3.89.09,5.54,1.72,1.15,3.31.54,4.85.25,1.66-.31,2.63-1.57,2.59-3.05-.04-1.44-1.1-2.88-2.55-3.18-1.56-.33-3.16-.52-4.97.43Z"/>
    <path class="cls-2" d="m526.02,766.72c-1.2.06-1.9.1-2.48.13-.3-.38-.62-.6-.63-.83-.11-4.87-.21-9.74-.26-14.61,0-.7.23-1.4.39-2.25.87-.1,1.6-.35,2.28-.24,4.2.69,8.53-.31,12.5.75,1.11,1.4.91,2.78.87,4.08-.12,4.24.48,8.52-.45,12.94h-2.71c-.96-4.69.15-9.31-.76-14.02-.78-.22-1.58-.62-2.41-.66-1.75-.08-3.51.03-5.41.06-.3,1.04-.7,1.85-.74,2.67-.1,2.36-.03,4.73-.05,7.1-.02,1.47-.09,2.93-.15,4.89Z"/>
    <path class="cls-2" d="m590.1,703.31c-1.06.14-1.87.25-2.84.38-.85-1.27-1.66-2.46-2.46-3.66-2.7-.7-5.32-.57-8.16-.17-.79,1.13-1.62,2.32-2.39,3.42-1.09.44-2.06.77-2.93-.17,1.17-4.08,5.71-14.06,7.95-17.4.45-.06,1.02-.19,1.59-.19.43,0,.85.18,1.57.34,2.73,4.72,4.55,10.06,7.02,15.09.31.63.38,1.37.64,2.35Zm-9.38-13.22c-1.7,1.95-2.38,3.93-2.66,6.25,1.79.74,3.39.97,5.21-.38-.56-2.04-1.18-3.91-2.55-5.87Z"/>
    <path class="cls-2" d="m422.9,749.04h2.91c.37.34.68.5.79.75,2.4,5.23,4.77,10.46,7.13,15.7.11.24.01.57.01.9-.8.93-1.8.6-3.01.31-.62-.97-1.32-2.07-2.03-3.17-2.8-.96-5.54-.81-8.42-.22-.7,1.1-1.41,2.2-2.24,3.51-.85-.04-1.8-.09-2.8-.13.89-3.59,5.19-13.52,7.66-17.65Zm3.97,10.49c.15-1.67-.64-3.1-1.35-4.52-.21-.42-.78-.65-1.48-1.21-.91,2.13-2.23,3.7-2.27,5.83,2.7.81,2.7.79,5.11-.1Z"/>
    <path class="cls-2" d="m635.45,757.83c1.8,2.87,3.51,5.59,5.25,8.35-1.19,1.15-2.3.85-3.7.42-1.39-1.97-2.92-4.13-4.57-6.47h-2.75c-1.57,1.95-.43,4.27-1.58,6.44-.61.08-1.42.19-2.1.28-1.14-1.36-1.3-11.78-.4-16.8.23-.17.46-.45.7-.48.55-.05,1.11.04,1.86.09.42,2.25.82,4.36,1.25,6.63h3.05c1.17-1.79,2.36-3.65,3.6-5.47,1.2-1.77,1.34-1.8,4.05-1.73.58.54.27,1.07-.06,1.56-.83,1.23-1.71,2.42-2.52,3.66-.71,1.1-1.34,2.25-2.09,3.52Z"/>
    <path class="cls-2" d="m542.79,685.65h2.98c.31.25.64.38.75.62,2.46,5.35,4.9,10.72,7.33,16.09.11.24.01.57.01,1.1h-3.03c-.7-1.11-1.39-2.22-2.08-3.31-2.69-.9-5.31-.63-8.1-.35-.82,1.16-1.66,2.34-2.59,3.66h-2.34c-.18-.46-.43-.78-.36-.98,2.08-5.68,4.68-11.11,7.42-16.83Zm-.81,10.95c1.86.44,3.5.7,5.25-.43-.52-2.21-1.05-4.25-2.87-6.1-1.27,2.16-2.18,4.08-2.38,6.52Z"/>
    <path class="cls-2" d="m320.07,766.75h-3.34c-.63-1.04-1.23-2.04-1.7-2.82-1.5-1.13-4.04-1.27-8.69-.59-.64.96-1.38,2.04-2.27,3.37h-2.74c.66-3.21,5.17-13.61,7.58-17.45.9-.1,2.02-.22,3.2-.34.62,1.09,1.22,1.94,1.6,2.88,1.95,4.93,4.5,9.62,6.37,14.96Zm-9.51-13.04c-1.67,1.99-2.59,3.7-2.51,5.95,1.73.71,3.32.93,5.03-.25-.43-1.98-.93-3.76-2.52-5.7Z"/>
    <path class="cls-2" d="m650.38,749.63c1.72-.93,2.83-.97,4.21-.11,2.65,5.3,5.21,10.92,7.47,16.56-.95,1.28-1.95.87-3.12.54-.66-.98-1.39-2.06-2.08-3.08-2.73-.99-5.36-.77-8.19-.37-.82,1.14-1.66,2.32-2.57,3.59h-2.46c-.13-.44-.35-.77-.27-.97,2.33-5.44,4.69-10.86,6.99-16.17Zm-.17,9.98c1.65.83,3.25.94,4.97-.2-.27-2.17-1.07-3.99-2.16-5.81-2.12,2.16-2.23,2.41-2.81,6.01Z"/>
    <path class="cls-2" d="m470.93,762.15c-.44,1.45-.87,2.83-1.38,4.49-.71.05-1.51.11-2.17.15-1.13-1.34-1.23-12.15-.28-17.03,3.34-1.05,6.8-1.19,10.28-.24,2.93.79,4.78,3.39,4.63,6.27-.15,2.86-2.28,5.27-5.22,5.81-.87.16-1.77.11-2.65.19-1.02.09-2.03.22-3.21.36Zm-.03-3.66c1.68.87,3.25.57,4.81.09,1.56-.48,2.39-1.7,2.36-3.31-.02-1.5-.99-2.66-2.67-3.05-1.44-.34-2.89-.45-4.68.35-.66,1.87-1.07,3.9.18,5.92Z"/>
    <path class="cls-2" d="m472.88,685.81c1.1-.09,1.79-.15,2.48-.2,1.72,2.15.19,4.83,1.63,7.15.33.09.87.36,1.41.38.97.02,1.67-.58,2.19-1.33,1.35-1.94,2.67-3.91,4.1-6.02.96-.08,1.94-.17,2.88-.25.13.48.34.83.24.98-.86,1.38-1.8,2.7-2.66,4.08-.77,1.24-1.89,2.31-2.07,4.07,1.3,2.94,3.77,5.42,5.23,8.85h-3.44c-2.3-1.95-3.04-5.09-5.44-7.2h-2.35c-.29.56-.62.93-.66,1.34-.17,1.76-.25,3.53-.36,5.29-.49.27-.85.57-1.25.65-.41.08-.87-.08-1.35-.13-.2-.39-.56-.77-.57-1.16-.09-4-.13-8-.16-12,0-1.32.09-2.65.17-4.49Z"/>
    <path class="cls-2" d="m365.74,762.12c-.45,1.65-.8,2.92-1.21,4.44-.74.1-1.56.2-2.24.29-1.17-1.33-1.35-11.39-.4-17,.71-.19,1.53-.56,2.35-.59,2.21-.06,4.43-.01,6.64.06,1.36.04,2.65.43,3.68,1.35,1.75,1.56,2.77,3.45,2.26,5.89-.53,2.57-2.13,4.17-4.6,4.89-.84.24-1.75.24-2.63.32-1.16.11-2.33.21-3.86.35Zm-.06-9.59c-.73,2.14-1.02,4.11.16,5.96,1.55.83,3,.54,4.44.16,1.72-.46,2.62-1.55,2.64-3.11.02-1.55-.92-2.82-2.51-3.26-1.44-.4-2.91-.52-4.73.25Z"/>
    <path class="cls-2" d="m497.93,758.61c-2.92,1.11-5.59-.08-7.8,1.15-.78,1.24-.81,2.33-.13,3.39.3.18.54.44.79.46,1.47.12,2.94.17,4.41.25,1.16.07,2.32.16,3.69.26.1.83.18,1.5.25,2.03-1.22,1.15-7.11,1.31-12.53.47-.17-.43-.52-.94-.58-1.48-.38-3.59-.12-12.34.39-15.01,1.03-1.13,2.42-.86,3.72-.92,1.48-.06,2.96-.07,4.43-.11,1.3-.03,2.63-.6,4.16.41.05.46.13,1.12.19,1.68-.47.27-.71.52-.97.54-1.62.1-3.25.11-4.86.21-1,.06-2,.23-2.82.34-.98,1.31-.91,2.4-.29,3.6.34.16.73.47,1.13.51,2.05.16,4.11.25,6.28.37.19.65.34,1.17.53,1.85Z"/>
    <path class="cls-2" d="m346.84,749.2c.84-.07,1.82-.16,2.91-.25.56.81,1.19,1.46,1.52,2.24,2.12,5,4.69,9.81,6.48,15.33-1.13.18-1.93.31-2.82.45-.8-1.19-1.54-2.28-2.32-3.44-2.71-.95-5.45-.78-8.39-.15-.69,1.05-1.4,2.14-2.24,3.42h-2.87c.63-3.21,5.1-13.39,7.73-17.59Zm1.3,4.41c-1.18,1.91-2.3,3.72-2.38,6.16,1.84.6,3.48.75,5.12-.1q-.73-3.64-2.74-6.06Z"/>
    <path class="cls-2" d="m687.96,749.9c.31,1.53.6,2.95.94,4.57,1.08.17,2.05.34,3.04.48,1.46.2,2.94.25,4.36.59,2.47.59,3.67,2.43,3.91,4.82.24,2.4-.68,4.38-2.8,5.61-.87.5-1.92.9-2.91.96-2.94.18-5.9.36-8.97-.17-1.33-2.64-.61-5.48-.7-8.21-.09-2.79.06-5.58.09-8,.9-1.27,1.72-1.23,3.04-.66Zm1.39,14.14c1.98.78,3.83.47,5.57-.51,1.76-.99,1.94-3.96.22-4.86-1.98-1.03-4.1-1.68-6.24-.21-.57,1.97-.8,3.82.45,5.57Z"/>
    <path class="cls-2" d="m566.19,363.62c-.35,8.74-.57,17.48-1.1,26.21-.67,11.19-2.8,22.05-8.07,32.1-.46.88-1.06,1.69-1.55,2.47-1.32-.33-1.74-1.13-1.53-2.06.22-.99.68-1.95,1.14-2.87,4.6-9.31,6.82-19.23,7.74-29.5.61-6.79,1.07-13.59,1.79-20.36.21-2.01,1.08-3.96,1.65-5.93l-.07-.06Z"/>
    <path class="cls-2" d="m470.53,656.54c-2.48.14-5.12.28-7.47.41-1.35,1.21-1.17,2.35-.73,3.6.32.18.69.56,1.08.59,2.19.18,4.39.28,6.79.42v2.24c-2.38,1.36-5.1.02-7.42,1.12q-.68,1.61-.42,3.4c2.61,1.73,5.79.08,8.79,1.29.1.35.25.86.36,1.27-1.16,1.22-7.26,1.4-12.48.48-.17-.44-.5-.96-.55-1.51-.41-4.15-.16-12.32.46-15.25.59-.15,1.28-.46,1.97-.47,3.38-.03,6.77-.3,9.84.15.93,1.08.63,1.65-.22,2.26Z"/>
    <path class="cls-2" d="m490.96,781h2.38c.21.4.54.77.59,1.17.2,1.75.31,3.51.43,4.98,1.09,1.21,2.07,1.05,3.52.45,1.38-1.96,3-4.25,4.7-6.66.99-.05,1.98-.1,3.31-.16-1.2,3.28-3.71,5.39-4.82,8.38.62,3.27,3.42,5.44,4.61,8.44q-1.31.79-3.19.48c-1.42-.88-2.07-2.43-3-3.75-.51-.73-.96-1.52-1.56-2.15-.38-.4-.98-.7-1.53-.79-.52-.08-1.1.16-1.89.31-.24,1.98-.46,3.86-.67,5.66-.82,1.09-1.7,1.21-2.68.47-.86-1.08-.99-10.98-.17-16.82Z"/>
    <path class="cls-2" d="m475.62,780.9h3.38c2.28,3.11,6.4,12.24,7.51,16.55-.43,1.13-1.33.93-2.5.71-.65-.87-1.42-1.91-2.32-3.13-2.62-.55-5.38-.49-8.28-.02-.81,1.2-1.61,2.4-2.49,3.71-.78-.1-1.46-.18-2.04-.25-.18-.51-.29-.78-.36-1.05-.03-.14-.04-.31.02-.44,2.31-5.27,4.63-10.54,7.08-16.09Zm-.64,10.7c1.8.71,3.43.77,5.21-.12-.16-2.16-.96-3.98-2.1-5.67-.11-.16-.49-.13-.94-.23-1.02,1.82-2.09,3.65-2.17,6.02Z"/>
    <path class="cls-2" d="m580.91,766.51c-.03-.56-.04-1-.07-1.48.28-.33.5-.78.86-.96,1.63-.84,2.28-2.23,2.45-3.96.23-2.51.48-5.01.75-7.52.09-.86.26-1.72.37-2.36,1.29-1.28,2.69-.96,3.99-1.01,1.48-.05,2.97-.04,4.45,0,1.31.03,2.68-.22,4.1.76.88,1.6.46,3.56.53,5.45.06,1.78.06,3.56.01,5.34-.06,1.9.32,3.84-.36,5.53-.95.78-1.75.84-2.57.23-.14-.26-.38-.51-.39-.77-.09-2.66-.14-5.33-.2-7.99-.04-1.62-.09-3.24-.13-4.8-2.12-1.41-4.09-1.1-6.37-.47-.21,1.13-.5,2.25-.62,3.4-.15,1.47-.08,2.97-.27,4.44-.17,1.31-.39,2.66-.89,3.87-.37.91-1.1,1.79-1.9,2.36-.98.71-2.22.75-3.72-.05Z"/>
    <path class="cls-2" d="m486.66,509.07c0-2.78.84-6.09,2.62-10.18,3.58,1.7,7.07,3.63,10.76,5.03,3.53,1.33,7.27,2.1,11.11,3.17-5.87,2.25-19.16,3.29-24.49,1.99Z"/>
    <path class="cls-2" d="m515.72,780.91h3.36c1.91,2.69,5.31,9.78,7.32,15.27.24.64.29,1.36.41,1.98-.5.21-.77.44-1.02.42-.58-.05-1.15-.21-1.83-.35-.72-1.06-1.45-2.14-2.25-3.33h-8.03c-.81,1.05-1.61,2.08-2.55,3.3-.69-.04-1.5-.09-2.5-.15.13-.86.11-1.47.32-1.97,2.14-5.01,4.3-10.01,6.76-15.16Zm4.54,10.59c-.17-2.17-.95-4.01-2.11-5.7-.11-.15-.5-.1-.94-.18-1.09,1.79-2.11,3.63-2.17,5.99,1.82.68,3.46.78,5.23-.11Z"/>
    <path class="cls-2" d="m367.3,688.62c-.72.66-1.24,1.14-1.79,1.64-1.56-.59-2.74-1.2-4-1.47-4.18-.89-7.52,1.8-7.48,5.91.04,3.41,2.48,5.98,5.89,5.84,1.71-.07,3.39-.72,5.32-1.17.35.42.79.96,1.18,1.44-.61,1.64-1.91,2.12-3.15,2.5-5.42,1.66-11-.63-12.61-5.87-1.67-5.43,1.72-11.08,7.39-11.91,3.19-.47,6.19-.02,9.25,3.09Z"/>
    <path class="cls-2" d="m394.06,762.06c.84,1.13,1.26,1.68,1.73,2.32-2.03,2.47-4.6,2.8-7.33,2.75-2.66-.04-4.97-.95-6.8-2.85-3.34-3.47-3.05-9.61.41-12.9,3.37-3.2,10.69-4.01,13.61.39-.43.48-.89,1.01-1.42,1.62-1.34-.47-2.55-1.04-3.82-1.3-2.54-.52-4.75.16-6.22,2.41-1.41,2.16-1.54,4.44-.21,6.73.97,1.67,2.4,2.57,4.35,2.65,1.96.08,3.86-.1,5.69-1.82Z"/>
    <path class="cls-2" d="m518.68,751.68c-.49.55-.96,1.07-1.53,1.71-1.17-.43-2.23-.91-3.35-1.21-2.32-.63-4.43-.17-6.14,1.57-1.73,1.75-2.06,3.87-1.39,6.17.69,2.39,2.31,3.86,4.81,3.88,1.88.02,3.77-.44,6.19-.75.14.09.72.48,1.2.81-.08,1.49-2.09,2.79-4.53,3.15-5.34.8-9.59-1.42-11.2-5.85-1.49-4.09-.01-8.58,3.66-10.92,2.08-1.32,4.4-1.8,6.82-1.46,2.05.29,4.08.8,5.47,2.89Z"/>
    <path class="cls-2" d="m626.6,699.02c.65.73,1.04,1.15,1.51,1.68-.8,1.93-2.5,2.54-4.19,2.89-2.99.61-5.91.31-8.52-1.5-4.23-2.94-4.97-9.37-1.52-13.38,1.72-2,3.86-3.2,6.55-3.31,2.88-.11,5.63.13,7.75,2.86-.42.56-.84,1.11-1.16,1.54-.51.06-.82.17-1.07.1-1.41-.39-2.79-1.09-4.22-1.2-3.68-.26-6.15,2.19-6.29,5.93-.12,3.3,2.34,5.76,5.84,5.97,1.87.11,3.44-.67,5.32-1.58Z"/>
    <path class="cls-2" d="m679.59,763.02c.26.24.75.69,1.19,1.09-.21.5-.25.85-.45,1.01-3.06,2.51-6.56,2.54-10.04,1.37-3.56-1.2-5.98-4.89-5.81-8.62.18-3.84,1.97-6.81,5.62-8.3,3.84-1.57,7.45-1.18,10.51,1.57.25,1.4-.5,1.81-1.49,2.17-1-.39-2.05-.97-3.18-1.21-2.48-.53-4.71-.02-6.35,2.09-1.44,1.85-1.58,4.99-.35,7.13.87,1.51,2.15,2.55,3.91,2.47,2.03-.09,4.05-.47,6.43-.78Z"/>
    <path class="cls-2" d="m649.31,794.25c.5.6.94,1.14,1.37,1.66-1.14,2.14-3.08,2.63-4.94,2.95-3.6.62-6.88-.37-9.22-3.2-2.47-2.99-2.71-6.5-1.24-10.06.7-1.69,2.07-2.86,3.6-3.83,2-1.26,4.22-1.26,6.46-1.17,2.01.08,3.75.74,5.05,2.19.18,1.25-.42,1.77-1.63,2.07-.92-.32-2-.83-3.14-1.05-2.33-.45-4.45.06-6.03,1.96-1.56,1.88-1.75,4.07-1.01,6.3.91,2.74,4.28,4.34,7.33,3.51,1.12-.3,2.17-.85,3.39-1.34Z"/>
    <path class="cls-2" d="m544.45,766.51c-.03-.37-.07-.78-.1-1.17,1.19-1.4,3.7-.62,4.41-3.11-1.22-4.3-4.3-8.02-6.19-12.46.86-1.24,1.93-.98,3.3-.4,2.07,2.39,2.69,5.94,5.06,8.78.52-.46,1.04-.74,1.29-1.17.81-1.41,1.5-2.88,2.27-4.31.62-1.16,1.28-2.3,1.98-3.57h2.49c.12.47.33.81.23,1-2.23,4.33-4.41,8.69-6.76,12.95-1.51,2.73-3.62,4.73-7.15,3.95-.27-.06-.51-.28-.84-.46Z"/>
    <path class="cls-2" d="m392.12,703.21c.09-.53.19-1.08.29-1.69,1.42-.98,3.8-.21,4.47-2.71-1.24-4.34-4.55-7.98-5.94-12.28.76-1.27,1.65-.99,2.72-.82,2.3,2.52,3.04,6.19,5.33,9.21,2.88-2.68,3.37-6.5,5.55-8.98,1.06-.52,1.88-.63,2.6.15.02.29.14.64.03.86-2.42,4.58-4.86,9.16-7.33,13.72-.73,1.34-1.83,2.36-3.3,2.83-1.42.46-2.88.68-4.42-.29Z"/>
    <path class="cls-2" d="m519.25,688.2c.04-.85.08-1.52.12-2.42,4.73-.6,9.27-.24,13.47-.27,1.27.83,1.32,1.62.73,2.76-1.27.23-2.69.49-4.4.79-.2.9-.57,1.86-.6,2.83-.09,2.81,0,5.62-.08,8.43-.03.99-.32,1.98-.52,3.13h-2.74c-.22-.47-.55-.86-.56-1.26-.08-2.81-.07-5.62-.15-8.43-.04-1.45.26-2.96-.67-4.61-1.22-.26-2.63-.55-4.6-.97Z"/>
    <path class="cls-2" d="m592.49,669.75c1.24-.66,3.02-.39,3.9-2.36.04-2.19-1.59-4.04-2.66-6.09-1.09-2.08-2.27-4.11-3.14-6.14.95-1.37,1.94-1,3.07-.63,2.24,2.41,2.73,6.03,5.1,8.77,2.57-2.67,3.24-6.23,5.53-8.98.78.05,1.59.1,2.36.15,0,.58.1.92-.02,1.15-2.27,4.33-4.54,8.66-6.88,12.94-.95,1.74-2.39,3.02-4.34,3.6-1.16.35-2.32.5-3.34-.38-.5-.82,0-1.42.43-2.05Z"/>
    <path class="cls-2" d="m555.52,685.53c4.92-.04,9.6-.31,14.51.19.1.83.18,1.5.25,2.07-.41.31-.62.59-.87.64-1.43.25-2.86.44-4.41.67-1.4,4.7.13,9.51-1.04,14.29h-2.65c-1.18-4.72.26-9.52-.97-14.25-1.69-.27-3.25-.53-4.72-.76-.92-.81-.74-1.59-.09-2.83Z"/>
    <path class="cls-2" d="m298.61,751.72c-1.48.19-2.93.38-4.57.59-.21.91-.55,1.73-.58,2.57-.08,2.52-.02,5.04-.05,7.56-.02,1.31-.13,2.62-.19,3.72-1.12,1.06-2.06.95-3.23.2-1.43-4.38.31-9.24-1.1-13.96-.8-.16-1.5-.31-2.21-.43-.71-.12-1.43-.2-2.33-.33-.04-.66-.08-1.19-.11-1.61.42-.26.66-.55.91-.56,4.42-.18,8.84-.32,13.04-.47,1.23.98,1.47,1.8.41,2.71Z"/>
    <path class="cls-2" d="m638.84,703.45h-2.26c-.25-.41-.52-.66-.53-.91-.1-2.95-.14-5.9-.24-8.85-.05-1.45.27-2.96-.72-4.59-1.38-.25-2.93-.52-4.72-.84-.11-.66-.21-1.32-.3-1.85.45-.35.67-.66.91-.69,4.56-.48,9.11-.25,13.35-.17,1.08.97,1.2,1.74.37,2.81-1.37.2-2.95.42-4.51.65-1.34,2.31-.6,4.73-.76,7.04-.17,2.33.3,4.71-.58,7.39Z"/>
    <path class="cls-2" d="m330.65,766.78h-2.41c-.23-.51-.55-.9-.56-1.3-.08-2.8-.06-5.61-.13-8.42-.04-1.45.25-2.96-.56-4.41-1.31-1.19-3.12-.38-4.61-1-.17-.2-.47-.41-.5-.65-.04-.39.1-.81.15-1.16,2.63-.67,9.56-1,14.42-.69.14.67.3,1.42.51,2.4-1.87.28-3.44.51-5.26.78-1.35,4.61.09,9.42-1.04,14.44Z"/>
    <path class="cls-2" d="m407.29,766.74h-2.72c-1.61-4.62.3-9.51-1.31-14.26-1.56-.3-3.11-.59-4.87-.93-.05-.53-.11-1.06-.15-1.49.4-.27.63-.52.89-.57.72-.14,1.46-.26,2.19-.27,3.68-.03,7.35-.01,11.29-.01.07.7.14,1.36.23,2.21-1.61.33-3.03.61-4.69.95-.21.72-.62,1.53-.66,2.35-.1,2.37-.04,4.74-.06,7.11-.02,1.47-.08,2.93-.14,4.9Z"/>
    <path class="cls-2" d="m703.73,748.98c1.1.1,1.78.16,2.64.24.17.85.42,1.54.42,2.24,0,4.98.23,9.96-.11,14.74-.53.34-.77.6-1.02.62-.55.03-1.11-.07-1.53-.1-.26-.45-.53-.69-.54-.95-.1-4.55-.18-9.11-.22-13.67,0-.86.19-1.72.35-3.11Z"/>
    <path class="cls-2" d="m575.1,406.38c-2.48,9.15-4.65,18.4-8.42,27.15-.64,1.5-1.39,2.95-2.13,4.4-.11.21-.43.3-.79.54-.27-.51-.54-1.01-.83-1.54.29-.75.56-1.43.83-2.11,1.8-4.55,3.66-9.07,5.4-13.64,1.48-3.88,2.79-7.82,4.27-11.7.41-1.08,1.14-2.03,1.72-3.04l-.06-.05Z"/>
    <path class="cls-2" d="m639.63,614.69c-1.12-.78-1.07-1.89-.91-3.25.39.15.87.19,1.01.43.53.9.66,1.86-.1,2.82Z"/>
    <path class="cls-2" d="m386.88,621.31c-.58-1.8-.87-2.67-1.23-3.79,2.15.94,2.14.95,1.23,3.79Z"/>
    <path class="cls-2" d="m306.92,481.08c-.22-.74-.44-1.48-.7-2.38q1.52.49.7,2.38Z"/>
    <path class="cls-2" d="m553.93,569.98c.22-.4.35-.63.48-.87.28.25.62.47.8.78.07.11-.25.45-.4.68-.3-.2-.6-.4-.89-.59Z"/>
    <path class="cls-2" d="m629.24,598.85c-.13-.21-.41-.53-.36-.6.19-.26.5-.43.76-.63.06.25.23.52.16.73-.07.21-.36.34-.56.5Z"/>
    <path class="cls-2" d="m551.05,314.6c.15-1.18.84-1.99,1.81-2.6l-.06-.06c-.16,1.16-.65,2.11-1.7,2.71l-.05-.05Z"/>
    <path class="cls-2" d="m374.95,610.33v-1.68c.81.59.73,1.06,0,1.68Z"/>
    <path class="cls-2" d="m380.33,615.66c-.02-.33-.05-.67-.02-1,0-.04.41-.03.64-.05-.09.36-.19.72-.28,1.07-.11,0-.22-.02-.34-.03Z"/>
    <path class="cls-2" d="m296.02,471.03c-.07.11-.15.22-.22.33-.05-.13-.14-.27-.13-.39.01-.12.14-.22.22-.33.05.13.09.27.14.4Z"/>
    <path class="cls-2" d="m633.62,605.88c-.02.3-.05.59-.07.89-.08,0-.17-.01-.25-.02l.07-.89.25.02Z"/>
    <path class="cls-2" d="m470.05,197.1l.17-.72-.23.66.06.06Z"/>
    <path class="cls-2" d="m527.95,279.95c.06-.24.13-.48.08-.28.11-.17-.02.03-.14.23,0,0,.06.06.06.06Z"/>
    <path class="cls-2" d="m575.99,404.61c-.3.59-.59,1.18-.89,1.77,0,0,.06.05.06.05.3-.59.6-1.18.9-1.77,0,0-.06-.06-.06-.06Z"/>
    <path class="cls-2" d="m576.06,404.66c.29-.6.57-1.2.86-1.8l-.05-.06-.87,1.8.06.06Z"/>
    <path class="cls-2" d="m566.26,363.68l.21-.7c-.09.21-.19.43-.28.64l.07.06Z"/>
    <path class="cls-2" d="m300.75,475.83c-.16-.2-.31-.41-.47-.61.14.22.27.45.41.67l.06-.06Z"/>
    <polygon class="cls-2" points="300.7 475.89 300.86 475.99 300.75 475.83 300.7 475.89"/>
    <path class="cls-2" d="m509.22,224.69l-.06-.06.06.06Z"/>
    <path class="cls-2" d="m552.86,311.99l-.06-.06.06.06Z"/>
    <polygon class="cls-2" points="577.84 401.94 577.97 401.76 577.79 401.89 577.84 401.94"/>
    <path class="cls-2" d="m584.06,401.98l-.06-.06.06.06Z"/>
    <path class="cls-2" d="m577.79,401.89l-.92.92.05.06c.31-.31.61-.62.92-.93l-.05-.05Z"/>
    <path class="cls-2" d="m410.68,299.1c1.46,1.9,1.63,3.83.98,6.08-2.21.43-4.08-.5-6.09-.87-.44-2,.54-3.28,1.61-4.48.84-.94,1.9-1.41,3.5-.72Z"/>
    <path class="cls-2" d="m269.08,371.15c2.9,1.79,4.7,4.42,5.99,7.41,2.58.78,5.49.55,7.32,3.15-1.52,3.85-2.99,7.7-4.58,11.5-.45,1.07-1.19,2.05-1.93,2.96-3.34,4.08-10.06,3.91-13.42.2-1.32-1.46-2.21-3.14-2.91-4.94-1.23-3.17-2.43-6.35-3.66-9.56.21-1.18,1.21-1.63,2.17-1.96,1.53-.53,3.11-.89,4.95-1.39,1.38-2.72,3.21-5.37,6.07-7.37Z"/>
    <path class="cls-2" d="m483.38,457.43c-.63-18.4,15.62-34.82,34.12-34.07,16.41-.8,33.97,12.77,34.07,33.74.09,20.6-15.93,34.66-34.43,34.44-20.79-.25-34.39-17.31-33.76-34.11Zm66.12.06c.47-16.68-13.18-32.25-31.96-32.47-17.57-.2-32.3,14.56-32.45,32.16-.14,16.8,13.55,32.43,32.57,32.32,18.41-.1,32.35-15.66,31.83-32.02Z"/>
    <path class="cls-2" d="m511.28,463.12c.74,2.61-.6,4.34-1.65,5.99-1.98,3.11-4.02,6.27-7.92,7.08-1.43-.17-2.44-.75-2.88-1.98-.42-1.19-.12-2.33.52-3.39,1.09-1.81,2.58-3.24,4.3-4.42,2.17-1.51,4.34-3.07,7.63-3.27Z"/>
    <path class="cls-2" d="m508.81,457.51c-.46.41-.9,1-1.49,1.3-3.67,1.87-7.61,2.28-11.65,1.83-.71-.08-1.44-.36-2.07-.7-2.06-1.13-2.13-3.83-.12-5.08.73-.46,1.61-.86,2.45-.95,4.37-.47,8.54.21,12.32,2.6.21.13.28.49.55,1Z"/>
    <path class="cls-2" d="m517.29,431.88c1.77.25,2.84,1.13,3.1,2.51.95,5.06.59,9.93-2.67,14.54-.64-.48-1.25-.71-1.48-1.14-1.86-3.47-2.61-7.22-2.32-11.11.09-1.25.68-2.57,1.36-3.64.41-.63,1.45-.86,2.01-1.16Z"/>
    <path class="cls-2" d="m511.12,451.64c-1.16-.32-2.18-.48-3.1-.87-3.34-1.4-6.13-3.56-8.36-6.41-1.33-1.69-1.37-3.72-.27-4.88,1.13-1.19,3.23-1.29,4.87-.02,3.6,2.79,6.14,6.35,7.31,10.8.06.23-.16.54-.45,1.37Z"/>
    <path class="cls-2" d="m523.72,451.68c-.05-1.25-.3-2.03-.08-2.64,1.36-3.85,3.49-7.17,6.9-9.55,1-.7,2.1-1.12,3.35-.83,1.26.29,2.05,1.11,2.51,2.57-.23,1.96-1.29,3.74-2.9,5.09-2.7,2.27-5.5,4.46-9.78,5.36Z"/>
    <path class="cls-2" d="m524.25,463.23c3.15.35,5.64,2.25,8.09,4.15,2.23,1.73,2.8,2.67,4.04,5.74-.24,1.6-1.21,2.59-3.03,3.16-.48-.14-1.27-.19-1.87-.56-3.81-2.34-6.39-5.7-7.82-9.92-.28-.83-.39-1.76.59-2.57Z"/>
    <path class="cls-2" d="m526.29,457.26c.26-.46.3-.63.4-.7,3.89-2.54,8.2-3.12,12.7-2.6.69.08,1.4.48,1.99.9,2.07,1.47,1.74,4.35-.58,5.37-.27.12-.55.24-.84.28-4.5.69-8.84.31-12.84-2.05-.33-.2-.49-.69-.83-1.2Z"/>
    <path class="cls-2" d="m517.45,465.68c2.04,2.03,2.63,4.37,2.99,6.67.34,2.17.27,4.42.21,6.62-.02.83-.38,1.75-.84,2.46-1.13,1.78-3.82,1.75-4.8-.11-.6-1.14-1.05-2.49-1.12-3.77-.2-3.75.6-7.34,2.33-10.69.19-.36.6-.6,1.22-1.19Z"/>
    <path class="cls-2" d="m512.08,454.84c1.73-.3,2.35-1.69,2.92-2.84,1.57.21,2.99.4,4.58.61.82.74,1.8,1.62,2.92,2.63v3.74c-1.18,1.18-2.22,2.21-3.5,3.49h-3.83c-.84-1-1.68-2.01-2.51-2.99-.18-1.41-.36-2.83-.58-4.64Z"/>
    <path class="cls-2" d="m494.95,474.94c-3.64-4.51-5.42-8.79-5.81-14.27,3.63,3.8,8.21,2.81,13.02,2.97-3.64,3.32-7,6.4-7.26,11.35l.05-.05Z"/>
    <path class="cls-2" d="m540.27,474.36c-2.23-5.64-2.35-5.82-6.88-10.25.63-.92,1.57-.43,2.35-.46,5.99-.19,4.3.15,9.58-2.17.53,1.71-.2,3.21-.66,4.69-.91,2.97-2.18,5.76-4.39,8.19Z"/>
    <path class="cls-2" d="m535.06,434.84q-4.5.89-11.03,6.45c-.63-1.31-.18-2.62-.3-3.85-.15-1.47-.15-2.98-.53-4.39-.34-1.25-1.11-2.39-1.7-3.6,4.51-.07,8.73,1.64,13.5,5.45l.06-.06Z"/>
    <path class="cls-2" d="m521.22,485.33c2.81-3.84,2.84-7.93,2.52-12.73,3.12,3.59,6.06,6.42,10.3,7.12.31,1.07-.53,1.29-1.06,1.66-2.8,1.96-5.89,3.28-9.25,3.94-.67.13-1.39.02-2.51.02Z"/>
    <path class="cls-2" d="m510.62,473.58c.35,4.19.27,8.06,2.71,11.52-2.01.69-3.51-.21-4.99-.61-3.04-.83-5.6-2.38-7.91-4.41,1.82-.82,3.78-1.47,5.48-2.54,1.59-.99,2.91-2.41,4.71-3.95Z"/>
    <path class="cls-2" d="m502.08,450.88c-.89,0-1.78-.02-2.67-.03-4.68-.06-6.01.3-10.29,2.9-.3-2.09.52-3.85,1.13-5.58.93-2.63,1.91-5.27,4.11-7.46,1.16,2.07,2.05,4.08,3.33,5.8,1.23,1.64,2.88,2.96,4.34,4.43l.05-.05Z"/>
    <path class="cls-2" d="m510.99,441.98c-.79-.88-1.54-1.8-2.37-2.63-1.68-1.69-3.54-3.14-5.87-3.88-.64-.21-1.23-.61-2.13-1.08,3.9-3.32,8.21-4.6,12.67-5.45.73.78.04,1.14-.26,1.54-1.49,1.98-2.02,4.26-2.08,6.67-.04,1.63-.01,3.26-.01,4.89l.05-.05Z"/>
    <path class="cls-2" d="m540.26,439.91c2.08,3.03,3.68,5.95,4.61,9.21.35,1.22,1.05,2.45.3,3.8-1.83-.63-3.57-1.44-5.4-1.82-1.84-.38-3.76-.33-6.1-.5,1.54-1.81,3.04-3.22,4.1-4.91.99-1.58,1.51-3.45,2.49-5.78Z"/>
    <polygon class="cls-2" points="494.9 474.99 495.06 475.1 494.95 474.94 494.9 474.99"/>
    <path class="cls-2" d="m510.93,442.03l.05-.05-.05.05Z"/>
    <path class="cls-2" d="m535,434.9l.06-.06-.06.06Z"/>
    <polygon class="cls-2" points="502.03 450.93 502.19 451.04 502.08 450.88 502.03 450.93"/>
  </g>
</svg>