<svg width="11" height="11" viewBox="0 0 11 11" fill="none" xmlns="http://www.w3.org/2000/svg">
<g clip-path="url(#clip0_5588_3306)">
<path d="M7.54652 7.12985L7.80372 6.87434L7.2064 6.27419L6.95032 6.5297L7.54652 7.12985ZM8.66616 6.76717L9.74405 7.35322L10.1474 6.6098L9.07002 6.02431L8.66616 6.76717ZM9.95106 8.51741L9.15011 9.31442L9.74631 9.914L10.5473 9.11756L9.95106 8.51741ZM8.66164 9.57049C7.84377 9.64721 5.72859 9.57896 3.43742 7.30132L2.84065 7.90091C5.34052 10.3867 7.72024 10.5085 8.74061 10.4132L8.66164 9.57049ZM3.43742 7.30132C1.25398 5.12973 0.89186 3.3039 0.846736 2.51141L0.00178997 2.55936C0.0581949 3.5566 0.506615 5.58041 2.84065 7.90091L3.43742 7.30132ZM4.21298 3.8155L4.37487 3.65418L3.77923 3.05459L3.61735 3.21535L4.21298 3.8155ZM4.50347 1.60386L3.79277 0.654L3.11534 1.16164L3.82605 2.11094L4.50347 1.60386ZM1.40063 0.446993L0.515075 1.32691L1.11184 1.92706L1.99683 1.04714L1.40063 0.446993ZM3.91517 3.51542C3.61622 3.21535 3.61622 3.21535 3.61622 3.21648H3.61509L3.6134 3.21873C3.58659 3.24576 3.56259 3.27543 3.54177 3.30729C3.51131 3.35241 3.47803 3.41164 3.44983 3.48666C3.38117 3.68031 3.36406 3.88849 3.40019 4.09075C3.47577 4.57866 3.81195 5.22336 4.67269 6.07959L5.26945 5.47944C4.46342 4.67849 4.27165 4.19115 4.23611 3.96102C4.21919 3.8516 4.23667 3.79745 4.24175 3.78504C4.24514 3.77752 4.24514 3.77639 4.24175 3.78165C4.23672 3.78944 4.23106 3.7968 4.22483 3.80365L4.21919 3.80929L4.21355 3.81437L3.91517 3.51542ZM4.67269 6.07959C5.53399 6.93582 6.18208 7.26974 6.67055 7.34419C6.92042 7.38255 7.12179 7.35209 7.27465 7.29512C7.36027 7.2638 7.44027 7.21885 7.51155 7.162L7.53975 7.13662L7.5437 7.13324L7.54539 7.13154L7.54595 7.13042C7.54595 7.13042 7.54652 7.12985 7.24814 6.82978C6.94919 6.5297 6.95088 6.52914 6.95088 6.52914L6.95201 6.52801L6.95314 6.52688L6.95652 6.52406L6.96216 6.51842L6.9836 6.5015C6.98886 6.49812 6.98754 6.49849 6.97965 6.50263C6.96555 6.50771 6.91027 6.52519 6.79915 6.50827C6.56564 6.47217 6.07491 6.28039 5.26945 5.47944L4.67269 6.07959ZM3.79277 0.653435C3.21744 -0.113672 2.08708 -0.235507 1.40063 0.446993L1.99683 1.04714C2.29691 0.74876 2.82937 0.779782 3.11534 1.16164L3.79277 0.653435ZM0.8473 2.51198C0.836019 2.31682 0.925703 2.11263 1.11184 1.92762L0.514511 1.32747C0.211617 1.62868 -0.0269766 2.0551 0.00178997 2.55936L0.8473 2.51198ZM9.15011 9.31442C8.99556 9.46897 8.8286 9.55583 8.66221 9.57106L8.74061 10.4132C9.15519 10.3743 9.49418 10.1656 9.74688 9.91456L9.15011 9.31442ZM4.37487 3.65418C4.93046 3.10197 4.97163 2.22939 4.50403 1.60442L3.82661 2.1115C4.05392 2.41553 4.02008 2.81431 3.77867 3.05516L4.37487 3.65418ZM9.74462 7.35378C10.2054 7.60422 10.2771 8.19421 9.95162 8.51798L10.5484 9.11756C11.3042 8.36569 11.0713 7.1118 10.1479 6.61036L9.74462 7.35378ZM7.80372 6.8749C8.02032 6.65943 8.3689 6.60641 8.66672 6.76773L9.07058 6.02488C8.45915 5.69209 7.70107 5.78403 7.20696 6.27475L7.80372 6.8749Z" fill="#5B5B5B"/>
<path d="M4 2L2.5 0.5H2L0.5 2V3.5L2.5 7L6.5 10H9L10.5 8.5V7.5L9 6.5H8L7.5 7H6.5L4.5 5.5L4 3.5V2Z" fill="#5B5B5B"/>
</g>
<defs>
<clipPath id="clip0_5588_3306">
<rect width="11" height="11" fill="white"/>
</clipPath>
</defs>
</svg>
