<svg width="20" height="20" viewBox="0 0 20 20" fill="white" xmlns="http://www.w3.org/2000/svg">
<g clip-path="url(#clip0_4420_784)">
<path d="M9.9999 0.400391C4.6979 0.400391 0.399902 4.69839 0.399902 10.0004C0.399902 15.3024 4.6979 19.6004 9.9999 19.6004C15.3019 19.6004 19.5999 15.3024 19.5999 10.0004C19.5999 4.69839 15.3019 0.400391 9.9999 0.400391ZM13.6919 11.2314C13.6919 11.2314 14.5409 12.0694 14.7499 12.4584C14.7559 12.4664 14.7589 12.4744 14.7609 12.4784C14.8459 12.6214 14.8659 12.7324 14.8239 12.8154C14.7539 12.9534 14.5139 13.0214 14.4319 13.0274H12.9319C12.8279 13.0274 12.6099 13.0004 12.3459 12.8184C12.1429 12.6764 11.9429 12.4434 11.7479 12.2164C11.4569 11.8784 11.2049 11.5864 10.9509 11.5864C10.9186 11.5863 10.8866 11.5914 10.8559 11.6014C10.6639 11.6634 10.4179 11.9374 10.4179 12.6674C10.4179 12.8954 10.2379 13.0264 10.1109 13.0264H9.4239C9.1899 13.0264 7.9709 12.9444 6.8909 11.8054C5.5689 10.4104 4.3789 7.61239 4.3689 7.58639C4.2939 7.40539 4.4489 7.30839 4.6179 7.30839H6.1329C6.3349 7.30839 6.4009 7.43139 6.4469 7.54039C6.5009 7.66739 6.6989 8.17239 7.0239 8.74039C7.5509 9.66639 7.8739 10.0424 8.1329 10.0424C8.18147 10.0418 8.22917 10.0295 8.2719 10.0064C8.6099 9.81839 8.5469 8.61339 8.5319 8.36339C8.5319 8.31639 8.5309 7.82439 8.3579 7.58839C8.2339 7.41739 8.0229 7.35239 7.8949 7.32839C7.94671 7.2569 8.01497 7.19894 8.0939 7.15939C8.3259 7.04339 8.7439 7.02639 9.1589 7.02639H9.3899C9.8399 7.03239 9.9559 7.06139 10.1189 7.10239C10.4489 7.18139 10.4559 7.39439 10.4269 8.12339C10.4179 8.33039 10.4089 8.56439 10.4089 8.84039C10.4089 8.90039 10.4059 8.96439 10.4059 9.03239C10.3959 9.40339 10.3839 9.82439 10.6459 9.99739C10.6801 10.0188 10.7196 10.0303 10.7599 10.0304C10.8509 10.0304 11.1249 10.0304 11.8669 8.75739C12.0957 8.34765 12.2946 7.92187 12.4619 7.48339C12.4769 7.45739 12.5209 7.37739 12.5729 7.34639C12.6113 7.32683 12.6538 7.31687 12.6969 7.31739H14.4779C14.6719 7.31739 14.8049 7.34639 14.8299 7.42139C14.8739 7.54039 14.8219 7.90339 14.0089 9.00439L13.6459 9.48339C12.9089 10.4494 12.9089 10.4984 13.6919 11.2314Z" fill="white"/>
</g>
<defs>
<clipPath id="clip0_4420_784">
<rect width="20" height="20" fill="white"/>
</clipPath>
</defs>
</svg>
