<svg width="20" height="20" viewBox="0 0 20 20" fill="none" xmlns="http://www.w3.org/2000/svg">
<g clip-path="url(#clip0_4545_2548)">
<path d="M10.0004 0.400391C4.69839 0.400391 0.400391 4.69839 0.400391 10.0004C0.400391 15.3024 4.69839 19.6004 10.0004 19.6004C15.3024 19.6004 19.6004 15.3024 19.6004 10.0004C19.6004 4.69839 15.3024 0.400391 10.0004 0.400391ZM13.6924 11.2314C13.6924 11.2314 14.5414 12.0694 14.7504 12.4584C14.7564 12.4664 14.7594 12.4744 14.7614 12.4784C14.8464 12.6214 14.8664 12.7324 14.8244 12.8154C14.7544 12.9534 14.5144 13.0214 14.4324 13.0274H12.9324C12.8284 13.0274 12.6104 13.0004 12.3464 12.8184C12.1434 12.6764 11.9434 12.4434 11.7484 12.2164C11.4574 11.8784 11.2054 11.5864 10.9514 11.5864C10.9191 11.5863 10.8871 11.5914 10.8564 11.6014C10.6644 11.6634 10.4184 11.9374 10.4184 12.6674C10.4184 12.8954 10.2384 13.0264 10.1114 13.0264H9.42439C9.19039 13.0264 7.97139 12.9444 6.89139 11.8054C5.56939 10.4104 4.37939 7.61239 4.36939 7.58639C4.29439 7.40539 4.44939 7.30839 4.61839 7.30839H6.13339C6.33539 7.30839 6.40139 7.43139 6.44739 7.54039C6.50139 7.66739 6.69939 8.17239 7.02439 8.74039C7.55139 9.66639 7.87439 10.0424 8.13339 10.0424C8.18196 10.0418 8.22965 10.0295 8.27239 10.0064C8.61039 9.81839 8.54739 8.61339 8.53239 8.36339C8.53239 8.31639 8.53139 7.82439 8.35839 7.58839C8.23439 7.41739 8.02339 7.35239 7.89539 7.32839C7.9472 7.2569 8.01545 7.19894 8.09439 7.15939C8.32639 7.04339 8.74439 7.02639 9.15939 7.02639H9.39039C9.84039 7.03239 9.95639 7.06139 10.1194 7.10239C10.4494 7.18139 10.4564 7.39439 10.4274 8.12339C10.4184 8.33039 10.4094 8.56439 10.4094 8.84039C10.4094 8.90039 10.4064 8.96439 10.4064 9.03239C10.3964 9.40339 10.3844 9.82439 10.6464 9.99739C10.6806 10.0188 10.7201 10.0303 10.7604 10.0304C10.8514 10.0304 11.1254 10.0304 11.8674 8.75739C12.0962 8.34765 12.2951 7.92187 12.4624 7.48339C12.4774 7.45739 12.5214 7.37739 12.5734 7.34639C12.6118 7.32683 12.6543 7.31687 12.6974 7.31739H14.4784C14.6724 7.31739 14.8054 7.34639 14.8304 7.42139C14.8744 7.54039 14.8224 7.90339 14.0094 9.00439L13.6464 9.48339C12.9094 10.4494 12.9094 10.4984 13.6924 11.2314Z" fill="#272727"/>
</g>
<defs>
<clipPath id="clip0_4545_2548">
<rect width="20" height="20" fill="white"/>
</clipPath>
</defs>
</svg>
