<svg width="11" height="11" viewBox="0 0 11 11" fill="none" xmlns="http://www.w3.org/2000/svg">
<g clip-path="url(#clip0_5574_3578)">
<path d="M5.5 0C4.04131 0 2.64236 0.579463 1.61091 1.61091C0.579463 2.64236 0 4.04131 0 5.5C0 6.95869 0.579463 8.35764 1.61091 9.38909C2.64236 10.4205 4.04131 11 5.5 11C6.95869 11 8.35764 10.4205 9.38909 9.38909C10.4205 8.35764 11 6.95869 11 5.5C11 4.04131 10.4205 2.64236 9.38909 1.61091C8.35764 0.579463 6.95869 0 5.5 0ZM0.678333 5.91556H2.21222C2.23667 6.47167 2.31428 7.02411 2.44444 7.56556H1.12444C0.878787 7.04647 0.727717 6.48771 0.678333 5.91556ZM5.91556 2.61556V0.727222C6.50447 0.951026 6.98839 1.38699 7.27222 1.94944C7.3977 2.1617 7.5077 2.3817 7.60222 2.60944L5.91556 2.61556ZM7.88333 3.44056C8.02511 3.98017 8.10944 4.53322 8.13389 5.09056H5.91556V3.44056H7.88333ZM5.08444 0.727222V2.61556H3.39778C3.49199 2.38801 3.60227 2.16745 3.72778 1.95556C4.0104 1.3908 4.49447 0.952515 5.08444 0.727222ZM5.08444 3.44056V5.09056H2.87222C2.89667 4.53322 2.981 3.98017 3.12278 3.44056H5.08444ZM2.21222 5.08444H0.678333C0.727717 4.51229 0.878787 3.95353 1.12444 3.43444H2.44444C2.31354 3.97558 2.23576 4.5282 2.21222 5.08444ZM2.87222 5.91556H5.08444V7.56556H3.12278C2.98156 7.02588 2.89758 6.47283 2.87222 5.91556ZM5.09056 8.36V10.2483C4.50164 10.0245 4.01772 9.58856 3.73389 9.02611C3.60838 8.81421 3.4981 8.59366 3.40389 8.36611L5.09056 8.36ZM5.91556 10.2483V8.39056H7.60222C7.50801 8.6181 7.39773 8.83866 7.27222 9.05056C6.98839 9.61301 6.50447 10.049 5.91556 10.2728V10.2483ZM5.91556 7.535V5.885H8.12778C8.10242 6.44227 8.01844 6.99532 7.87722 7.535H5.91556ZM8.79389 5.885H10.3278C10.2784 6.45716 10.1273 7.01591 9.88167 7.535H8.55556C8.68389 7.00333 8.7615 6.46128 8.78778 5.91556L8.79389 5.885ZM8.79389 5.06C8.76639 4.51381 8.68658 3.97151 8.55556 3.44056H9.87556C10.1218 3.96 10.2728 4.51856 10.3217 5.09056L8.79389 5.06ZM9.405 2.61556H8.31111C8.11338 2.05954 7.82649 1.53941 7.46167 1.07556C8.22212 1.41691 8.88267 1.94703 9.38056 2.61556H9.405ZM3.53833 1.07556C3.17351 1.53941 2.88662 2.05954 2.68889 2.61556H1.61944C2.11733 1.94703 2.77788 1.41691 3.53833 1.07556ZM1.61333 8.40889H2.68889C2.88662 8.96491 3.17351 9.48504 3.53833 9.94889C2.77577 9.6024 2.11502 9.0658 1.61944 8.39056L1.61333 8.40889ZM7.45556 9.94889C7.82037 9.48504 8.10727 8.96491 8.305 8.40889H9.38056C8.87963 9.06846 8.21935 9.58995 7.46167 9.92444L7.45556 9.94889Z" fill="#5B5B5B"/>
</g>
<defs>
<clipPath id="clip0_5574_3578">
<rect width="11" height="11" fill="white"/>
</clipPath>
</defs>
</svg>
