<svg width="129" height="45" viewBox="0 0 129 45" fill="none" xmlns="http://www.w3.org/2000/svg">
<path d="M0.16 45V0.199997H9.76V17.8H16.16L28.32 0.199997H39.2L24.48 21.64L40.16 45H28.96L16.48 26.76H9.76V45H0.16ZM44.0725 45V0.199997H78.9525V9.16H53.6725V16.2H65.5125C70.6752 16.2 74.7285 17.544 77.6725 20.232C80.6592 22.8773 82.1525 26.3333 82.1525 30.6C82.1525 34.8667 80.6592 38.344 77.6725 41.032C74.7285 43.6773 70.6752 45 65.5125 45H44.0725ZM53.6725 36.04H65.1925C67.5392 36.04 69.2885 35.5707 70.4405 34.632C71.6352 33.6507 72.2325 32.3067 72.2325 30.6C72.2325 28.8933 71.6352 27.5707 70.4405 26.632C69.2885 25.6507 67.5392 25.16 65.1925 25.16H53.6725V36.04ZM84.52 45L96.36 0.199997H116.52L128.36 45H118.44L115.88 35.08H97L94.44 45H84.52ZM99.24 26.12H113.64L109.16 9.16H103.72L99.24 26.12Z" fill="#272727"/>
</svg>
