<svg width="46" height="40" viewBox="0 0 46 40" fill="none" xmlns="http://www.w3.org/2000/svg">
<path d="M0.508428 33.2228H29.4739C29.6508 33.2228 29.7392 33.1034 29.7657 33.0548C29.7967 33.0018 29.8541 32.8691 29.7657 32.7144L26.5341 27.122H12.2502C11.8833 27.122 11.5518 26.9319 11.3705 26.6136C11.1848 26.2953 11.1848 25.9151 11.3705 25.5968L25.8533 0.5084C25.9461 0.349248 26.0743 0.221043 26.2246 0.137047C26.0168 0.0486295 25.7869 0 25.5615 0H20.084C19.4784 0 18.9169 0.322723 18.6163 0.848806L0.21223 32.7144L0.198968 32.7365C0.128234 32.8824 0.190126 33.0106 0.221072 33.0592C0.252018 33.1079 0.340435 33.2184 0.508428 33.2184V33.2228Z" fill="#00328A"/>
<path d="M42.237 39.6595C42.4138 39.5269 42.5641 39.3589 42.6747 39.1688L45.4244 34.4031C45.7251 33.8815 45.7251 33.2316 45.4244 32.7099L27.0292 0.848747C26.932 0.694017 26.7905 0.676333 26.733 0.680754C26.6756 0.680754 26.5297 0.698438 26.4457 0.848747L11.9585 25.9327C11.8701 26.0875 11.9275 26.2201 11.9585 26.2731C11.9894 26.3262 12.0734 26.4411 12.2503 26.4411H18.7092L25.8533 14.0671C26.0389 13.7488 26.3661 13.5587 26.733 13.5587C27.1 13.5587 27.4315 13.7488 27.6128 14.0671L42.1397 39.2307V39.2396C42.2016 39.3722 42.2326 39.5181 42.2326 39.6595H42.237Z" fill="#00328A"/>
<path d="M41.5164 39.8233C41.5429 39.7747 41.5959 39.642 41.5119 39.4917L27.0292 14.4077C26.9408 14.253 26.7949 14.2397 26.7374 14.2397C26.6799 14.2397 26.5296 14.2574 26.4456 14.4077L23.2184 20.0001L30.3625 32.3741C30.5482 32.6924 30.5482 33.0726 30.3625 33.3909C30.1768 33.7092 29.8497 33.8993 29.4828 33.8993H0.5084C0.327144 33.8993 0.150309 33.8507 0 33.7623C0.0265252 33.9878 0.10168 34.2088 0.216622 34.4077L2.95756 39.1557C3.05924 39.3326 3.19187 39.4917 3.35102 39.6199C3.37754 39.642 3.40849 39.6641 3.43943 39.6863C3.47038 39.7084 3.50133 39.7305 3.53227 39.7481C3.80194 39.9161 4.11141 40.0046 4.42529 40.0046H41.2467C41.4103 39.9913 41.4898 39.8763 41.5164 39.8277V39.8233Z" fill="#00328A"/>
</svg>
