<svg width="46" height="48" viewBox="0 0 46 48" fill="none" xmlns="http://www.w3.org/2000/svg">
<path d="M0.038 34.4454C0.0253333 34.4454 0.0126667 34.4454 0 34.4454C0.006 34.4567 0.0126667 34.4681 0.0186667 34.4794L2.804 39.3014C3.05333 39.7334 3.518 40.0014 4.01667 40.0014H41.4147C41.4233 40.0014 41.4273 40.0014 41.434 39.9907C41.4407 39.9794 41.438 39.9747 41.434 39.9674L26.714 14.4794C26.71 14.4727 26.708 14.4688 26.6947 14.4688C26.6813 14.4688 26.6793 14.4727 26.6753 14.4801L23.486 20.0021L30.654 32.4127C30.8993 32.8374 30.8993 33.3441 30.654 33.7687C30.4087 34.1934 29.9693 34.4467 29.4793 34.4467H0.038V34.4454Z" fill="#00328A"/>
<path d="M42.608 39.3341C42.6147 39.3234 42.6214 39.3121 42.628 39.3008L45.4127 34.4781C45.662 34.0468 45.662 33.5101 45.4127 33.0781L26.714 0.700786C26.71 0.693453 26.7074 0.689453 26.6947 0.689453C26.6814 0.689453 26.6794 0.693453 26.6747 0.700786L11.9547 26.1888C11.9507 26.1955 11.9487 26.1995 11.9547 26.2108C11.9614 26.2221 11.966 26.2221 11.974 26.2221H18.352L25.52 13.8115C25.7654 13.3868 26.204 13.1335 26.6947 13.1335C27.1854 13.1335 27.624 13.3868 27.8694 13.8115L42.59 39.3001C42.5967 39.3114 42.6027 39.3221 42.6087 39.3335L42.608 39.3341Z" fill="#00328A"/>
<path d="M29.4794 33.1116C29.4867 33.1116 29.492 33.1116 29.4987 33.1003C29.5054 33.089 29.5027 33.0843 29.4987 33.0776L26.3094 27.5563H18.7374H11.974C11.4834 27.5563 11.0447 27.303 10.7994 26.8783C10.554 26.4536 10.5547 25.947 10.7994 25.523L25.52 0.0336432C25.5267 0.0223099 25.5327 0.0116432 25.5394 0.000976562C25.5267 0.000976562 25.5134 0.000976562 25.5007 0.000976562H19.9307C19.9307 0.000976562 19.9307 0.000976562 19.93 0.000976562C19.4314 0.000976562 18.9674 0.268977 18.718 0.700977L0.0187091 33.0776C0.0147091 33.085 0.0120424 33.089 0.0187091 33.1003C0.0253758 33.1116 0.0300424 33.1116 0.0387091 33.1116H29.4794Z" fill="#00328A"/>
</svg>
