<svg width="207" height="39" viewBox="0 0 207 39" fill="none" xmlns="http://www.w3.org/2000/svg">
<g clip-path="url(#clip0_5389_410)">
<path d="M53.6926 8.85725H50.5257V0.185547H52.6041V6.31757H52.9257L55.5228 0.185547H58.702V8.85725H56.6236V2.72523H56.302L53.6919 8.85725H53.6926Z" fill="white"/>
<path d="M66.1358 3.50553V0.185547H68.2386V8.85725H66.1358V5.48758H62.6602V8.85725H60.5573V0.185547H62.6602V3.50553H66.1358Z" fill="white"/>
<path d="M75.8955 4.28583C76.3653 4.40974 76.7384 4.64725 77.0149 4.99836C77.2914 5.34946 77.4293 5.78059 77.4293 6.29305C77.4293 7.07786 77.147 7.70133 76.5818 8.16344C76.0166 8.62619 75.2149 8.85725 74.1761 8.85725H70.0941V0.185547H74.3494C74.9262 0.185547 75.4276 0.280422 75.8523 0.470172C76.277 0.660567 76.6025 0.924539 76.8293 1.26338C77.0562 1.60222 77.1696 1.98624 77.1696 2.41543C77.1696 2.84463 77.0581 3.21638 76.8358 3.5307C76.6128 3.84437 76.2996 4.07542 75.8955 4.22451V4.28647V4.28583ZM72.1351 1.8578V3.66623H74.0278C74.3662 3.66623 74.6298 3.58814 74.8192 3.43066C75.0087 3.27382 75.1034 3.05116 75.1034 2.76137C75.1034 2.47158 75.0106 2.23924 74.825 2.08627C74.6394 1.93331 74.3733 1.85715 74.0272 1.85715H72.1344L72.1351 1.8578ZM74.0156 7.18435C74.428 7.18435 74.7471 7.09787 74.9739 6.92425C75.2008 6.75064 75.3142 6.49506 75.3142 6.15622C75.3142 5.48758 74.8811 5.15261 74.0156 5.15261H72.1351V7.18435H74.0156Z" fill="white"/>
<path d="M80.9545 5.38818V6.93652H85.4077V8.85661H78.8516V0.185547H85.3459V2.10564H80.9545V3.53005H84.6653V5.38818H80.9545Z" fill="white"/>
<path d="M88.4257 8.44824C87.7162 8.05196 87.16 7.50917 86.7559 6.81923C86.3519 6.12993 86.1501 5.36383 86.1501 4.52157C86.1501 3.67931 86.3519 2.91322 86.7559 2.22392C87.16 1.53462 87.7168 0.99119 88.4257 0.594909C89.1346 0.198629 89.9228 0.000488281 90.7883 0.000488281C91.5552 0.000488281 92.2461 0.143123 92.8603 0.427749C93.4744 0.712373 93.9797 1.10285 94.3754 1.59852C94.7711 2.09419 95.0437 2.6557 95.1919 3.28303H92.9408C92.5284 2.41561 91.8111 1.98254 90.7883 1.98254C90.3185 1.98254 89.8957 2.08967 89.5207 2.3046C89.1456 2.51952 88.8504 2.81899 88.6365 3.203C88.4219 3.58702 88.3149 4.02654 88.3149 4.52222C88.3149 5.01789 88.4219 5.45741 88.6365 5.84143C88.8511 6.22545 89.1456 6.52492 89.5207 6.73984C89.8957 6.95476 90.3185 7.0619 90.7883 7.0619C91.8601 7.0619 92.5986 6.56623 93.0027 5.57552H95.2538C95.0972 6.26095 94.8149 6.86569 94.4063 7.39041C93.9984 7.91513 93.4847 8.32174 92.8661 8.61023C92.2474 8.89938 91.5546 9.04395 90.7877 9.04395C89.9222 9.04395 89.134 8.84581 88.4251 8.44953L88.4257 8.44824Z" fill="white"/>
<path d="M100.202 8.85725H98.0991V2.1676H95.4149V0.185547H102.886V2.1676H100.202V8.85725Z" fill="white"/>
<path d="M107.265 8.85725H104.098V0.185547H106.177V6.31757H106.498L109.096 0.185547H112.275V8.85725H110.197V2.72523H109.875L107.265 8.85725Z" fill="white"/>
<path d="M122.665 10.6534H120.649V8.85725H114.13V0.185547H116.233V6.8752H119.436V0.185547H121.539V6.8752H122.665V10.6534Z" fill="white"/>
<path d="M127.007 8.85725H123.84V0.185547H125.918V6.31757H126.24L128.838 0.185547H132.017V8.85725H129.939V2.72523H129.617L127.007 8.85725Z" fill="white"/>
<path d="M135.739 8.44824C135.022 8.05196 134.459 7.5111 134.051 6.82568C133.643 6.14026 133.439 5.37222 133.439 4.52157C133.439 3.67092 133.643 2.90289 134.051 2.21747C134.459 1.53204 135.022 0.99119 135.739 0.594909C136.457 0.198629 137.253 0.000488281 138.127 0.000488281C139 0.000488281 139.796 0.198629 140.514 0.594909C141.231 0.99119 141.794 1.53269 142.202 2.21747C142.61 2.90289 142.814 3.67092 142.814 4.52157C142.814 5.37222 142.61 6.14026 142.202 6.82568C141.794 7.5111 141.231 8.05196 140.514 8.44824C139.796 8.84452 139 9.04266 138.127 9.04266C137.253 9.04266 136.457 8.84452 135.739 8.44824ZM139.444 6.73855C139.827 6.52363 140.124 6.22416 140.334 5.84014C140.545 5.45612 140.65 5.0166 140.65 4.52093C140.65 4.02525 140.545 3.58573 140.334 3.20171C140.124 2.8177 139.827 2.51823 139.444 2.3033C139.06 2.08838 138.621 1.98125 138.127 1.98125C137.632 1.98125 137.193 2.08838 136.809 2.3033C136.426 2.51823 136.129 2.8177 135.919 3.20171C135.709 3.58573 135.603 4.02525 135.603 4.52093C135.603 5.0166 135.708 5.45612 135.919 5.84014C136.129 6.22416 136.426 6.52363 136.809 6.73855C137.193 6.95347 137.632 7.06061 138.127 7.06061C138.621 7.06061 139.06 6.95347 139.444 6.73855Z" fill="white"/>
<path d="M149.816 3.50553V0.185547H151.919V8.85725H149.816V5.48758H146.341V8.85725H144.238V0.185547H146.341V3.50553H149.816Z" fill="white"/>
<path d="M159.353 3.50553V0.185547H161.456V8.85725H159.353V5.48758H155.878V8.85725H153.775V0.185547H155.878V3.50553H159.353Z" fill="white"/>
<path d="M165.18 8.44824C164.462 8.05196 163.899 7.5111 163.491 6.82568C163.083 6.14026 162.879 5.37222 162.879 4.52157C162.879 3.67092 163.083 2.90289 163.491 2.21747C163.899 1.53204 164.462 0.99119 165.18 0.594909C165.897 0.198629 166.693 0.000488281 167.567 0.000488281C168.441 0.000488281 169.237 0.198629 169.954 0.594909C170.671 0.99119 171.234 1.53269 171.642 2.21747C172.05 2.90289 172.255 3.67092 172.255 4.52157C172.255 5.37222 172.05 6.14026 171.642 6.82568C171.234 7.5111 170.671 8.05196 169.954 8.44824C169.237 8.84452 168.441 9.04266 167.567 9.04266C166.693 9.04266 165.897 8.84452 165.18 8.44824ZM168.884 6.73855C169.267 6.52363 169.565 6.22416 169.775 5.84014C169.985 5.45612 170.09 5.0166 170.09 4.52093C170.09 4.02525 169.985 3.58573 169.775 3.20171C169.565 2.8177 169.267 2.51823 168.884 2.3033C168.501 2.08838 168.062 1.98125 167.567 1.98125C167.072 1.98125 166.633 2.08838 166.249 2.3033C165.866 2.51823 165.569 2.8177 165.359 3.20171C165.149 3.58573 165.043 4.02525 165.043 4.52093C165.043 5.0166 165.148 5.45612 165.359 5.84014C165.569 6.22416 165.866 6.52363 166.249 6.73855C166.633 6.95347 167.072 7.06061 167.567 7.06061C168.062 7.06061 168.501 6.95347 168.884 6.73855Z" fill="white"/>
<path d="M56.3271 19.1515C56.7969 19.2755 57.1701 19.513 57.4466 19.8641C57.723 20.2152 57.8609 20.6463 57.8609 21.1588C57.8609 21.9436 57.5787 22.567 57.0135 23.0292C56.4483 23.4919 55.6466 23.723 54.6077 23.723H50.5257V15.0513H54.7811C55.3579 15.0513 55.8592 15.1461 56.2839 15.3359C56.7086 15.5263 57.0341 15.7903 57.261 16.1291C57.4878 16.4679 57.6012 16.852 57.6012 17.2812C57.6012 17.7104 57.4897 18.0821 57.2674 18.3964C57.0444 18.7101 56.7312 18.9411 56.3271 19.0902V19.1522V19.1515ZM52.5667 16.7235V18.532H54.4595C54.7978 18.532 55.0614 18.4539 55.2509 18.2964C55.4404 18.1395 55.5351 17.9169 55.5351 17.6271C55.5351 17.3373 55.4423 17.105 55.2567 16.952C55.0711 16.799 54.8049 16.7229 54.4588 16.7229H52.5661L52.5667 16.7235ZM54.4472 22.0501C54.8597 22.0501 55.1787 21.9636 55.4055 21.79C55.6324 21.6164 55.7458 21.3608 55.7458 21.0219C55.7458 20.3533 55.3127 20.0183 54.4472 20.0183H52.5667V22.0501H54.4472Z" fill="white"/>
<path d="M61.3861 20.2541V21.8024H65.8394V23.7225H59.2833V15.0508H65.7775V16.9709H61.3861V18.3953H65.0969V20.2534H61.3861V20.2541Z" fill="white"/>
<path d="M72.8401 18.3708V15.0508H74.943V23.7225H72.8401V20.3528H69.3645V23.7225H67.2617V15.0508H69.3645V18.3708H72.8401Z" fill="white"/>
<path d="M81.8703 15.0508H83.9731V23.7225H81.8703V20.7865C81.5899 20.8859 81.2741 20.9659 80.9242 21.0279C80.5736 21.0899 80.2256 21.1208 79.8789 21.1208C78.8477 21.1208 78.046 20.8214 77.4731 20.2224C76.8995 19.6235 76.6134 18.7961 76.6134 17.7389V15.0508H78.7163V17.5905C78.7163 18.6644 79.2608 19.2008 80.3493 19.2008C80.91 19.2008 81.4172 19.0936 81.8709 18.8787V15.0508H81.8703Z" fill="white"/>
<path d="M89.589 18.9534L91.0854 15.0513H93.2502L89.8854 23.723H87.7452L88.8711 20.8115H87.238L84.8999 15.0513H87.151L88.6481 18.9534H89.5884H89.589Z" fill="white"/>
<path d="M97.802 15.0509C98.4864 15.0509 99.0902 15.1794 99.6142 15.435C100.137 15.6912 100.542 16.0526 100.826 16.5186C101.111 16.9852 101.253 17.528 101.253 18.1476C101.253 18.7672 101.111 19.31 100.826 19.7766C100.542 20.2432 100.137 20.6047 99.6142 20.8603C99.0902 21.1165 98.4864 21.2443 97.802 21.2443H96.2185V23.722H94.1157V15.0503H97.802V15.0509ZM97.6782 19.3868C98.1319 19.3868 98.4864 19.2777 98.7422 19.0583C98.9975 18.8395 99.1257 18.5361 99.1257 18.1476C99.1257 17.7591 98.9975 17.4557 98.7422 17.2369C98.4864 17.0181 98.1319 16.9084 97.6782 16.9084H96.1567V19.3861H97.6782V19.3868Z" fill="white"/>
<path d="M108.069 18.3708V15.0508H110.172V23.7225H108.069V20.3528H104.593V23.7225H102.49V15.0508H104.593V18.3708H108.069Z" fill="white"/>
<path d="M115.59 17.5285C116.266 17.5285 116.866 17.6627 117.39 17.9312C117.914 18.1997 118.322 18.5689 118.614 19.0401C118.907 19.5106 119.053 20.0391 119.053 20.6258C119.053 21.2125 118.907 21.7404 118.614 22.2116C118.322 22.6821 117.913 23.0519 117.39 23.3204C116.866 23.5889 116.266 23.7231 115.59 23.7231H112.027V15.0514H114.13V17.5291H115.59V17.5285ZM115.516 21.8644C115.969 21.8644 116.324 21.7553 116.58 21.5358C116.835 21.317 116.963 21.0137 116.963 20.6252C116.963 20.2366 116.835 19.9333 116.58 19.7145C116.324 19.4957 115.969 19.386 115.516 19.386H114.068V21.8637H115.516V21.8644ZM120.067 23.7225V15.0508H122.17V23.7225H120.067Z" fill="white"/>
<path d="M127.192 23.7222H124.025V15.0505H126.103V21.1826H126.425L129.023 15.0505H132.202V23.7222H130.124V17.5902H129.802L127.192 23.7222ZM126.549 13.812C126.169 13.4241 125.98 12.9323 125.98 12.3379H127.378C127.378 12.6186 127.441 12.8355 127.57 12.9885C127.697 13.1414 127.885 13.2176 128.132 13.2176C128.379 13.2176 128.569 13.1414 128.701 12.9885C128.833 12.8361 128.899 12.6193 128.899 12.3379H130.297C130.297 12.9246 130.106 13.4138 129.721 13.8062C129.338 14.1986 128.808 14.3948 128.132 14.3948C127.456 14.3948 126.928 14.2012 126.549 13.8126V13.812Z" fill="white"/>
<path d="M146.835 21.3254C146.464 21.916 145.944 22.3845 145.277 22.7317C144.608 23.0783 143.854 23.2642 143.013 23.2894V24.2807H140.911V23.2894C140.07 23.2649 139.315 23.079 138.647 22.7317C137.979 22.3852 137.459 21.916 137.089 21.3254C136.718 20.7349 136.532 20.0681 136.532 19.3246C136.532 18.5811 136.718 17.9144 137.089 17.3239C137.46 16.7333 137.98 16.2648 138.647 15.9182C139.315 15.5716 140.07 15.3857 140.911 15.3605V14.4312H143.013V15.3605C143.854 15.3851 144.609 15.5709 145.277 15.9182C145.944 16.2648 146.465 16.734 146.835 17.3239C147.206 17.9144 147.392 18.5811 147.392 19.3246C147.392 20.0681 147.206 20.7349 146.835 21.3254ZM139.283 20.8484C139.7 21.2202 140.258 21.4145 140.96 21.4306V17.2187C140.258 17.2355 139.7 17.4291 139.283 17.8008C138.867 18.1726 138.659 18.6805 138.659 19.3246C138.659 19.9688 138.867 20.4767 139.283 20.8484ZM142.963 21.4306C143.664 21.4145 144.223 21.2202 144.639 20.8484C145.056 20.4767 145.264 19.9688 145.264 19.3246C145.264 18.6805 145.056 18.1726 144.639 17.8008C144.223 17.4291 143.664 17.2355 142.963 17.2187V21.4306Z" fill="white"/>
<path d="M150.558 23.314C149.841 22.9177 149.278 22.3768 148.87 21.6914C148.462 21.006 148.257 20.2379 148.257 19.3873C148.257 18.5366 148.462 17.7686 148.87 17.0832C149.278 16.3978 149.841 15.8569 150.558 15.4606C151.275 15.0644 152.071 14.8662 152.945 14.8662C153.819 14.8662 154.615 15.0644 155.332 15.4606C156.05 15.8569 156.613 16.3984 157.021 17.0832C157.429 17.7686 157.633 18.5366 157.633 19.3873C157.633 20.2379 157.429 21.006 157.021 21.6914C156.613 22.3768 156.05 22.9177 155.332 23.314C154.615 23.7102 153.819 23.9084 152.945 23.9084C152.071 23.9084 151.275 23.7102 150.558 23.314ZM154.263 21.6043C154.646 21.3894 154.943 21.0899 155.153 20.7059C155.363 20.3218 155.468 19.8823 155.468 19.3867C155.468 18.891 155.363 18.4515 155.153 18.0674C154.943 17.6834 154.646 17.3839 154.263 17.169C153.879 16.9541 153.44 16.847 152.945 16.847C152.45 16.847 152.011 16.9541 151.628 17.169C151.245 17.3839 150.947 17.6834 150.737 18.0674C150.527 18.4515 150.422 18.891 150.422 19.3867C150.422 19.8823 150.527 20.3218 150.737 20.7059C150.947 21.0899 151.245 21.3894 151.628 21.6043C152.011 21.8192 152.45 21.9263 152.945 21.9263C153.44 21.9263 153.879 21.8192 154.263 21.6043Z" fill="white"/>
<path d="M164.635 18.3708V15.0508H166.738V23.7225H164.635V20.3528H161.16V23.7225H159.057V15.0508H161.16V18.3708H164.635Z" fill="white"/>
<path d="M174.593 15.0508L176.46 21.8024H177.425V25.5187H175.409V23.7225H169.842V25.5187H167.826V21.8024H168.778L170.646 15.0508H174.592H174.593ZM173.083 16.9709H172.119L170.832 21.8024H174.357L173.083 16.9709Z" fill="white"/>
<path d="M53.6055 29.9165C54.2242 29.9165 54.7682 30.034 55.2386 30.2695C55.7084 30.5051 56.0713 30.831 56.3271 31.248C56.5823 31.6649 56.7106 32.1457 56.7106 32.6911C56.7106 33.2365 56.5823 33.7192 56.3271 34.1407C56.0713 34.5622 55.7084 34.89 55.2386 35.1256C54.7688 35.3612 54.2242 35.4786 53.6055 35.4786H51.3912V38.5882H50.525V29.9165H53.6049H53.6055ZM53.6055 34.6364C54.3061 34.6364 54.8506 34.4628 55.2386 34.1162C55.6259 33.7696 55.8199 33.2946 55.8199 32.6918C55.8199 32.0889 55.6259 31.6165 55.2386 31.2732C54.8506 30.9304 54.3067 30.7594 53.6055 30.7594H51.3912V34.637H53.6055V34.6364Z" fill="white"/>
<path d="M59.2336 34.6119V37.746H64.1818V38.5882H58.3681V29.9165H64.1199V30.7588H59.2336V33.7689H63.4394V34.6112H59.2336V34.6119Z" fill="white"/>
<path d="M67.3422 38.1422C66.6784 37.7543 66.1525 37.2192 65.7652 36.5377C65.3772 35.8561 65.1839 35.0946 65.1839 34.2523C65.1839 33.41 65.3772 32.6478 65.7652 31.9669C66.1525 31.2854 66.6784 30.751 67.3422 30.3624C68.006 29.9745 68.742 29.7803 69.5501 29.7803C70.2429 29.7803 70.8693 29.921 71.4307 30.2017C71.9913 30.4825 72.4553 30.8523 72.822 31.3105C73.1887 31.7688 73.4465 32.2625 73.5954 32.7911H72.6803C72.4573 32.1799 72.0745 31.6662 71.5299 31.2486C70.9853 30.8316 70.3299 30.6232 69.563 30.6232C68.9115 30.6232 68.3198 30.7781 67.7882 31.0879C67.2565 31.3977 66.8376 31.8294 66.5328 32.3826C66.2273 32.9357 66.0752 33.5591 66.0752 34.2529C66.0752 34.9468 66.2279 35.5702 66.5328 36.1233C66.8376 36.6765 67.2565 37.1082 67.7882 37.418C68.3198 37.7278 68.9115 37.8827 69.563 37.8827C70.3544 37.8827 71.0246 37.6659 71.5731 37.2322C72.1215 36.7984 72.503 36.264 72.7176 35.6277H73.6457C73.4807 36.1892 73.2107 36.7055 72.8356 37.176C72.4605 37.6465 71.9926 38.0228 71.4313 38.3035C70.8706 38.5843 70.2436 38.725 69.5508 38.725C68.7426 38.725 68.0066 38.5307 67.3428 38.1428L67.3422 38.1422Z" fill="white"/>
<path d="M76.2918 38.5882H75.4257V29.9165H82.0436V38.5882H81.1781V30.7594H76.2918V38.5882Z" fill="white"/>
<path d="M87.7458 34.4879L89.589 29.9165H90.5041L87.0034 38.5882H86.1005L87.4242 35.2928H85.643L83.4286 29.9165H84.3566L86.212 34.4879H87.7458Z" fill="white"/>
<path d="M95.1429 33.4598C95.7281 33.4598 96.2482 33.5669 96.7013 33.7819C97.155 33.9968 97.5075 34.2982 97.7588 34.6861C98.0102 35.0746 98.1358 35.5206 98.1358 36.024C98.1358 36.5274 98.0102 36.974 97.7588 37.3619C97.5075 37.7505 97.1543 38.0519 96.7013 38.2662C96.2476 38.4811 95.7281 38.5882 95.1429 38.5882H91.7905V29.9165H97.4559V30.7588H92.6566V33.4591H95.1429V33.4598ZM95.1429 37.746C95.7945 37.746 96.3056 37.593 96.6768 37.2877C97.048 36.9824 97.2336 36.561 97.2336 36.024C97.2336 35.487 97.048 35.0662 96.6768 34.7603C96.3056 34.455 95.7945 34.3021 95.1429 34.3021H92.6566V37.746H95.1429Z" fill="white"/>
<path d="M99.7934 38.5882H98.9272L101.364 29.9165H104.036L106.485 38.5882H105.594L103.405 30.722H101.995L99.7928 38.5882H99.7934Z" fill="white"/>
<path d="M109.887 38.5882H108.056V29.9165H108.922V37.7827H109.355L113.264 29.9165H115.107V38.5882H114.241V30.722H113.796L109.887 38.5882Z" fill="white"/>
<path d="M124.273 38.5882H123.197L120.117 34.5744H118.336V38.5882H117.47V29.9165H118.336V33.7444H120.08L122.987 29.9165H124.013L120.798 34.1033L124.273 38.5876V38.5882Z" fill="white"/>
<path d="M127.439 38.5882H125.609V29.9165H126.475V37.7827H126.908L130.816 29.9165H132.66V38.5882H131.793V30.722H131.348L127.439 38.5882Z" fill="white"/>
<path d="M141.145 38.5881H140.278V30.7592H137.334V29.917H144.088V30.7592H141.145V38.5881Z" fill="white"/>
<path d="M151.882 38.5882H150.991L150.187 35.8381H145.759L144.955 38.5882H144.076L146.637 29.9165H149.309L151.881 38.5882H151.882ZM147.268 30.722L146.006 34.9959H149.94L148.678 30.722H147.268Z" fill="white"/>
<path d="M155.679 38.5881H154.813V30.7592H151.869V29.917H158.623V30.7592H155.679V38.5881Z" fill="white"/>
<path d="M166.416 38.5882H165.525L164.721 35.8381H160.293L159.488 38.5882H158.61L161.171 29.9165H163.842L166.415 38.5882H166.416ZM161.802 30.722L160.54 34.9959H164.474L163.212 30.722H161.802Z" fill="white"/>
<path d="M171.067 29.9165C171.686 29.9165 172.229 30.034 172.7 30.2695C173.17 30.5051 173.533 30.831 173.788 31.248C174.044 31.6649 174.172 32.1457 174.172 32.6911C174.172 33.2365 174.044 33.7192 173.788 34.1407C173.533 34.5622 173.17 34.89 172.7 35.1256C172.23 35.3612 171.686 35.4786 171.067 35.4786H168.852V38.5882H167.986V29.9165H171.066H171.067ZM171.067 34.6364C171.767 34.6364 172.312 34.4628 172.7 34.1162C173.087 33.7696 173.281 33.2946 173.281 32.6918C173.281 32.0889 173.087 31.6165 172.7 31.2732C172.312 30.9304 171.768 30.7594 171.067 30.7594H168.852V34.637H171.067V34.6364Z" fill="white"/>
<path d="M177.455 38.1422C176.792 37.7543 176.266 37.2192 175.878 36.5377C175.49 35.8561 175.297 35.0946 175.297 34.2523C175.297 33.41 175.49 32.6478 175.878 31.9669C176.266 31.2854 176.792 30.751 177.455 30.3624C178.119 29.9745 178.855 29.7803 179.663 29.7803C180.356 29.7803 180.982 29.921 181.544 30.2017C182.104 30.4825 182.569 30.8523 182.935 31.3105C183.302 31.7688 183.56 32.2625 183.709 32.7911H182.793C182.57 32.1799 182.188 31.6662 181.643 31.2486C181.098 30.8316 180.443 30.6232 179.676 30.6232C179.025 30.6232 178.433 30.7781 177.901 31.0879C177.37 31.3977 176.951 31.8294 176.646 32.3826C176.34 32.9357 176.188 33.5591 176.188 34.2529C176.188 34.9468 176.341 35.5702 176.646 36.1233C176.951 36.6765 177.37 37.1082 177.901 37.418C178.433 37.7278 179.025 37.8827 179.676 37.8827C180.468 37.8827 181.138 37.6659 181.686 37.2322C182.235 36.7984 182.616 36.264 182.831 35.6277H183.759C183.594 36.1892 183.324 36.7055 182.949 37.176C182.574 37.6465 182.106 38.0228 181.544 38.3035C180.984 38.5843 180.357 38.725 179.664 38.725C178.856 38.725 178.12 38.5307 177.456 38.1428L177.455 38.1422Z" fill="white"/>
<path d="M188.013 38.5881H187.147V30.7592H184.203V29.917H190.957V30.7592H188.013V38.5881Z" fill="white"/>
<path d="M198.75 38.5882H197.859L197.055 35.8381H192.627L191.822 38.5882H190.944L193.504 29.9165H196.176L198.749 38.5882H198.75ZM194.136 30.722L192.874 34.9959H196.808L195.546 30.722H194.136Z" fill="white"/>
<path d="M206.134 33.7689V29.9165H207.001V38.5882H206.134V34.6119H201.186V38.5882H200.32V29.9165H201.186V33.7689H206.134Z" fill="white"/>
<path d="M0.0367342 33.346C0.0244895 33.346 0.0122447 33.346 0 33.346C0.00580014 33.357 0.0122447 33.3679 0.0180449 33.3789L2.7106 38.0472C2.95163 38.4654 3.40082 38.7248 3.88287 38.7248H40.0352C40.0435 38.7248 40.0474 38.7248 40.0539 38.7145C40.0603 38.7035 40.0577 38.699 40.0539 38.6919L25.8242 14.0167C25.8203 14.0102 25.8184 14.0063 25.8055 14.0063C25.7926 14.0063 25.7907 14.0102 25.7868 14.0173L22.7037 19.3632L29.6329 31.3782C29.8701 31.7893 29.8701 32.2798 29.6329 32.6909C29.3958 33.102 28.9711 33.3473 28.4974 33.3473H0.0367342V33.346Z" fill="white"/>
<path d="M41.1887 38.0789C41.1952 38.0686 41.2016 38.0576 41.2081 38.0466L43.9 33.3777C44.141 32.9601 44.141 32.4406 43.9 32.0224L25.8242 0.677476C25.8203 0.670376 25.8177 0.666504 25.8055 0.666504C25.7926 0.666504 25.7907 0.670376 25.7861 0.677476L11.5565 25.3527C11.5526 25.3592 11.5507 25.363 11.5565 25.374C11.5629 25.385 11.5674 25.385 11.5751 25.385H17.7407L24.6699 13.3701C24.9071 12.9589 25.3312 12.7137 25.8055 12.7137C26.2798 12.7137 26.7039 12.9589 26.941 13.3701L41.1713 38.046C41.1778 38.0569 41.1836 38.0673 41.1894 38.0782L41.1887 38.0789Z" fill="white"/>
<path d="M28.4974 32.0553C28.5045 32.0553 28.5096 32.0553 28.5161 32.0444C28.5225 32.0334 28.5199 32.0289 28.5161 32.0224L25.433 26.6771H18.1132H11.5751C11.1008 26.6771 10.6768 26.4319 10.4396 26.0208C10.2024 25.6096 10.2031 25.1191 10.4396 24.7086L24.6699 0.0321133C24.6764 0.0211413 24.6822 0.0108148 24.6886 0.000488281C24.6764 0.000488281 24.6635 0.000488281 24.6512 0.000488281H19.2668C19.2668 0.000488281 19.2668 0.000488281 19.2661 0.000488281C18.7841 0.000488281 18.3355 0.259942 18.0945 0.678167L0.0180245 32.0224C0.0141578 32.0295 0.0115799 32.0334 0.0180245 32.0444C0.0244691 32.0553 0.0289804 32.0553 0.0373583 32.0553H28.4974Z" fill="white"/>
</g>
<defs>
<clipPath id="clip0_5389_410">
<rect width="207" height="38.7245" fill="white"/>
</clipPath>
</defs>
</svg>
