<svg width="46" height="40" viewBox="0 0 46 40" fill="none" xmlns="http://www.w3.org/2000/svg">
<path d="M0.50855 33.2228H29.4741C29.6509 33.2228 29.7393 33.1034 29.7658 33.0548C29.7968 33.0018 29.8543 32.8691 29.7658 32.7144L26.5342 27.122H12.2504C11.8834 27.122 11.5519 26.9319 11.3706 26.6136C11.1849 26.2953 11.1849 25.9151 11.3706 25.5968L25.8534 0.5084C25.9462 0.349248 26.0744 0.221043 26.2247 0.137047C26.0169 0.0486295 25.7871 0 25.5616 0H20.0841C19.4785 0 18.917 0.322723 18.6164 0.848806L0.212352 32.7144L0.19909 32.7365C0.128356 32.8824 0.190248 33.0106 0.221194 33.0592C0.25214 33.1079 0.340557 33.2184 0.50855 33.2184V33.2228Z" fill="white"/>
<path d="M42.2368 39.6595C42.4136 39.5269 42.5639 39.3589 42.6744 39.1688L45.4242 34.4031C45.7248 33.8815 45.7248 33.2316 45.4242 32.7099L27.029 0.848747C26.9317 0.694017 26.7903 0.676333 26.7328 0.680754C26.6753 0.680754 26.5294 0.698438 26.4454 0.848747L11.9582 25.9327C11.8698 26.0875 11.9273 26.2201 11.9582 26.2731C11.9892 26.3262 12.0732 26.4411 12.25 26.4411H18.7089L25.853 14.0671C26.0387 13.7488 26.3659 13.5587 26.7328 13.5587C27.0997 13.5587 27.4313 13.7488 27.6125 14.0671L42.1395 39.2307V39.2396C42.2014 39.3722 42.2323 39.5181 42.2323 39.6595H42.2368Z" fill="white"/>
<path d="M41.5164 39.8233C41.5429 39.7747 41.5959 39.642 41.5119 39.4917L27.0292 14.4077C26.9408 14.253 26.7949 14.2397 26.7374 14.2397C26.6799 14.2397 26.5296 14.2574 26.4456 14.4077L23.2184 20.0001L30.3625 32.3741C30.5482 32.6924 30.5482 33.0726 30.3625 33.3909C30.1768 33.7092 29.8497 33.8993 29.4828 33.8993H0.5084C0.327144 33.8993 0.150309 33.8507 0 33.7623C0.0265252 33.9878 0.10168 34.2088 0.216622 34.4077L2.95756 39.1557C3.05924 39.3326 3.19187 39.4917 3.35102 39.6199C3.37754 39.642 3.40849 39.6641 3.43943 39.6863C3.47038 39.7084 3.50133 39.7305 3.53227 39.7481C3.80194 39.9161 4.11141 40.0046 4.42529 40.0046H41.2467C41.4103 39.9913 41.4898 39.8763 41.5164 39.8277V39.8233Z" fill="white"/>
</svg>
