<svg width="130" height="28" viewBox="0 0 130 28" fill="none" xmlns="http://www.w3.org/2000/svg">
<path d="M6.74363 25.9673H0.947876V2.03271H6.23081V17.4173H6.57122L16.1159 2.03271H21.9116V25.9629H16.6287V10.5782H16.2883L6.74363 25.9629V25.9673Z" fill="#00328A"/>
<path d="M37.0796 2.03271C38.2378 2.03271 39.29 2.20955 40.2316 2.56322C41.1733 2.91689 41.9823 3.3855 42.6499 3.96463C43.3218 4.54377 43.8391 5.20248 44.2016 5.93192C44.5641 6.66136 44.7454 7.41291 44.7454 8.18656C44.7454 9.00884 44.5906 9.68081 44.2856 10.2025C43.9805 10.7286 43.6446 11.1485 43.282 11.4668C42.8709 11.8294 42.3979 12.1034 41.8497 12.2891V12.6295C42.893 12.8329 43.8258 13.1998 44.6437 13.7215C44.9841 13.9514 45.3245 14.2166 45.6649 14.5261C46.0053 14.8355 46.3103 15.1936 46.5844 15.6048C46.8585 16.0159 47.0707 16.4845 47.2299 17.0062C47.389 17.5323 47.4686 18.1247 47.4686 18.7834C47.4686 19.7648 47.2697 20.6932 46.8718 21.5685C46.4739 22.4483 45.9036 23.2087 45.1698 23.8585C44.4315 24.5084 43.5208 25.0212 42.4421 25.397C41.3634 25.7728 40.1432 25.9629 38.7772 25.9629H25.9965V2.03271H37.0751H37.0796ZM31.2838 6.82051V10.9231H37.0796C37.7604 10.9231 38.2997 10.7286 38.6976 10.3439C39.0955 9.95491 39.2944 9.46861 39.2944 8.87179C39.2944 8.27498 39.0955 7.78868 38.6976 7.39965C38.2997 7.01061 37.7604 6.82051 37.0796 6.82051H31.2838ZM38.7816 21.1795C39.8028 21.1795 40.5986 20.9187 41.1689 20.3926C41.7347 19.8665 42.0221 19.221 42.0221 18.443C42.0221 17.6649 41.7392 17.0195 41.1689 16.4934C40.5986 15.9673 39.8072 15.7065 38.7816 15.7065H31.2838V21.1751H38.7816V21.1795Z" fill="#00328A"/>
<path d="M61.4475 24.9414C59.6084 24.8972 57.9373 24.5701 56.4386 23.9688C54.94 23.3632 53.6491 22.5674 52.5704 21.5771C51.4917 20.5869 50.6561 19.4419 50.0637 18.1421C49.4713 16.8424 49.1796 15.4631 49.1796 14.0042C49.1796 12.5453 49.4758 11.166 50.0637 9.86627C50.6561 8.56654 51.4873 7.42154 52.5704 6.43126C53.6491 5.44099 54.94 4.64081 56.4386 4.03957C57.9373 3.43391 59.6084 3.11119 61.4475 3.06698V0.675293H66.7304V3.06698C68.5695 3.11119 70.2406 3.43833 71.7392 4.03957C73.2379 4.64523 74.5288 5.44099 75.6075 6.43126C76.6862 7.42154 77.5217 8.56654 78.1141 9.86627C78.7065 11.166 78.9983 12.5453 78.9983 14.0042C78.9983 15.4631 78.7021 16.8424 78.1141 18.1421C77.5217 19.4419 76.6862 20.5869 75.6075 21.5771C74.5288 22.5674 73.2379 23.3676 71.7392 23.9688C70.2406 24.5745 68.5695 24.8972 66.7304 24.9414V27.3331H61.4475V24.9414ZM61.4475 7.81499C60.3776 7.8592 59.4139 8.05814 58.5518 8.41181C57.6897 8.76548 56.9559 9.22083 56.3546 9.77786C55.7534 10.3349 55.2848 10.9759 54.9576 11.6921C54.6261 12.4083 54.4625 13.1775 54.4625 13.9998C54.4625 14.8221 54.6261 15.5913 54.9576 16.3075C55.2848 17.0237 55.7534 17.6647 56.3546 18.2217C56.9559 18.7787 57.6897 19.2297 58.5518 19.5701C59.4139 19.9105 60.382 20.105 61.4475 20.1492V7.80615V7.81499ZM66.7304 20.1581C67.8002 20.1138 68.764 19.9193 69.6261 19.5789C70.4881 19.2385 71.222 18.7876 71.8232 18.2306C72.4245 17.6735 72.8931 17.0325 73.2202 16.3163C73.5474 15.6001 73.7154 14.8309 73.7154 14.0086C73.7154 13.1863 73.5518 12.4171 73.2202 11.7009C72.8887 10.9848 72.4245 10.3437 71.8232 9.7867C71.222 9.22967 70.4881 8.77432 69.6261 8.42065C68.764 8.06698 67.7958 7.86804 66.7304 7.82383V20.1669V20.1581Z" fill="#00328A"/>
<path d="M107.327 7.35092C107.76 8.34119 107.973 9.41988 107.973 10.5826C107.973 11.7453 107.756 12.8239 107.327 13.8142C106.894 14.8045 106.293 15.671 105.519 16.4137C104.745 17.1564 103.817 17.7355 102.725 18.1555C101.633 18.5755 100.431 18.7877 99.1132 18.7877H91.275V25.9672H89.573V2.37744H99.1176C100.435 2.37744 101.642 2.58964 102.729 3.00962C103.821 3.42961 104.75 4.01316 105.523 4.75145C106.297 5.49415 106.898 6.36064 107.332 7.35092H107.327ZM105.758 13.213C106.098 12.3907 106.271 11.5154 106.271 10.5826C106.271 9.64977 106.098 8.77443 105.758 7.96542C105.417 7.1564 104.927 6.44906 104.29 5.84782C103.653 5.24216 102.897 4.76913 102.022 4.42872C101.147 4.08832 100.174 3.9159 99.1088 3.9159H91.2706V17.2492H99.1088C100.179 17.2492 101.147 17.0768 102.022 16.7364C102.897 16.396 103.653 15.9274 104.29 15.335C104.927 14.7426 105.413 14.0353 105.758 13.2174V13.213Z" fill="#00328A"/>
<path d="M110.36 3.9159V2.37744H129.104V3.9159H120.585V25.9672H118.883V3.9159H110.364H110.36Z" fill="#00328A"/>
</svg>
