<svg width="100" height="100" viewBox="0 0 100 100" fill="none" xmlns="http://www.w3.org/2000/svg">
<path d="M88.4128 81.9289C88.4211 81.944 88.4266 81.9522 88.4128 81.9768C88.4005 82 88.3908 82 88.373 82H11.2814C10.2521 82 9.2942 81.4506 8.78159 80.565L3.03848 70.6772C3.02474 70.6539 3.01237 70.6307 3 70.6075C3.02611 70.6075 3.05222 70.6075 3.07833 70.6075H63.7692C64.7793 70.6075 65.685 70.0881 66.1907 69.2176C66.6965 68.347 66.6965 67.3083 66.1907 66.4378L51.4145 40.9959L57.989 29.6758C57.9973 29.6621 58.0028 29.6526 58.0289 29.6526C58.0564 29.6526 58.0605 29.6608 58.0687 29.6744L88.4128 81.9248V81.9289ZM96.6145 67.8072L58.0687 1.43363C58.0605 1.4186 58.055 1.4104 58.0289 1.4104C58.0014 1.4104 57.9973 1.41997 57.9877 1.43363L27.6436 53.684C27.6353 53.6977 27.6312 53.7059 27.6436 53.7291C27.6573 53.7524 27.6669 53.7524 27.6834 53.7524H40.8312L55.6074 28.3105C56.1131 27.4399 57.0174 26.9206 58.0289 26.9206C59.0404 26.9206 59.9446 27.4399 60.4504 28.3105L90.7958 80.5623C90.8096 80.5855 90.8219 80.6074 90.8343 80.6306C90.848 80.6087 90.8618 80.5855 90.8742 80.5623L96.6145 70.6758C97.1285 69.7916 97.1285 68.6914 96.6145 67.8058V67.8072ZM3.07971 67.8769H63.7692C63.7844 67.8769 63.7954 67.8769 63.8091 67.8536C63.8228 67.8304 63.8173 67.8208 63.8091 67.8072L57.2346 56.4884H27.6821C26.6706 56.4884 25.7663 55.9691 25.2606 55.0985C24.7562 54.228 24.7562 53.1893 25.2606 52.3201L55.6074 0.0669667C55.6211 0.0437333 55.6335 0.0218667 55.6473 0C55.6211 0 55.5937 0 55.5676 0H44.0854C44.0854 0 44.0854 0 44.0841 0C43.0561 0 42.0996 0.5494 41.5856 1.435L3.03848 67.8072C3.03023 67.8222 3.02474 67.8304 3.03848 67.8536C3.05222 67.8769 3.06184 67.8769 3.07971 67.8769Z" fill="#00246A"/>
</svg>
