<svg width="127" height="48" viewBox="0 0 127 48" fill="none" xmlns="http://www.w3.org/2000/svg">
<g clip-path="url(#clip0_5780_761)">
<path d="M8.58667 31.8237H0V8.34375H5.63534V24.9478H6.50733L13.5513 8.34375H22.172V31.8237H16.5367V15.2198H15.6647L8.58733 31.8237H8.58667Z" fill="#00328A"/>
<path d="M42.9347 19.4464C44.2094 19.7818 45.2207 20.4251 45.9707 21.3751C46.7194 22.3258 47.094 23.4937 47.094 24.8804C47.094 27.0051 46.328 28.6931 44.7967 29.9451C43.2647 31.1978 41.09 31.8237 38.2727 31.8237H27.2034V8.34375H38.742C40.3067 8.34375 41.6654 8.60108 42.8174 9.11508C43.9687 9.62975 44.852 10.3451 45.4674 11.2617C46.082 12.1791 46.39 13.2184 46.39 14.3811C46.39 15.5438 46.088 16.5504 45.484 17.3997C44.88 18.2498 44.03 18.8757 42.9347 19.2784V19.4464ZM32.7374 12.8717V17.7691H37.8694C38.786 17.7691 39.5014 17.5571 40.016 17.1318C40.53 16.7071 40.7874 16.1038 40.7874 15.3204C40.7874 14.5371 40.536 13.9064 40.0327 13.4924C39.5294 13.0791 38.8087 12.8717 37.8694 12.8717H32.7374ZM37.836 27.2951C38.954 27.2951 39.82 27.0604 40.4354 26.5904C41.05 26.1211 41.358 25.4278 41.358 24.5111C41.358 22.6998 40.184 21.7938 37.836 21.7938H32.7374V27.2951H37.836Z" fill="#00328A"/>
<path d="M77.3827 25.3333C76.3767 26.9327 74.9673 28.2013 73.156 29.1407C71.3447 30.08 69.2987 30.5833 67.0173 30.65V33.3333H61.3153V30.65C59.0347 30.5827 56.988 30.08 55.1767 29.1407C53.3653 28.2013 51.9567 26.9327 50.95 25.3333C49.944 23.7347 49.4407 21.9287 49.4407 19.916C49.4407 17.9033 49.944 16.098 50.95 14.4987C51.956 12.9 53.3653 11.6307 55.1767 10.6913C56.988 9.75202 59.034 9.24868 61.3153 9.18202V6.66602H67.0173V9.18202C69.298 9.24935 71.3447 9.75202 73.156 10.6913C74.9673 11.6307 76.376 12.9 77.3827 14.4987C78.3887 16.098 78.892 17.9033 78.892 19.916C78.892 21.9287 78.3887 23.7347 77.3827 25.3333ZM56.9047 24.042C58.0333 25.048 59.5487 25.574 61.45 25.6187V14.214C59.5493 14.2593 58.034 14.784 56.9047 15.7907C55.7753 16.7967 55.2107 18.172 55.2107 19.9167C55.2107 21.6613 55.7753 23.036 56.9047 24.0427V24.042ZM66.884 25.6187C68.784 25.574 70.2993 25.0487 71.4293 24.042C72.558 23.036 73.1233 21.6607 73.1233 19.916C73.1233 18.1713 72.558 16.7967 71.4293 15.79C70.3 14.784 68.7847 14.2587 66.884 14.2133V25.618V25.6187Z" fill="#00328A"/>
<path d="M98.3474 8.34375C100.025 8.34375 101.501 8.66242 102.775 9.29975C104.049 9.93708 105.033 10.8204 105.727 11.9497C106.419 13.0791 106.767 14.3817 106.767 15.8577C106.767 17.3337 106.419 18.6417 105.727 19.7824C105.033 20.9231 104.049 21.8117 102.775 22.4491C101.5 23.0864 100.024 23.4051 98.3474 23.4051H92.3434V31.8244H89.9954V8.34375H98.3474ZM98.3474 21.1237C100.248 21.1237 101.723 20.6544 102.775 19.7151C103.825 18.7758 104.351 17.4904 104.351 15.8577C104.351 14.2251 103.825 12.9451 102.775 12.0171C101.723 11.0891 100.247 10.6251 98.3474 10.6251H92.3434V21.1237H98.3474Z" fill="#00328A"/>
<path d="M119.311 31.8244H116.963V10.6251H108.979V8.34375H127.294V10.6251H119.311V31.8244Z" fill="#00328A"/>
</g>
<defs>
<clipPath id="clip0_5780_761">
<rect width="127" height="48" fill="white"/>
</clipPath>
</defs>
</svg>
