<svg width="46" height="40" viewBox="0 0 46 40" fill="none" xmlns="http://www.w3.org/2000/svg">
<g clip-path="url(#clip0_5340_432)">
<path d="M45.962 5.55458C45.9747 5.55458 45.9873 5.55458 46 5.55458C45.994 5.54325 45.9873 5.53192 45.9813 5.52058L43.196 0.698583C42.9467 0.266583 42.482 -0.00141735 41.9833 -0.00141735H4.58533C4.57667 -0.00141735 4.57266 -0.00141507 4.566 0.0092516C4.55933 0.0205849 4.562 0.02525 4.566 0.0325833L19.286 25.5206C19.29 25.5273 19.292 25.5312 19.3053 25.5312C19.3187 25.5312 19.3207 25.5273 19.3247 25.5199L22.514 19.9979L15.346 7.58725C15.1007 7.16258 15.1007 6.65592 15.346 6.23125C15.5913 5.80658 16.0307 5.55325 16.5207 5.55325H45.962V5.55458Z" fill="white"/>
<path d="M3.39195 0.665879C3.38529 0.676546 3.37862 0.687879 3.37195 0.699213L0.587285 5.52188C0.337951 5.95321 0.337951 6.48988 0.587285 6.92188L19.286 39.2992C19.29 39.3065 19.2926 39.3105 19.3053 39.3105C19.3186 39.3105 19.3206 39.3065 19.3253 39.2992L34.0453 13.8112C34.0493 13.8045 34.0513 13.8005 34.0453 13.7892C34.0386 13.7779 34.034 13.7779 34.026 13.7779H27.648L20.48 26.1885C20.2346 26.6132 19.796 26.8665 19.3053 26.8665C18.8146 26.8665 18.376 26.6132 18.1306 26.1885L3.40995 0.69988C3.40329 0.688547 3.39728 0.67788 3.39128 0.666547L3.39195 0.665879Z" fill="white"/>
<path d="M16.5206 6.88835C16.5133 6.88835 16.508 6.88836 16.5013 6.89969C16.4946 6.91102 16.4973 6.91569 16.5013 6.92236L19.6906 12.4437H27.2626H34.026C34.5166 12.4437 34.9553 12.697 35.2006 13.1217C35.446 13.5464 35.4453 14.053 35.2006 14.477L20.48 39.9664C20.4733 39.9777 20.4673 39.9884 20.4606 39.999C20.4733 39.999 20.4866 39.999 20.4993 39.999H26.0693C26.0693 39.999 26.0693 39.999 26.07 39.999C26.5686 39.999 27.0326 39.731 27.282 39.299L45.9813 6.92236C45.9853 6.91502 45.988 6.91102 45.9813 6.89969C45.9746 6.88836 45.97 6.88835 45.9613 6.88835H16.5206Z" fill="white"/>
</g>
<defs>
<clipPath id="clip0_5340_432">
<rect width="45.6" height="40" fill="white" transform="matrix(-1 0 0 -1 46 40)"/>
</clipPath>
</defs>
</svg>
