<svg width="40" height="40" viewBox="0 0 40 40" fill="none" xmlns="http://www.w3.org/2000/svg">
<path d="M0.362764 31.0293C0.286293 31.1623 0.336882 31.2793 0.362764 31.3234C0.388058 31.3676 0.463941 31.4705 0.61747 31.4705H25.7492C25.9022 31.4705 25.9786 31.3676 26.0039 31.3234C26.0292 31.2793 26.0804 31.1623 26.0039 31.0293L23.4557 26.6158C23.2986 26.3452 23.0063 26.1764 22.6928 26.1764H10.8057C10.4869 26.1764 10.201 26.0117 10.0416 25.7352C9.88218 25.4587 9.88218 25.1293 10.0416 24.8529L22.6075 3.08815C22.6869 2.95109 22.7981 2.84109 22.9292 2.76462C22.7475 2.68697 22.551 2.64697 22.3528 2.64697H17.5981C17.0745 2.64697 16.5863 2.92874 16.3245 3.38227L0.362764 31.0293Z" fill="white"/>
<path d="M36.8202 37.0584C36.9778 36.9401 37.1113 36.7901 37.2108 36.6178L39.596 32.486C39.8466 32.0413 39.8466 31.489 39.596 31.0443L39.5896 31.0325L23.626 3.3825C23.6219 3.37603 23.6178 3.36897 23.6137 3.36191C23.5325 3.24309 23.4102 3.23426 23.3613 3.23544C23.3125 3.23721 23.1908 3.25485 23.1166 3.3825L10.5508 25.1472C10.4743 25.2801 10.5249 25.3972 10.5508 25.4413C10.576 25.4854 10.6519 25.5884 10.8055 25.5884H15.5602C16.0837 25.5884 16.5719 25.3066 16.8337 24.8531L22.6072 14.8531C22.7666 14.5766 23.0525 14.4119 23.3713 14.4119C23.6902 14.4119 23.976 14.5766 24.1355 14.8531L36.7408 36.686V36.6949C36.7937 36.8107 36.8202 36.9343 36.8202 37.0584Z" fill="white"/>
<path d="M36.1969 37.1976C36.2198 37.1547 36.2657 37.04 36.1922 36.9124L23.6263 15.1471C23.5498 15.0141 23.4227 15 23.3716 15C23.3204 15 23.1933 15.0141 23.1169 15.1471L20.7398 19.2647C20.478 19.7182 20.478 20.2818 20.7398 20.7353L26.5133 30.7353C26.6727 31.0118 26.6727 31.3412 26.5133 31.6176C26.3539 31.8941 26.068 32.0588 25.7492 32.0588H0.617446C0.458034 32.0588 0.307446 32.0176 0.17627 31.9424C0.200387 32.1382 0.263328 32.3282 0.36274 32.5L2.7398 36.6176C3.00156 37.0712 3.4898 37.3529 4.01333 37.3529H35.9374C35.9427 37.3529 35.948 37.3529 35.9533 37.3529H35.9651C36.1063 37.34 36.1739 37.2406 36.1969 37.1976Z" fill="white"/>
</svg>
